<?xml version="1.0" encoding="UTF-8"?>
<svg width="63px" height="33px" viewBox="0 0 63 33" version="1.1" xmlns="http://www.w3.org/2000/svg" xmlns:xlink="http://www.w3.org/1999/xlink">
    <!-- Generator: Sketch 59.1 (86144) - https://sketch.com -->
    <title>La defense Arena (1)</title>
    <desc>Created with Sketch.</desc>
    <g id="Design" stroke="none" stroke-width="1" fill="none" fill-rule="evenodd">
        <g id="Tablet" transform="translate(-320.000000, -742.000000)" fill="#FFFFFF" fill-rule="nonzero">
            <g id="La-defense-Arena-(1)" transform="translate(320.000000, 742.000000)">
                <g id="La-defense-Arena" transform="translate(0.180000, 26.100000)">
                    <path d="M49.0940048,0.18 L48.4201975,0.18 L47.343685,6.46056661 L47.34,6.48 L47.8037689,6.48 L48.1722574,4.23902264 L49.3477353,4.23902264 L49.7367538,6.48 L50.22,6.48 L49.0961104,0.193807935 L49.0940048,0.18 Z M48.7255163,0.579407422 L48.7255163,0.57173634 L48.7639445,0.57173634 L48.7639445,0.579407422 C48.8165857,1.08620992 48.9887224,2.17652569 49.2761432,3.81967043 L49.2761432,3.82887572 L48.2354267,3.82887572 L48.2354267,3.81967043 L48.2354267,3.81967043 C48.2833303,3.51640717 48.3343922,3.20598425 48.3844014,2.89914116 L48.3996674,2.8045312 C48.562855,1.83746408 48.7118297,0.926140106 48.727622,0.579407422 L48.7255163,0.579407422 Z" id="Shape"></path>
                    <path d="M51.5417063,0.18 L50.58,0.18 L50.58,6.48 L51.044382,6.48 L51.044382,3.53532917 L51.5757116,3.53532917 C52.155392,3.53532917 52.3992722,3.68261384 52.4083048,4.59598343 L52.4083048,6.48 L52.8673734,6.48 L52.8673734,4.6010975 C52.8673734,3.80228265 52.7047866,3.47140352 52.2574072,3.33690397 L52.2329661,3.32923289 L52.2574072,3.32156182 C52.6968167,3.18194822 52.9199752,2.7344687 52.9199752,1.99190842 L52.9199752,1.57818167 C52.9236943,0.597818003 52.51032,0.18 51.5417063,0.18 Z M52.4502797,1.59812647 L52.4502797,2.01441026 C52.4502797,3.00551344 52.0501887,3.13950157 51.6176865,3.13950157 L51.044382,3.13950157 L51.044382,0.573270559 L51.5225785,0.573270559 C52.1729258,0.573270559 52.4502797,0.879602243 52.4502797,1.59812647 Z" id="Shape"></path>
                    <polygon id="Path" points="53.46 6.48 55.44 6.48 55.44 6.07036448 53.910468 6.07036448 53.910468 3.30212842 55.3560842 3.30212842 55.3560842 2.8919815 53.910468 2.8919815 53.910468 0.591169736 55.44 0.591169736 55.44 0.18 53.46 0.18"></polygon>
                    <path d="M58.0566715,2.80606543 C58.0566715,3.80381686 58.0717613,4.69826447 58.1045425,5.61879373 L58.1045425,5.62851043 L58.0712411,5.62851043 L58.0712411,5.62186217 C57.9437581,4.99590227 56.9785298,1.59710366 56.5560148,0.193296533 L56.5523725,0.181534219 L55.98,0.181534219 L55.98,6.48 L56.4228083,6.48 L56.4228083,3.86927672 C56.4228083,2.81833916 56.3962709,1.69120221 56.3520422,0.851986361 L56.3520422,0.843292474 L56.3770183,0.843292474 L56.3770183,0.84994074 C56.5289573,1.47743486 57.4869006,4.94118191 57.9380342,6.46568066 L57.9416767,6.47795437 L58.5,6.47795437 L58.5,0.18 L58.0587529,0.18 L58.0566715,2.80606543 Z" id="Path"></path>
                    <path d="M60.7957895,0.193807935 L60.7931579,0.18 L60.1194737,0.18 L59.0431579,6.46056661 L59.04,6.48 L59.503158,6.48 L59.8715789,4.23902264 L61.0468421,4.23902264 L61.4357896,6.48 L61.92,6.48 L60.7957895,0.193807935 Z M60.4273685,0.579918825 L60.4273685,0.57173634 L60.4657895,0.57173634 L60.4657895,0.579407422 C60.518421,1.08723273 60.6910527,2.17754851 60.9784211,3.81967043 L60.9784211,3.82887572 L59.9378947,3.82887572 L59.9378947,3.81967043 L59.9378947,3.81967043 C59.9905262,3.48521146 60.0468421,3.14001299 60.101579,2.80350841 L60.101579,2.79788294 C60.263158,1.83490706 60.4115789,0.923583083 60.426842,0.579918825 L60.4273685,0.579918825 Z" id="Shape"></path>
                    <path d="M0,0.18 L1.38587993,0.18 C2.37572186,0.18 2.88,0.674488631 2.88,1.78875 L2.88,2.16 C2.88,3.19960228 2.51279248,3.88994317 1.33226551,3.88994317 L0.961011581,3.88994317 L0.961011581,6.48 L0,6.48 L0,0.18 Z M0.961011581,3.09477272 L1.22453114,3.09477272 C1.8238988,3.09477272 1.92657533,2.7409091 1.92657533,2.12625 L1.92657533,1.81789772 C1.92657533,1.35767045 1.84362491,0.982329548 1.31001054,0.982329548 L0.961011581,0.982329548 L0.961011581,3.09477272 Z" id="Shape"></path>
                    <path d="M4.1447347,4.79318459 L3.91415074,6.48 L2.88,6.48 L3.94143561,0.18 L5.37790459,0.18 L6.48,6.47744422 L5.41802938,6.47744422 L5.15855554,4.79062879 L4.1447347,4.79318459 Z M5.03871597,3.89968358 C4.88784658,2.83034482 4.74393229,1.81518863 4.66903255,1.10314807 L4.63158266,1.10314807 C4.60322779,1.62197161 4.40527865,2.97040163 4.27366917,3.89968358 L5.03871597,3.89968358 Z" id="Shape"></path>
                    <path d="M9.72,2.05982635 L9.72,1.69735779 C9.72,0.563429362 9.15200433,0.18 8.19046494,0.18 L6.84,0.18 L6.84,6.47795504 L7.81487977,6.47795504 L7.81487977,3.78628094 L8.04115445,3.78628094 C8.60555855,3.78628094 8.70561193,3.9621472 8.70817743,4.72644974 L8.70817743,6.48 L9.65842859,6.48 L9.65842859,4.64976385 L9.65842859,4.64976385 C9.65586321,3.80826421 9.44549442,3.54497605 9.07914481,3.37166599 C9.32132552,3.27504179 9.72,3.02760205 9.72,2.05982635 Z M8.03858895,2.9800568 L7.81487977,2.9800568 L7.81487977,0.98162298 L8.09041156,0.98162298 C8.64301444,0.98162298 8.74409404,1.27814168 8.74409404,1.76484135 L8.74409404,2.10379291 C8.74409404,2.78834213 8.55424904,2.98210176 8.03858895,2.98210176 L8.03858895,2.9800568 Z" id="Shape"></path>
                    <polygon id="Path" points="11.34 0.18 11.34 6.48 10.26 6.48 10.26 0.18"></polygon>
                    <path d="M12.830811,4.4552169 L12.830811,5.06386715 C12.830811,5.54501569 12.968646,5.81261193 13.3320292,5.81261193 C13.7029308,5.81261193 13.7991646,5.44532296 13.7991646,5.02556416 C13.7991646,4.33033864 13.6558162,4.11521227 12.993707,3.56795172 C12.3315976,3.02069119 11.9747303,2.66756911 11.9747303,1.71104373 C11.9747303,0.858933364 12.2213296,-0.00104747546 13.3355377,-9.55917555e-07 C14.475308,-9.55917555e-07 14.6512357,0.852112285 14.6512357,1.55310949 L14.6512357,2.1082405 L13.7074418,2.1082405 L13.7074418,1.57986911 C13.7074418,1.12967779 13.6347651,0.857359273 13.3184963,0.857359273 C13.0022277,0.857359273 12.9270449,1.13912236 12.9270449,1.56727634 C12.9270449,2.02428873 13.0097459,2.24938438 13.5530664,2.66389621 C14.4768117,3.37906028 14.76,3.79409679 14.76,4.87602509 C14.76,5.79267338 14.4532544,6.66 13.3009537,6.66 C12.1586773,6.66 11.88,5.89813778 11.88,5.04655211 L11.88,4.4552169 L12.830811,4.4552169 Z" id="Path"></path>
                    <polygon id="Path" points="16.2 0.18 17.1889156 0.18 17.1889156 5.61082291 18.36 5.61082291 18.2304 6.48 16.2 6.48"></polygon>
                    <path d="M19.8047347,4.79318459 L19.5736158,6.48 L18.54,6.48 L19.6014357,0.18 L21.0379046,0.18 L22.14,6.47744422 L21.0780293,6.47744422 L20.8185556,4.79062879 L19.8047347,4.79318459 Z M20.6987159,3.89968358 C20.5478465,2.83034482 20.4039322,1.81518863 20.3290326,1.10314807 L20.2915827,1.10314807 C20.2632278,1.62197161 20.0652786,2.97040163 19.9336691,3.89968358 L20.6987159,3.89968358 Z" id="Shape"></path>
                    <path d="M23.58,0.18 L24.9503432,0.18 C26.3097655,0.18 26.64,0.872897726 26.64,2.041875 L26.64,4.45755683 C26.64,5.4209659 26.4720224,6.48 24.9487832,6.48 L23.58,6.48 L23.58,0.18 Z M24.5681033,5.65159091 L24.8848164,5.65159091 C25.5343644,5.65159091 25.6336947,5.2425 25.6336947,4.58846591 L25.6336947,1.96517045 C25.6336947,1.38579545 25.5296839,1.01556818 24.8785758,1.01556818 L24.5665433,1.01556818 L24.5681033,5.65159091 Z" id="Shape"></path>
                    <polygon id="Path" points="29.6216141 3.60255683 28.1873644 3.60255683 28.1873644 5.58664772 29.7 5.58664772 29.7 6.48 27.18 6.48 27.18 0.18 29.7 0.18 29.7 1.08204545 28.1863051 1.08204545 28.1863051 2.70869317 29.6205548 2.70869317"></polygon>
                    <polygon id="Path" points="30.24 0.18 32.76 0.18 32.76 1.08204545 31.2374999 1.08204545 31.2374999 2.739375 32.6880749 2.739375 32.6880749 3.64142045 31.2380251 3.64142045 31.2380251 6.48 30.2405249 6.48"></polygon>
                    <polygon id="Path" points="35.7410844 3.60255683 34.3068349 3.60255683 34.3068349 5.58664772 35.82 5.58664772 35.82 6.48 33.3 6.48 33.3 0.18 35.82 0.18 35.82 1.08204545 34.3068349 1.08204545 34.3068349 2.70869317 35.7410844 2.70869317"></polygon>
                    <path d="M36.18,6.48 L36.18,0.18 L37.3068832,0.18 C37.5583829,1.06926137 38.3113458,4.17886364 38.3784466,4.5127841 L38.3886911,4.5127841 C38.3441279,3.73806817 38.3415667,2.85136364 38.3415667,1.81636364 L38.3415667,0.18 L39.24,0.18 L39.24,6.48 L38.155631,6.48 C37.9563775,5.72778409 37.1163375,2.2725 37.0538467,2.00761364 L37.0441145,2.00761364 C37.0902143,2.77056817 37.0866287,3.62454545 37.0866287,4.7572159 L37.0866287,6.48 L36.18,6.48 Z" id="Path"></path>
                    <path d="M40.9108109,4.4552169 L40.9108109,5.06386715 C40.9108109,5.54501569 41.0486459,5.81261193 41.4120292,5.81261193 C41.7834319,5.81261193 41.8796658,5.44532296 41.8796658,5.02556416 C41.8796658,4.33033864 41.7363174,4.11521227 41.0742083,3.56795172 C40.4120988,3.02069119 40.0547302,2.66756911 40.0547302,1.71104373 C40.0547302,0.858933364 40.3008284,-0.00104747546 41.4155378,-9.55917555e-07 C42.555308,-9.55917555e-07 42.7312357,0.852112285 42.7312357,1.55310949 L42.7312357,2.1082405 L41.7869406,2.1082405 L41.7869406,1.57986911 C41.7869406,1.12967779 41.7147651,0.857359273 41.3979952,0.857359273 C41.0812252,0.857359273 41.0070449,1.13912236 41.0070449,1.56727634 C41.0070449,2.02428873 41.0897459,2.24938438 41.6325654,2.66389621 C42.5568118,3.37906028 42.84,3.79409679 42.84,4.87602509 C42.84,5.79267338 42.5327531,6.66 41.3809537,6.66 C40.2386773,6.66 39.96,5.89813778 39.96,5.04655211 L39.96,4.4552169 L40.9108109,4.4552169 Z" id="Path"></path>
                    <polygon id="Path" points="45.8184362 3.60255683 44.3841867 3.60255683 44.3841867 5.58664772 45.9 5.58664772 45.9 6.48 43.38 6.48 43.38 0.18 45.9 0.18 45.9 1.08204545 44.3863051 1.08204545 44.3863051 2.70869317 45.8205548 2.70869317"></polygon>
                </g>
                <path d="M0,15.30288 C0,11.02464 2.01501306,7.56 4.5,7.56 L4.5,23.04 C2.01501306,23.04 0,19.57392 0,15.30288" id="Path"></path>
                <path d="M4.5,13.14 C4.5,7.67221758 8.12634221,3.24 12.6,3.24 L12.6,23.04 C8.12634221,23.04 4.5,18.6120675 4.5,13.14" id="Path"></path>
                <path d="M12.24,11.519283 C12.24,5.15377856 17.642489,0 24.3,0 L24.3,23.04 C17.6396138,23.04 12.24,17.8776175 12.24,11.519283" id="Path"></path>
                <path d="M24.3,12.51 C24.3,6.69333377 29.13696,1.98 35.1,1.98 L35.1,23.04 C29.13264,23.04 24.3,18.3252443 24.3,12.51" id="Path"></path>
                <path d="M34.74,13.7664184 C34.74,8.64897149 38.8491428,4.5 43.92,4.5 L43.92,23.04 C38.8506001,23.04 34.74,18.885298 34.74,13.772149" id="Path"></path>
                <path d="M43.92,15.3 C43.92,11.02464 47.3054202,7.56 51.48,7.56 L51.48,23.04 C47.3054202,23.04 43.92,19.57392 43.92,15.3" id="Path"></path>
                <path d="M51.12,16.11 C51.12,12.2818496 53.9402323,9.18 57.42,9.18 L57.42,23.04 C53.9402323,23.04 51.12,19.936715 51.12,16.11" id="Path"></path>
                <path d="M57.42,16.7392792 C57.42,13.2595401 59.8371293,10.44 62.82,10.44 L62.82,23.04 C59.8371293,23.04 57.42,20.2190184 57.42,16.7392792" id="Path"></path>
            </g>
        </g>
    </g>
</svg>