<?xml version="1.0" encoding="utf-8"?>
<!-- Generator: Adobe Illustrator 26.3.1, SVG Export Plug-In . SVG Version: 6.00 Build 0)  -->
<svg version="1.1" id="logo_aplati" xmlns="http://www.w3.org/2000/svg" xmlns:xlink="http://www.w3.org/1999/xlink" x="0px"
	 y="0px" viewBox="0 0 452.8 565.7" style="enable-background:new 0 0 452.8 565.7;" xml:space="preserve">
<style type="text/css">
	.st0{fill:#FFFFFF;}
	.st1{fill:#CDB789;}
	.st2{fill:#1D995B;}
	.st3{fill:#254D98;}
	.st4{fill:#D2353B;}
</style>
<g>
	<path class="st0" d="M226.4,564.1c-60.2-30.9-112.8-81.4-152.3-145.9C33.4,351.6,8.7,273,2.5,190.7C1,171.2,0.6,151.5,1.3,132
		c68.2-41.7,146.1-63.8,225.1-63.8c79,0,156.8,22.1,225.1,63.8c0.7,19.4,0.3,39.2-1.2,58.7c-6.1,82.3-30.9,160.9-71.6,227.4
		C339.2,482.7,286.5,533.1,226.4,564.1z"/>
</g>
<path class="st1" d="M226.4,76.2c39.5,0,78.6,5.5,116.4,16.4c35.1,10.1,69,24.9,100.8,43.9c0.5,17.7,0,35.7-1.3,53.5
	c-6.1,81-30.4,158.4-70.4,223.8c-37.9,62-88.1,110.7-145.5,141.1C169,524.6,118.8,475.9,80.9,414c-40-65.4-64.4-142.8-70.4-223.8
	c-1.3-17.8-1.8-35.8-1.3-53.5c31.8-19,65.7-33.8,100.8-43.9C147.7,81.8,186.9,76.2,226.4,76.2 M226.4,67.2
	c-82.3,0-159.4,23.4-226,64.2c-0.7,19.5-0.3,39.3,1.2,59.4C14.3,361.4,105.1,503,226.4,565.2C347.7,503,438.5,361.4,451.3,190.8
	c1.5-20.1,1.9-39.9,1.2-59.4C385.8,90.6,308.6,67.2,226.4,67.2L226.4,67.2z"/>
<path class="st2" d="M226.4,541.3c-53.1-29.6-99.7-75.7-135.2-133.6c-39-63.8-62.8-139.3-68.7-218.4c-1.1-15.2-1.6-30.5-1.4-45.6
	c62.8-36.2,133.6-55.3,205.3-55.3c71.6,0,142.5,19.1,205.3,55.3c0.2,15.2-0.3,30.5-1.4,45.6c-5.9,79.1-29.7,154.6-68.7,218.4
	C326.1,465.7,279.4,511.7,226.4,541.3z"/>
<path class="st0" d="M90.4,332.1v56.4c2.8,4.9,5.6,9.8,8.5,14.6c13.6,22.3,29,42.8,45.7,61.2v-69.8
	C124.3,376.2,106,355.2,90.4,332.1z"/>
<path class="st0" d="M308.2,394.4v69.8c16.8-18.4,32.1-38.9,45.7-61.2c2.9-4.8,5.8-9.6,8.5-14.6v-56.4
	C346.7,355.2,328.5,376.2,308.2,394.4z"/>
<path class="st0" d="M226.4,447.9c-12.1-5.4-23.7-11.6-35-18.6v78c11.3,8.7,23,16.6,35,23.5c12-7,23.7-14.8,35-23.5v-78
	C250.1,436.3,238.4,442.5,226.4,447.9z"/>
<g>
	<path class="st2" d="M207.5,470.2v24.9h-3.8v-18.5c-0.8,1.2-2.2,1.8-3.3,1.8V475c1.8-0.2,3.3-1.8,3.3-4.8H207.5z"/>
	<path class="st2" d="M222.6,474.4v16.9c0,2.6-1.1,3.7-3.5,3.7h-8v-3.6h7.8v-6.3h-5c-2.6,0-3.6-1.3-3.6-4.1v-6.7
		c0-2.6,1.1-4.2,3.4-4.2h5.3C221.4,470.2,222.6,471.6,222.6,474.4z M214,481.7h4.9v-8H214V481.7z"/>
	<path class="st2" d="M225.1,490.9v-3.3h3.8v4h4.9v-7.8h-4.7v-3.4h4.6v-6.9h-4.8v3.3h-3.7v-2.8c0-2.7,0.7-3.9,3.6-3.9h5.2
		c2.7,0,3.4,1.3,3.4,3.8v5.5c0,1.3-0.4,2.1-1.2,2.6c0.9,0.5,1.3,1.4,1.3,3v5.9c0,2.5-1.1,4-3.5,4h-5.3
		C226.1,495.1,225.1,493.4,225.1,490.9z"/>
	<path class="st2" d="M239.9,490.9v-3.3h3.8v4h4.9v-7.8h-4.7v-3.4h4.6v-6.9h-4.8v3.3h-3.7v-2.8c0-2.7,0.7-3.9,3.6-3.9h5.2
		c2.7,0,3.4,1.3,3.4,3.8v5.5c0,1.3-0.4,2.1-1.2,2.6c0.9,0.5,1.3,1.4,1.3,3v5.9c0,2.5-1.1,4-3.5,4h-5.3
		C240.9,495.1,239.9,493.4,239.9,490.9z"/>
</g>
<g>
	<path class="st0" d="M237.2,338c0.5-0.2,1-0.3,1.5-0.5c7.6-2.1,21.5-9.2,5-8.7l-2.9,0.3c0,0,29.9-11,30.7-18.9c0,0,0.6-1.9-8.9-0.5
		c0,0,20.8-17.1,20.5-23.1c0,0,0.8-4.5-5.8,0.3c0,0,3.2-20-1.1-22.3c0,0-5,35.5-41.8,60.7c0,0-3.2,1.9-8,5.1
		c-4.9-3.3-8.3-5.3-8.3-5.3c-36.8-25.2-41.8-60.7-41.8-60.7c-4.2,2.4-1.1,22.3-1.1,22.3c-6.6-4.7-5.8-0.3-5.8-0.3
		c-0.3,6,20.5,23.1,20.5,23.1c-9.8-2.2-8.9,0.5-8.9,0.5c0.8,7.9,30.7,18.9,30.7,18.9l-2.9-0.3c-17.2-1-2.6,6.6,5,8.7
		c0.6,0.2,1.2,0.4,1.9,0.6c-14.4,11.1-32,27.7-31.8,43.2c0,0,12.6-18.4,19.2-23.4c6.6-5,16-6,16-7.6c0-1.6-6-2.1-6-2.1
		s6.5-3.1,13.4-6c6.7,2.8,12.9,5.8,12.9,5.8s-6,0.5-6,2.1c0,1.6,9.5,2.6,16,7.6c6.6,5,19.2,23.4,19.2,23.4
		C268.8,365.6,251.6,349.1,237.2,338z"/>
	<g>
		<path class="st0" d="M203.8,289c-0.3,0.4-0.4,0.9-0.4,1.5c0,1.6,1.3,2.9,2.9,2.9c0.3,0,0.7-0.1,1-0.2l0.3,0.8l1.6,5.7
			c4.8-1.1,11.2-1.4,17.7-1.4c6.2,0,12.4,0.3,17,1.4l1.6-5.7l0.3-0.8c0.3,0.1,0.6,0.2,1,0.2c1.6,0,2.9-1.3,2.9-2.9
			c0-0.5-0.2-1.1-0.4-1.5c1.3-0.9,2.5-3,2.8-4.1c1.8-6.5-2.9-8.9-7.2-8.1c0.1,0.8,0.2,1.6,0.2,2.3c0,1-0.1,1.9-0.2,2.8
			c0.3,0,0.6-0.1,1,0c2.8,0.3,3.6,3.9,2.9,6.4c-0.5-0.4-1.1-0.7-1.8-0.7c-1.6,0-2.9,1.3-2.9,2.9c0,0.8,0.3,1.4,0.8,2l-4.6,3
			l-1.4-4.6c1.4-0.2,2.4-1.4,2.4-2.8c0-0.5-0.1-0.9-0.3-1.3c1.1-1.3,2.1-3.1,2.4-4.1c3.5-12.8-13.1-13-16.6-4.5
			c-3.5-8.5-20.1-8.4-16.6,4.5c0.3,1.1,1.3,2.8,2.4,4.1c-0.2,0.4-0.3,0.8-0.3,1.3c0,1.4,1.1,2.6,2.4,2.8l-1.4,4.6l-4.6-3
			c0.5-0.5,0.8-1.2,0.8-2c0-1.6-1.3-2.9-2.9-2.9c-0.7,0-1.3,0.2-1.8,0.7c-0.7-2.5,0.1-6.1,2.9-6.4c0.3,0,0.6,0,1,0
			c-0.2-0.9-0.2-1.9-0.2-2.8c0-0.8,0.1-1.6,0.2-2.3c-4.4-0.8-9,1.6-7.2,8.1C201.3,286,202.5,288.1,203.8,289z M229.3,282.5
			c1.1-2.6,3.5-3.8,5.7-3.6c3,0.3,4.2,3.6,3.9,6.4c-0.3-0.1-0.6-0.2-1-0.2c-1.6,0-2.9,1.3-2.9,2.9c0,1,0.5,1.8,1.2,2.3l-4.8,2.7
			l-2.4-3.8c1-0.8,1.7-2.1,1.7-3.5C230.8,284.5,230.2,283.3,229.3,282.5z M213.8,285.3c-0.2-2.9,1-6.2,3.9-6.4
			c2.2-0.2,4.6,1,5.7,3.6c-0.9,0.8-1.5,2-1.5,3.3c0,1.4,0.7,2.7,1.7,3.5l-2.4,3.8l-4.8-2.7c0.7-0.5,1.2-1.4,1.2-2.3
			c0-1.6-1.3-2.9-2.9-2.9C214.4,285.2,214.1,285.2,213.8,285.3z"/>
		<path class="st0" d="M242.7,301.6c-4.3-1.1-10.1-1.4-16-1.4c-6.1,0-12.2,0.3-16.6,1.4l0.6,3.2c10-1.2,21.4-1.2,31.4,0L242.7,301.6
			z"/>
		<path class="st0" d="M210.9,306.7c0,1.9,31.1,1.9,31.1,0C241.9,304.8,210.9,304.8,210.9,306.7z"/>
		<path class="st0" d="M223.2,270.9c-0.9-1.5,1.3-2.1,2.2-0.5c0.1,0.1,0.1,0.2,0.2,0.4c-0.2,0.1-0.4,0.3-0.4,0.6
			c0,0.3,0.2,0.5,0.5,0.6c-0.2,0.6-1,0.9-1.5,0.5c0.1,0.7,0.8,0.9,1.4,0.7c0,0.5,0.2,1.1,0.9,1.5c0.7-0.5,0.9-1,0.9-1.5
			c0.6,0.2,1.2,0,1.4-0.7c-0.5,0.3-1.3,0.1-1.5-0.5c0.3-0.1,0.5-0.3,0.5-0.6c0-0.3-0.2-0.5-0.4-0.6c0-0.1,0.1-0.2,0.2-0.4
			c0.9-1.6,3.1-1,2.2,0.5c4.5-0.6,0.7-6.8-2.7-1c0.2-1.1,0.8-2,0.8-3.9c0-1.7-0.7-2.4-1.3-3.2c-0.7,0.8-1.3,1.5-1.3,3.2
			c0,1.9,0.6,2.8,0.8,3.9C222.5,264.1,218.7,270.3,223.2,270.9z"/>
	</g>
	<g>
		<polygon class="st0" points="228.4,374.8 228.4,368.6 226.4,368.6 224.3,368.6 224.3,374.8 218.2,374.8 218.2,376.8 218.2,378.9 
			224.3,378.9 224.3,385.1 226.4,385.1 228.4,385.1 228.4,378.9 234.6,378.9 234.6,376.8 234.6,374.8 		"/>
		<circle class="st0" cx="226.4" cy="366.6" r="2.1"/>
		<circle class="st0" cx="236.7" cy="376.8" r="2.1"/>
		<circle class="st0" cx="216.1" cy="376.8" r="2.1"/>
		<circle class="st0" cx="226.4" cy="387.1" r="2.1"/>
	</g>
	<g>
		<g>
			<polygon class="st0" points="278.9,336.6 278.9,330.4 276.9,330.4 274.8,330.4 274.8,336.6 268.7,336.6 268.7,338.6 268.7,340.7 
				274.8,340.7 274.8,346.8 276.9,346.8 278.9,346.8 278.9,340.7 285.1,340.7 285.1,338.6 285.1,336.6 			"/>
			<circle class="st0" cx="276.9" cy="328.3" r="2.1"/>
			<circle class="st0" cx="287.2" cy="338.6" r="2.1"/>
			<circle class="st0" cx="266.6" cy="338.6" r="2.1"/>
			<circle class="st0" cx="276.9" cy="348.9" r="2.1"/>
		</g>
		<g>
			<polygon class="st0" points="177.9,336.5 177.9,330.3 175.9,330.3 173.8,330.3 173.8,336.5 167.7,336.5 167.7,338.5 167.7,340.6 
				173.8,340.6 173.8,346.7 175.9,346.7 177.9,346.7 177.9,340.6 184.1,340.6 184.1,338.5 184.1,336.5 			"/>
			<circle class="st0" cx="175.9" cy="328.2" r="2.1"/>
			<circle class="st0" cx="186.2" cy="338.5" r="2.1"/>
			<circle class="st0" cx="165.6" cy="338.5" r="2.1"/>
			<circle class="st0" cx="175.9" cy="348.8" r="2.1"/>
		</g>
	</g>
</g>
<g>
	<path class="st0" d="M110.5,210.9l-20.7,6.5l1.6,15.4l-15.9,5l-6.9-80l25.4-8l40,69.6l-16,5L110.5,210.9z M88.3,203.4l15.4-4.9
		l-17.3-31.2l-1.7,0.5L88.3,203.4z"/>
	<path class="st0" d="M211.9,194.4c0.9,9-3.2,15.1-12.2,16l-26.9,2.7c-7.7,0.8-14-3.1-15-12.9l-1.2-12.5l16.1-1.6l1.3,12.6l22-2.2
		l-1.3-13.2l-31.7-8.9c-5.9-2-8.1-4.8-8.8-11.6l-1.4-13.9c-0.9-9,3.6-13,11.7-13.8l27.7-2.8c10.3-1,14,3.8,15,13.9l1,10.3l-16.1,1.6
		l-1.1-11.4l-22,2.2l1.2,11.6l31.8,8.6c6.1,1.9,8,4.7,8.7,12L211.9,194.4z"/>
	<path class="st0" d="M298.3,200.8c-1,9-6.3,14.1-15.3,13.1l-26.8-3c-7.7-0.9-13-6-11.9-15.8l1.4-12.5l16.1,1.8l-1.4,12.6l21.9,2.5
		l1.5-13.2L254.6,171c-5.4-3.2-6.9-6.4-6.2-13.2l1.6-13.9c1-9,6.2-11.9,14.3-11L292,136c10.3,1.2,12.8,6.7,11.7,16.7l-1.2,10.3
		l-16.1-1.8l1.3-11.4l-21.9-2.5l-1.3,11.6l29.3,15.1c5.6,3.2,6.8,6.2,6,13.5L298.3,200.8z"/>
	<path class="st0" d="M349.4,147l45.8,14.1l-4.2,13.6l-30.1-9.3l-5.2,17.1l21.6,6.6l-4.1,13.5l-21.6-6.6l-5.3,17.2l30.1,9.3
		l-4.2,13.6l-45.8-14.1L349.4,147z"/>
</g>
<path class="st0" d="M191.3,405.2h2.5v12.9h6.1v2.3h-8.6V405.2z"/>
<path class="st0" d="M207.6,417.9v-10.5c0-1.5,0.8-2.2,2.2-2.2h5.5c1.7,0,2.2,0.9,2.2,2.6v9.9c0,1.5-0.8,2.6-2.4,2.6h-5.2
	C208.6,420.4,207.6,419.7,207.6,417.9z M215,418.1v-10.6h-4.9v10.6H215z"/>
<path class="st0" d="M225.1,405.2h2.5v15.2h-2.5V405.2z"/>
<path class="st0" d="M235.4,420.4v-15.2h7.5c1.5,0,2.1,0.8,2.1,2.5v5.7c0,1.3-0.5,2-1.5,2.1l1.7,4.9h-2.5l-1.6-4.9h-3.1v4.9H235.4z
	 M242.6,413.3v-5.8h-4.6v5.8H242.6z"/>
<path class="st0" d="M253,405.2h8.5v2.3h-6v4.2h4.2v2.2h-4.2v4.2h6v2.3H253V405.2z"/>
<g>
	<path class="st0" d="M126.3,257.6c0.7,2.5,0.1,4.2-2.2,4.9l-5.9,1.7c-1.9,0.6-3.6-0.2-4.4-2.7l-1.1-3.7l3.5-1l1.2,4.1l5.6-1.6
		l-1.4-4.9l-8.5-1.7c-1.4-0.3-2-0.9-2.5-2.5l-1.2-4.2c-0.7-2.3,0.1-3.6,2.2-4.2l6-1.8c2.5-0.7,3.6,0.2,4.4,2.8l0.9,3.2l-3.5,1
		l-1.1-3.8l-5.6,1.6l1.2,4.3l8.6,1.7c1.4,0.3,2,0.9,2.4,2.5L126.3,257.6z"/>
	<path class="st0" d="M141.6,253l-5.6,1.3l0.3,4.9l-3.6,0.9l-1-23.8l6-1.4l9.6,21.8l-3.7,0.9L141.6,253z M135.9,250.9l4.5-1
		l-4.6-10.9l-0.5,0.1L135.9,250.9z"/>
	<path class="st0" d="M148.9,232.5l3.6-0.7l4.4,23l-3.6,0.7L148.9,232.5z"/>
	<path class="st0" d="M173.3,252.1l-5.4-9.9c-1-1.8-2.4-5-3.7-7.9c0.5,2.9,1.1,6.1,1.3,7.6l1.6,11l-3.2,0.5l-3.4-23.1l4.5-0.7
		l5.6,10.4c1,1.9,2.6,5.3,3.9,8.1c-0.6-3-1.2-6.4-1.4-8l-1.7-11.4l3.2-0.5l3.4,23.1L173.3,252.1z"/>
	<path class="st0" d="M186.9,230.4l-5,0.5l-0.3-3.4l13.7-1.3l0.3,3.4l-5,0.5l1.9,19.9l-3.7,0.3L186.9,230.4z"/>
	<path class="st0" d="M200.1,236.5l7.8-0.4l0.2,3.4l-7.8,0.4L200.1,236.5z"/>
	<path class="st0" d="M214.8,225.1l11.3-0.2l0.1,3.4l-7.7,0.1l0.1,6.7l5.4-0.1l0.1,3.3l-5.4,0.1l0.1,6.6l7.7-0.1l0.1,3.4l-11.3,0.2
		L214.8,225.1z M218.4,223.8l1.5-4.3l4.2-0.1l-2.7,4.3L218.4,223.8z"/>
	<path class="st0" d="M237.4,228.6l-5-0.2l0.1-3.5l13.7,0.4l-0.1,3.5l-5-0.2l-0.6,19.9l-3.7-0.1L237.4,228.6z"/>
	<path class="st0" d="M253,225.8l3.7,0.3l-1.6,23.3l-3.7-0.3L253,225.8z"/>
	<path class="st0" d="M264.8,226.8L276,228l-0.4,3.4l-7.6-0.8l-0.7,6.7l5.4,0.6l-0.4,3.3l-5.4-0.6l-0.7,6.5l7.6,0.8l-0.4,3.4
		l-11.3-1.2L264.8,226.8z"/>
	<path class="st0" d="M289.2,253.6l-2.2-11c-0.4-2-0.8-5.5-1.2-8.7c-0.4,3-0.8,6.2-1,7.7l-1.8,11l-3.2-0.5l3.7-23.1l4.5,0.7
		l2.2,11.6c0.4,2.1,0.9,5.8,1.3,8.9c0.4-3,0.8-6.5,1.1-8.1l1.8-11.4l3.2,0.5l-3.7,23.1L289.2,253.6z"/>
	<path class="st0" d="M309.9,257.7l-1.5-11.1c-0.3-2-0.5-5.5-0.7-8.7c-0.5,2.9-1.1,6.1-1.5,7.6l-2.4,10.9l-3.2-0.7l5-22.9l4.4,1
		l1.5,11.7c0.3,2.1,0.6,5.8,0.8,8.9c0.6-3,1.2-6.5,1.5-8l2.5-11.2l3.2,0.7l-5,22.9L309.9,257.7z"/>
	<path class="st0" d="M327.6,237.9l10.9,3l-0.9,3.3l-7.4-2l-1.8,6.5l5.2,1.4l-0.9,3.2l-5.2-1.4l-1.8,6.3l7.4,2l-0.9,3.3l-10.9-3
		L327.6,237.9z"/>
</g>
<polygon class="st0" points="202.7,76.8 164.3,48.9 211.7,48.9 226.4,3.8 241,48.9 288.5,48.9 250.1,76.8 264.8,121.9 226.4,94 
	188,121.9 "/>
<path class="st3" d="M226.4,15.2l11.1,34.1l1,3.1h3.3h35.8l-29,21.1l-2.7,1.9l1,3.1l11.1,34.1l-29-21.1l-2.7-1.9l-2.7,1.9l-29,21.1
	l11.1-34.1l1-3.1l-2.7-1.9l-29-21.1H211h3.3l1-3.1L226.4,15.2 M226.4,0.6L211,47.9h-49.8l40.3,29.3l-15.4,47.4l40.3-29.3l40.3,29.3
	l-15.4-47.3l40.3-29.3h-49.8L226.4,0.6L226.4,0.6z"/>
<path class="st4" d="M226.4,46.4l4.3,13.4l0.8,2.3h2.5h14l-11.4,8.3l-2,1.4l0.8,2.3l4.3,13.4l-11.4-8.3l-2-1.4l-2,1.4L213,87.5
	l4.3-13.4l0.8-2.3l-2-1.4l-11.4-8.3h14.1h2.5l0.8-2.3L226.4,46.4 M226.4,35.5l-7.5,23.2h-24.5l19.8,14.4l-7.6,23.2l19.8-14.4
	l19.8,14.4l-7.6-23.2l19.8-14.4h-24.4L226.4,35.5L226.4,35.5z"/>
</svg>
