<?xml version="1.0" encoding="UTF-8"?>
<svg width="26px" height="30px" viewBox="0 0 26 30" version="1.1" xmlns="http://www.w3.org/2000/svg" xmlns:xlink="http://www.w3.org/1999/xlink">
    <!-- Generator: Sketch 59.1 (86144) - https://sketch.com -->
    <title>olympique_lyonnais</title>
    <desc>Created with Sketch.</desc>
    <g id="Design" stroke="none" stroke-width="1" fill="none" fill-rule="evenodd">
        <g id="Desktop" transform="translate(-630.000000, -745.000000)" fill-rule="nonzero">
            <g id="Logos-reassurance" transform="translate(0.000000, 720.000000)">
                <g id="olympique_lyonnais" transform="translate(630.000000, 25.000000)">
                    <g id="g1713" transform="translate(13.000000, 15.000000) scale(-1, 1) rotate(-180.000000) translate(-13.000000, -15.000000) " fill="#FFFFFF">
                        <path d="M12.6234175,0.0198941436 L13.1279114,0.640065611 C14.9911063,2.74930141 17.3672141,3.59175539 21.1379657,3.69783735 C22.4464764,3.73504764 23.4619403,4.0627593 24.1548908,4.75637213 C24.8536698,5.45553386 25.2079165,6.48403927 25.2079165,7.81349106 L25.205326,29.4421342 L0.0411851606,29.4421342 L0.0389185001,7.81349106 C0.0389185001,6.48403927 0.393165152,5.45553386 1.09162039,4.75637213 C1.78489469,4.0627593 2.80035858,3.73504764 4.10854549,3.69783735 C7.8792971,3.59175539 10.2554049,2.74930141 12.1185998,0.640065611 L12.6234175,0.0198941436 Z M12.6232232,1.16430635 C10.7451331,3.34208742 8.04651189,4.24166245 4.10867501,4.36928721 C1.84687166,4.44109654 0.691522433,5.4989785 0.691522433,7.8135237 L0.693141477,19.5719747 L24.5536287,19.5719747 L24.554924,7.8135237 C24.554924,5.4989785 23.3995748,4.44109654 21.1380952,4.36928721 C17.1999345,4.24166245 14.5016371,3.34208742 12.6232232,1.16430635 Z" id="path1715-2"></path>
                    </g>
                    <g id="g1721" transform="translate(12.680921, 12.220309) scale(-1, 1) rotate(-180.000000) translate(-12.680921, -12.220309) translate(0.680921, 0.220309)" fill="#FFFFFF">
                        <polygon id="path1723" points="0.0133211253 23.0043109 23.8715417 23.0043109 23.8725132 14.4505144 0.0123496994 14.4505144"></polygon>
                        <path d="M7.32414308,0.0184388473 C10.7089148,0.0184388473 13.4622597,2.79386937 13.4622597,6.20546525 C13.4622597,9.61706114 10.7089148,12.3921653 7.32414308,12.3921653 C3.94001898,12.3921653 1.18667411,9.61706114 1.18667411,6.20546525 C1.18667411,2.79386937 3.94001898,0.0184388473 7.32414308,0.0184388473 Z M8.62293953,1.27089145 C8.43480671,1.5496422 8.64916803,1.77257752 8.82046281,1.87898589 C8.50021606,1.93480132 8.22206444,1.62079872 8.22206444,1.62079872 C8.1530932,1.95275366 8.44063527,2.12117917 8.60092055,2.17601538 C8.47236852,2.22595551 8.23469298,2.2631658 8.02777925,2.20571833 C8.14596941,2.55791045 8.69158697,2.54061093 9.03352889,2.5066647 C9.21712839,3.27306607 9.21615696,3.38959302 8.46265426,3.63048068 C8.45391142,3.50481435 8.3703688,3.38175928 8.30593088,3.34030571 C8.27873095,3.4855564 8.21396922,3.60828507 8.14920749,3.67748315 C8.07343627,3.6964147 7.8347893,3.70947094 7.53818059,3.5776029 C7.59646615,3.79596854 7.93452237,3.96276202 7.93452237,3.96276202 L7.93452237,3.96276202 L7.60197089,4.45204467 C7.48669502,4.41744563 6.8002207,4.28100791 6.79892546,4.05187087 C6.79795404,3.87038911 7.02008677,3.16306724 7.18166728,2.88855976 C6.90351566,2.84123088 6.72671614,3.11182149 6.72671614,3.11182149 C6.7179733,3.00671874 6.601726,2.86048884 6.48418347,2.84677979 C6.48580251,2.98223829 6.4553645,3.06677745 6.4553645,3.06677745 L6.4553645,3.06677745 L5.51308135,2.77072718 C5.47131004,2.66333959 5.35894844,2.45966223 5.16304421,2.40776367 C5.20287268,2.55595201 5.19542508,2.76354625 5.05813022,2.79422842 C4.82304514,2.84710619 4.47009372,2.72503034 4.21590394,2.45443973 C4.17996118,2.68684083 4.31822747,2.87419789 4.43026526,2.95482018 C4.35708451,2.99431532 4.11811373,2.99431532 3.92026665,2.90324803 C4.00024739,3.23324453 4.35255119,3.27567732 4.45357948,3.27633013 C4.42994145,3.36445976 4.2816371,3.50579357 4.09738998,3.51395372 C4.33765599,3.69772032 4.76864529,3.55116401 4.92536867,3.42549769 C4.92536867,3.42549769 5.78734727,3.48425077 5.91071836,3.75810544 C5.95346111,3.85178397 5.68923326,4.3834994 5.68923326,4.3834994 C5.55193839,4.20756655 5.41885304,4.21637951 5.41885304,4.21637951 C5.41885304,4.21637951 5.37546268,4.37762409 5.43633871,4.48892855 C5.23719639,4.41352876 4.80555948,4.38937471 4.7126264,4.60349707 C5.31232,4.57444693 7.073839,5.68422745 7.073839,5.68422745 L7.073839,5.68422745 L6.73189708,6.06449049 L5.74751881,5.82490846 C5.80159485,5.71654165 5.81940433,5.50470414 5.68793802,5.3676136 C5.66591903,5.5621516 5.56068122,5.69238761 5.37092936,5.71556243 C5.33207232,5.56835331 5.26342489,5.4759804 5.10864436,5.4325684 C5.16466326,5.53636552 5.13875857,5.66627512 5.07820635,5.69597807 L5.07820635,5.69597807 L4.17445644,5.65811497 C4.17348501,5.63428733 4.09900902,5.34182752 3.8059622,5.29906833 C3.84158115,5.37577375 3.9296571,5.69499885 3.74864807,5.74787663 C3.36007771,5.86113953 2.88699328,5.42016497 2.88699328,5.42016497 C2.87209809,5.65844138 2.97474542,5.8435136 3.10362126,5.9463315 C2.95596452,5.97211758 2.66971769,5.951554 2.5842322,5.89606497 C2.65352725,6.15131449 2.92746936,6.25119474 3.15413541,6.276328 C3.11560218,6.36511045 2.90221229,6.45585132 2.68234622,6.44834398 C3.00680248,6.78095173 3.5958104,6.52602862 3.68680062,6.48359584 C4.28519899,6.2058243 5.45641484,6.79988328 5.8482233,7.00780393 L5.8482233,7.00780393 L5.07173018,7.4657516 C5.0425874,7.3306195 4.95904477,7.17981991 4.75245486,7.07145311 C4.82304514,7.34955105 4.77058814,7.5418042 4.73075968,7.6495182 C4.6601694,7.71936909 4.49049367,7.73699501 4.38396063,7.7307933 C4.42022719,7.79738013 4.51769359,7.87604398 4.61580761,7.89693397 L4.61580761,7.89693397 L4.08832334,8.57749056 C3.93127615,8.47989515 3.67158162,8.44333767 3.51097253,8.57749056 C3.90019052,8.64016051 4.20003732,9.32430756 3.31895401,9.72578699 C3.50417255,9.80543006 3.75415282,9.77246305 3.89080007,9.67127718 C3.88918102,9.83937629 3.77520038,10.0038849 3.59160088,10.1351002 C3.91540952,10.1677408 4.12167563,9.98527979 4.1919421,9.70816106 C4.23857055,9.87071127 4.19388495,10.0662285 4.14078034,10.2336748 C4.56723632,10.0815696 4.49308414,9.48522574 4.47883656,9.42451422 C4.86611169,8.5530101 5.5483765,8.45247704 6.61208788,8.10452821 C6.98317258,7.98277876 7.19980056,8.16752457 7.22084812,8.47042938 C7.13665788,8.46422766 6.86109672,8.4501922 6.80831592,8.48968733 C6.71182094,8.56312869 6.73189708,8.77757745 6.77528743,8.88920832 C6.87761096,8.87288802 7.13536264,8.81609337 7.26682895,8.81837821 C7.42031425,8.82066305 7.441038,8.89997972 7.3924667,9.02662526 C7.30892407,9.24433809 7.04890574,9.38958877 7.04890574,9.38958877 L7.04890574,9.38958877 L6.72121139,9.30733445 C6.6091736,9.40917313 6.54603092,9.5802099 6.50749769,9.77605352 C6.49972628,9.81587505 6.46734542,9.82729927 6.46734542,9.82729927 C6.4404693,9.88115626 6.4216884,9.9483959 6.4404693,10.0188996 C6.50264056,10.0861393 6.72865899,10.1504412 6.86660147,10.1801442 C6.86660147,10.1801442 6.90999183,10.3031993 6.94884887,10.342368 C7.0511724,10.3939401 7.13536264,10.352813 7.24642901,10.3883912 C7.44071419,10.450082 7.63176129,10.5098143 7.84871308,10.5378852 C8.37878782,10.6054513 8.55461591,10.1249816 8.92440538,10.1507676 C8.90465305,10.0564363 8.80556761,9.97352917 8.72720592,9.97711964 C9.2663473,9.79531147 8.86773887,9.49469152 9.31038528,9.05012649 C9.24627117,8.99561669 9.09440491,8.98615091 9.05587169,9.0181387 C9.41918498,8.45215064 8.7042155,8.45900516 9.02025274,7.74352313 C8.9477196,7.71708425 8.79876763,7.75494735 8.7527868,7.81663809 C8.95840529,7.29340921 8.33118795,7.31593123 8.68511079,6.73753973 C8.57825394,6.68890523 8.45714951,6.73329645 8.41246392,6.76952752 L8.41246392,6.76952752 L9.21874743,5.18090935 C9.30941385,5.00203884 9.54028941,4.92565983 9.73198413,5.01411586 C9.85179332,5.06927848 10.0195262,5.23378713 9.90748841,5.47238994 L9.90748841,5.47238994 L9.30779481,6.66997368 C9.16305235,6.96014865 9.09699538,7.59435558 9.76630784,7.93479707 L9.76630784,7.93479707 L11.0712567,8.61437444 C11.2700752,8.71686593 11.353294,8.97668514 11.2571228,9.19374515 C11.2104944,9.2991743 11.0375806,9.51949837 10.745829,9.39285283 L10.745829,9.39285283 L10.6936958,9.36576113 C10.4948773,9.25380386 10.5602866,8.98582451 10.6998482,8.83633054 C10.4294679,8.78377917 10.3028588,8.94175969 10.2850493,9.03511182 C10.2031257,8.97635873 9.93663119,8.8451435 9.65362244,8.9260922 C9.66625097,9.27175619 9.94634545,9.43300077 10.0133738,9.46792622 C9.93209787,9.53973555 9.81876484,9.79465866 10.0237357,10.0012737 C10.0716594,9.82534083 10.2377732,9.5694385 10.5826294,9.71370997 C11.1007232,9.9591673 11.480227,9.58641161 11.5835219,9.34128068 C11.7538453,8.93588438 11.5997124,8.4825064 11.23478,8.29384371 L11.23478,8.29384371 L9.89485987,7.59761964 C9.53834656,7.40308164 9.51179425,7.07145311 9.62674632,6.8331767 L9.62674632,6.8331767 L9.70964133,6.66703603 C9.5661941,7.57052794 11.0848566,7.36815619 11.4669508,8.13227272 C11.5741315,6.44116305 9.61573683,7.28524906 10.0525547,5.98223617 C9.96868824,6.61317903 10.9893331,6.43528774 11.2746085,6.93403617 C11.2665133,5.71425681 10.1098688,6.24172896 10.2921731,5.43420043 C10.3815443,5.79879597 10.8348764,5.60360516 11.040171,5.8973706 C10.9601903,5.14728953 10.446306,5.47630681 10.251697,5.07123692 C10.1833734,4.89987375 10.0519071,4.76343603 9.87802182,4.68509858 C9.60893684,4.56367553 9.29808055,4.61426847 9.08339542,4.78954851 C9.16596662,4.37501285 10.2610874,3.70131079 10.7312576,3.60665304 C10.5926675,3.41407348 10.2999445,3.45944392 10.1901734,3.46695125 C10.2329161,3.39024584 10.3297349,3.3181101 10.439506,3.28416387 C10.334592,3.15915036 10.1555258,3.20484721 10.0862308,3.21170173 L10.0862308,3.21170173 L9.87089803,2.7446147 C9.95087877,2.70479316 10.2312971,2.36663651 9.9819644,2.05720359 C9.95249781,2.32355091 9.68859377,2.3499898 9.59274641,2.14043713 L9.59274641,2.14043713 L9.35668991,1.62569481 C9.19057608,1.65931463 8.79293907,1.62406278 8.62293953,1.27089145 Z M7.04437241,10.0486026 C7.18425775,9.93370763 7.47147601,9.98789104 7.54627581,10.0792847 C7.42743804,10.1204119 7.28852413,10.2082151 7.14281024,10.179165 C7.01231536,10.1533789 7.04437241,10.048929 7.04437241,10.0486026 Z M7.05020097,9.26033198 C6.48385966,8.53701621 5.64681432,8.94894062 5.55096697,9.26359604 C5.99264195,9.01487464 6.47382159,8.99888075 7.05020097,9.26033198 Z" id="path1735-2"></path>
                        <polygon id="path1727" points="14.7703494 12.105646 14.7703494 0.305088628 22.2347862 0.305088628 22.2347862 4.05810523 18.898262 4.05810523 18.898262 12.105646"></polygon>
                    </g>
                    <g id="g1745" transform="translate(8.408891, 6.922098) scale(-1, 1) rotate(-180.000000) translate(-8.408891, -6.922098) translate(6.908891, 4.922098)" fill="#111F2A">
                        <path d="M2.00792089,0.339834015 C1.78870244,0.125711656 1.5212365,0.00592064041 1.16634223,0.00592064041 C0.811124151,0.00592064041 0.539124894,0.125711656 0.319906444,0.339834015 C0.00451682872,0.647961313 0.013259662,1.02887716 0.013259662,1.55537009 C0.013259662,2.08186303 0.00451682872,2.46245246 0.319906444,2.77057976 C0.539124894,2.98470212 0.811124151,3.10449314 1.16634223,3.10449314 C1.5212365,3.10449314 1.78870244,2.98470212 2.00792089,2.77057976 C2.32363431,2.46245246 2.31910452,2.08186303 2.31910452,1.55537009 C2.31910452,1.02887716 2.32363431,0.647961313 2.00792089,0.339834015 M1.55653164,2.41120672 C1.4687795,2.50978134 1.33277987,2.57375692 1.16634223,2.57375692 C0.99958078,2.57375692 0.859371639,2.50978134 0.771619497,2.41120672 C0.653105535,2.28260274 0.622343714,2.14159533 0.622343714,1.55537009 C0.622343714,0.968818446 0.653105535,0.827811038 0.771619497,0.69920706 C0.859371639,0.600958843 0.99958078,0.536656854 1.16634223,0.536656854 C1.33277987,0.536656854 1.4687795,0.600958843 1.55653164,0.69920706 C1.67472179,0.827811038 1.70969313,0.968818446 1.70969313,1.55537009 C1.70969313,2.14159533 1.67472179,2.28260274 1.55653164,2.41120672" id="path1747"></path>
                    </g>
                    <g id="g1749" transform="translate(3.168770, 6.908174) scale(-1, 1) rotate(-180.000000) translate(-3.168770, -6.908174) translate(2.168770, 4.908174)" fill="#111F2A">
                        <polygon id="path1751" points="1.94285184 0.548486053 0.636607787 0.548486053 0.636607787 3.03210958 0.604226923 3.06507659 0.0595807898 3.06507659 0.0271999258 3.03210958 0.0271999258 0.0503904421 0.0595807898 0.0177498385 1.94220422 0.0177498385 1.9749089 0.0503904421 1.9749089 0.516171855"></polygon>
                    </g>
                    <g id="g1753" transform="translate(5.521613, 6.898669) scale(-1, 1) rotate(-180.000000) translate(-5.521613, -6.898669) translate(4.021613, 4.898669)" fill="#111F2A">
                        <polygon id="path1755" points="2.43522536 3.05540832 1.82225561 3.05540832 1.24781908 1.82714241 0.664639719 3.05540832 0.0354795316 3.05540832 0.0141081614 3.03386552 0.940848489 1.25789028 0.940848489 0.0410485797 0.973553162 0.00808157006 1.51366597 0.00808157006 1.54604684 0.0410485797 1.54604684 1.25789028 2.46728242 3.02309412"></polygon>
                    </g>
                    <g id="g1757" transform="translate(11.583242, 6.898669) scale(-1, 1) rotate(-180.000000) translate(-11.583242, -6.898669) translate(10.083242, 4.898669)" fill="#111F2A">
                        <polygon id="path1759" points="1.839356 3.05540832 1.80697514 3.02276772 1.80697514 1.18934501 0.570673751 3.05540832 0.0593799077 3.05540832 0.0269990437 3.02276772 0.0269990437 0.0410485797 0.0593799077 0.00808157006 0.603702232 0.00808157006 0.636406904 0.0410485797 0.636406904 1.87838815 1.87270829 0.00808157006 2.38367833 0.00808157006 2.416383 0.0410485797 2.416383 3.02276772 2.38367833 3.05540832"></polygon>
                    </g>
                    <g id="g1761" transform="translate(17.947630, 6.931440) scale(-1, 1) rotate(-180.000000) translate(-17.947630, -6.931440) translate(16.447630, 4.931440)" fill="#111F2A">
                        <path d="M1.6190432,3.05540832 L1.58666234,3.08804892 L1.14887306,3.08804892 L1.11713981,3.05638754 L0.00259046912,0.0648762203 L0.0265523085,0.0410485797 L0.629160188,0.0410485797 L0.817940625,0.580271351 L1.92698522,0.580271351 L2.11123233,0.0410485797 L2.71448783,0.0410485797 L2.73812586,0.0645498142 L1.6190432,3.05540832 Z M0.988911587,1.08097821 L1.38363432,2.18945311 L1.76475709,1.08097821 L0.988911587,1.08097821 Z" id="path1763"></path>
                    </g>
                    <g id="g1765" transform="translate(20.210957, 6.898669) scale(-1, 1) rotate(-180.000000) translate(-20.210957, -6.898669) translate(19.710957, 4.898669)" fill="#111F2A">
                        <polygon id="path1767" points="0.0907212639 3.05540832 0.045123403 3.02276772 0.045123403 0.0410485797 0.0907212639 0.00808157006 0.849632197 0.00808157006 0.894778593 0.0410485797 0.894778593 3.02276772 0.849632197 3.05540832"></polygon>
                    </g>
                    <g id="g1769" transform="translate(14.959789, 6.898669) scale(-1, 1) rotate(-180.000000) translate(-14.959789, -6.898669) translate(13.459789, 4.898669)" fill="#111F2A">
                        <polygon id="path1771" points="1.839356 3.05540832 1.80665133 3.02276772 1.80665133 1.18934501 0.570349942 3.05540832 0.0590560991 3.05540832 0.0266752351 3.02276772 0.0266752351 0.0410485797 0.0590560991 0.00808157006 0.603378423 0.00808157006 0.636083096 0.0410485797 0.636083096 1.87838815 1.87238448 0.00808157006 2.38367833 0.00808157006 2.41605919 0.0410485797 2.41605919 3.02276772 2.38367833 3.05540832"></polygon>
                    </g>
                    <g id="g1773" transform="translate(22.542326, 6.925314) scale(-1, 1) rotate(-180.000000) translate(-22.542326, -6.925314) translate(21.042326, 4.925314)" fill="#111F2A">
                        <path d="M2.0596688,1.57986717 C1.92787869,1.69965818 1.7484887,1.77669001 1.4635371,1.81520592 L1.09504287,1.86677807 C0.968109879,1.88375119 0.867081583,1.93075366 0.80588175,1.98656909 C0.740148596,2.04630139 0.713596287,2.1279029 0.713596287,2.20493473 C0.713596287,2.4144874 0.871291095,2.58976744 1.19607116,2.58976744 C1.39424205,2.58976744 1.62058429,2.56463418 1.81292662,2.39881991 L1.85793602,2.40143116 L2.19890652,2.73044844 L2.19890652,2.77222842 C1.93629771,3.00952561 1.63094616,3.10777382 1.21355683,3.10777382 C0.538092004,3.10777382 0.126207414,2.72685798 0.126207414,2.18339193 C0.126207414,1.92651038 0.200683401,1.72968754 0.349635376,1.58411045 C0.490168326,1.4515896 0.687367788,1.37031449 0.954833724,1.33179858 L1.33207079,1.28022643 C1.47648944,1.25868363 1.54675592,1.22898068 1.60827956,1.17349165 C1.67368891,1.11343294 1.70445073,1.02334488 1.70445073,0.916610104 C1.70445073,0.672784796 1.51146078,0.539937539 1.15203319,0.539937539 C0.873557756,0.539937539 0.615806078,0.600649062 0.421197085,0.776908321 L0.375216258,0.774623479 L0.0274457789,0.434834796 L0.0274457789,0.389137951 C0.329235432,0.103206264 0.681863041,0.0092013253 1.14329035,0.0092013253 C1.79641238,0.0092013253 2.30090624,0.3431147 2.30090624,0.933583218 C2.30090624,1.2031946 2.22610645,1.42580352 2.0596688,1.57986717" id="path1775"></path>
                    </g>
                    <g id="g1777" transform="translate(3.480054, 3.237921) scale(-1, 1) rotate(-180.000000) translate(-3.480054, -3.237921) translate(1.980054, 1.237921)" fill="#111F2A">
                        <path d="M1.94285184,0.339834015 C1.73431908,0.129628528 1.47980549,0.0117959491 1.14174927,0.0117959491 C0.803693045,0.0117959491 0.544969941,0.129628528 0.336437177,0.339834015 C0.0356189504,0.642738816 0.0440379751,1.01712654 0.0440379751,1.5341537 C0.0440379751,2.05183367 0.0356189504,2.42622139 0.336437177,2.7291262 C0.544969941,2.93933168 0.803693045,3.05716426 1.14174927,3.05716426 C1.47980549,3.05716426 1.73431908,2.93933168 1.94285184,2.7291262 C2.24334626,2.42622139 2.23913987,2.05183367 2.23913987,1.5341537 C2.23913987,1.01712654 2.24334626,0.642738816 1.94285184,0.339834015 M1.51315778,2.37562846 C1.42961515,2.47257105 1.30009169,2.53556742 1.14174927,2.53556742 C0.983083032,2.53556742 0.849673872,2.47257105 0.766131243,2.37562846 C0.653445836,2.24930932 0.624303058,2.11058676 0.624303058,1.5341537 C0.624303058,0.958373452 0.653445836,0.819324481 0.766131243,0.693331752 C0.849673872,0.596389159 0.983083032,0.533392794 1.14174927,0.533392794 C1.30009169,0.533392794 1.42961515,0.596389159 1.51315778,0.693331752 C1.62584318,0.819324481 1.65919547,0.958373452 1.65919547,1.5341537 C1.65919547,2.11058676 1.62584318,2.24930932 1.51315778,2.37562846" id="path1779"></path>
                    </g>
                    <g id="g1781" transform="translate(17.248786, 3.323165) scale(-1, 1) rotate(-180.000000) translate(-17.248786, -3.323165) translate(15.748786, 1.323165)" fill="#111F2A">
                        <path d="M2.26666048,0.326406036 L2.0351373,0.559786351 C2.22294631,0.837557888 2.2187368,1.16951283 2.2187368,1.61962675 C2.2187368,2.13698032 2.22294631,2.51136804 1.9224519,2.81427284 C1.71391913,3.02447833 1.45908173,3.14231091 1.12102551,3.14231091 C0.783293101,3.14231091 0.524569997,3.02447833 0.316037233,2.81427284 C0.0155428147,2.51136804 0.0239618394,2.13698032 0.0239618394,1.61962675 C0.0239618394,1.10227318 0.0155428147,0.72788546 0.316037233,0.424980658 C0.524569997,0.214775171 0.783293101,0.0972689986 1.12102551,0.0972689986 C1.35481535,0.0972689986 1.5552529,0.151778807 1.72201435,0.261124829 L1.96195655,0.0192579561 L2.00793738,0.0192579561 L2.26666048,0.280056379 L2.26666048,0.326406036 Z M1.58439568,1.01414355 L1.36323438,1.23707888 L1.05432093,0.929930796 L1.31304404,0.673049246 C1.25896799,0.635512551 1.19226341,0.618539438 1.12102551,0.618539438 C0.962683087,0.618539438 0.829273927,0.681535802 0.745731298,0.778478395 C0.633045891,0.904797531 0.603579305,1.0435201 0.603579305,1.61962675 C0.603579305,2.1957334 0.633045891,2.33445597 0.745731298,2.4607751 C0.829273927,2.5577177 0.962683087,2.62104047 1.12102551,2.62104047 C1.27969175,2.62104047 1.4092152,2.5577177 1.49243402,2.4607751 C1.60511943,2.33445597 1.63879553,2.1957334 1.63879553,1.61962675 C1.63879553,1.31672195 1.6303765,1.14437956 1.58439568,1.01414355 L1.58439568,1.01414355 Z" id="path1783"></path>
                    </g>
                    <g id="g1785" transform="translate(5.725573, 3.227783) scale(-1, 1) rotate(-180.000000) translate(-5.725573, -3.227783) translate(4.725573, 1.227783)" fill="#111F2A">
                        <polygon id="path1787" points="1.78760808 0.548486053 0.601820843 0.548486053 0.601820843 2.98902398 0.569439979 3.02166458 0.0545842414 3.02166458 0.0218795687 2.98902398 0.0218795687 0.0598562171 0.0545842414 0.0268892075 1.78760808 0.0268892075 1.81998895 0.0598562171 1.81998895 0.515845449"></polygon>
                    </g>
                    <g id="g1789" transform="translate(7.673166, 3.209364) scale(-1, 1) rotate(-180.000000) translate(-7.673166, -3.209364) translate(6.173166, 1.209364)" fill="#111F2A">
                        <polygon id="path1791" points="2.33172953 3.00324531 1.75081683 3.00324531 1.20422784 1.79619579 0.649219831 3.00324531 0.0676595136 3.00324531 0.0356024582 2.97060471 0.912152447 1.23673584 0.912152447 0.041436942 0.944533311 0.0084699324 1.45550335 0.0084699324 1.48788421 0.041436942 1.48788421 1.23673584 2.3644342 2.97060471"></polygon>
                    </g>
                    <g id="g1793" transform="translate(10.362711, 3.209364) scale(-1, 1) rotate(-180.000000) translate(-10.362711, -3.209364) translate(8.862711, 1.209364)" fill="#111F2A">
                        <polygon id="path1795" points="2.16316464 3.00324531 1.39120484 1.38394497 0.615035534 3.00324531 0.0758941484 3.00324531 0.0435132843 2.97060471 0.0435132843 0.041110536 0.0758941484 0.0084699324 0.590749886 0.0084699324 0.623454559 0.041110536 0.623454559 1.75408941 1.19497681 0.618522813 1.58743288 0.618522813 2.15474562 1.75408941 2.15474562 0.041436942 2.18745029 0.0084699324 2.70230603 0.0084699324 2.7350107 0.041110536 2.7350107 2.97060471 2.70262984 3.00324531"></polygon>
                    </g>
                    <g id="g1797" transform="translate(15.141817, 3.209364) scale(-1, 1) rotate(-180.000000) translate(-15.141817, -3.209364) translate(14.641817, 1.209364)" fill="#111F2A">
                        <polygon id="path1799" points="0.830779398 3.00324531 0.112500222 3.00324531 0.0673538254 2.97060471 0.0673538254 0.041110536 0.112500222 0.0084699324 0.830779398 0.0084699324 0.875925795 0.041436942 0.875925795 2.97060471"></polygon>
                    </g>
                    <g id="g1801" transform="translate(19.936673, 3.261527) scale(-1, 1) rotate(-180.000000) translate(-19.936673, -3.261527) translate(18.436673, 1.261527)" fill="#111F2A">
                        <path d="M1.68411225,3.05540832 L1.65173138,3.02276772 L1.65173138,1.10806991 C1.65173138,0.763058731 1.44708432,0.557096522 1.13428517,0.557096522 C0.821162219,0.557096522 0.62104848,0.763058731 0.62104848,1.10806991 L0.62104848,3.02276772 L0.588343807,3.05540832 L0.0734880691,3.05540832 L0.0411072051,3.02276772 L0.0411072051,1.08685352 C0.0411072051,0.451667373 0.525201122,0.0354996771 1.13428517,0.0354996771 C1.74369303,0.0354996771 2.22778695,0.451667373 2.22778695,1.08685352 L2.22778695,3.02276772 L2.19508228,3.05540832 L1.68411225,3.05540832 Z" id="path1803"></path>
                    </g>
                    <g id="g1805" transform="translate(22.178672, 3.227783) scale(-1, 1) rotate(-180.000000) translate(-22.178672, -3.227783) translate(21.178672, 1.227783)" fill="#111F2A">
                        <polygon id="path1807" points="0.595869361 0.548486053 0.595869361 1.27604511 1.73599958 1.27604511 1.76838045 1.30901212 1.76838045 1.76500135 1.73599958 1.79764195 0.595869361 1.79764195 0.595869361 2.50006774 1.94032284 2.50006774 1.97302751 2.53303475 1.97302751 2.98902398 1.94032284 3.02166458 0.0486327593 3.02166458 0.0159280866 2.98902398 0.0159280866 0.0598562171 0.0486327593 0.0268892075 1.94032284 0.0268892075 1.97302751 0.0598562171 1.97302751 0.515845449 1.94032284 0.548486053"></polygon>
                    </g>
                    <g id="g1809" transform="translate(13.613846, 3.209364) scale(-1, 1) rotate(-180.000000) translate(-13.613846, -3.209364) translate(12.113846, 1.209364)" fill="#111F2A">
                        <path d="M1.19173872,3.00324531 L0.0723322533,3.00324531 L0.0399513893,2.97060471 L0.0399513893,0.041436942 L0.0723322533,0.0084699324 L0.5875118,0.0084699324 L0.619892664,0.041436942 L0.619892664,1.03110004 L1.19173872,1.03110004 C1.80503229,1.03110004 2.17223128,1.50830567 2.17223128,2.01749908 C2.17223128,2.52636609 1.80503229,3.00324531 1.19173872,3.00324531 M1.16227214,1.55694017 L0.619892664,1.55694017 L0.619892664,2.48164846 L1.16227214,2.48164846 C1.42520475,2.48164846 1.59229001,2.26132439 1.59229001,2.01749908 C1.59229001,1.77334737 1.42520475,1.55694017 1.16227214,1.55694017" id="path1811"></path>
                    </g>
                </g>
            </g>
        </g>
    </g>
</svg>