<?xml version="1.0" encoding="UTF-8"?>
<svg width="39px" height="39px" viewBox="0 0 39 39" version="1.1" xmlns="http://www.w3.org/2000/svg" xmlns:xlink="http://www.w3.org/1999/xlink">
    <!-- Generator: Sketch 59.1 (86144) - https://sketch.com -->
    <title>logo Racing Blanc</title>
    <desc>Created with Sketch.</desc>
    <defs>
        <path d="M0.0586827686,3.04649447 C0.0586827686,3.04649447 -0.429529241,12.8779336 2.17426814,18.4997786 C3.99150173,22.437786 7.35474002,25.7783026 12.6165806,27.6794095 C17.8784212,25.7783026 21.2416594,22.437786 23.058893,18.4997786 C25.6626904,12.8507749 25.1744784,3.04649447 25.1744784,3.04649447 C17.3630862,3.04649447 12.6165806,0.0318819188 12.6165806,0.0318819188 C12.6165806,0.0318819188 7.8700749,3.04649447 0.0586827686,3.04649447" id="path-1"></path>
    </defs>
    <g id="Design" stroke="none" stroke-width="1" fill="none" fill-rule="evenodd">
        <g id="Tablet" transform="translate(-543.000000, -740.000000)">
            <g id="logo-Racing-Blanc" transform="translate(543.000000, 740.000000)">
                <g id="g5306" transform="translate(5.951292, 0.070849)">
                    <g id="g5333">
                        <path d="M13.3007358,29.0869373 C18.8338052,27.0771955 22.3597808,23.5737269 24.285506,19.4456089 C27.0249179,13.4978598 26.5095829,3.17756458 26.5095829,3.17756458 C18.2913474,3.15040591 13.3007358,0 13.3007358,0 C13.3007358,0 8.31012409,3.15040591 0.0918886282,3.15040591 C0.0918886282,3.15040591 -0.423446272,13.470701 2.31596556,19.4184502 C4.24169071,23.5737269 7.76766635,27.0771955 13.3007358,29.0869373" id="path4868"></path>
                        <g id="g5319" transform="translate(0.684155, 0.755720)">
                            <g id="g4870">
                                <g id="g4878-Clipped">
                                    <g>
                                        <mask id="mask-2" fill="white">
                                            <use xlink:href="#path-1"></use>
                                        </mask>
                                        <g id="path-1"></g>
                                        <g id="g4878" mask="url(#mask-2)">
                                            <g transform="translate(-0.600000, 3.720000)" id="Group">
                                                <g transform="translate(0.104059, 0.105830)">
                                                    <g transform="translate(0.012166, 0.035424)" fill="#FFFFFF" fill-rule="nonzero">
                                                        <rect id="rect4880" x="0.0542460504" y="0" width="26.0650962" height="3.09608856"></rect>
                                                        <rect id="rect4882" x="0.0542460504" y="6.13785924" width="26.0650962" height="3.09608856"></rect>
                                                        <polygon id="polygon4884" points="26.1464654 15.3446495 26.1464654 12.2485609 1.81723358 12.2485609 2.33256848 13.7151292 3.03776362 15.3446495"></polygon>
                                                        <path d="M21.1287308,18.3864206 L19.5013574,20.0430996 L17.6298781,21.4825092 L8.57083303,21.4825092 L6.72647657,20.015941 L5.18047188,18.3864206 L21.1287308,18.3864206 Z M10.2126378,19.3934744 L10.1440206,19.3934744 C10.0971792,19.4149154 10.0625573,19.4733481 10.0400766,19.5676728 C10.0291104,19.6330169 10.0183008,19.6977326 10.0081962,19.7618987 C9.98595054,19.8739732 9.96346981,19.9915453 9.94122403,20.1148507 L9.92125417,20.2256068 C9.85680133,20.2770408 9.79210726,20.3277677 9.72761794,20.378426 C9.67686008,20.4120406 9.61215941,20.4288478 9.53390772,20.4288478 C9.49333273,20.4288478 9.45886753,20.4183236 9.43019867,20.3975894 C9.40176488,20.3766982 9.38750879,20.3561996 9.38750879,20.3359367 C9.38750879,20.3154382 9.42651716,20.2889706 9.50476892,20.256063 C9.60965285,20.2125527 9.68218656,20.1759538 9.72323148,20.1465018 C9.80148324,20.0905824 9.84049162,20.0243744 9.84049162,19.948192 C9.84049162,19.8971419 9.82717547,19.8588937 9.80101324,19.8336043 C9.76913287,19.8027386 9.71586846,19.7878164 9.64059326,19.7878164 C9.54307236,19.7878164 9.454481,19.8172684 9.3752893,19.8761722 C9.31427021,19.9219602 9.26351227,19.9822777 9.22270236,20.0563396 C9.19011706,20.1166572 9.17405941,20.1649584 9.17405941,20.2015573 C9.17405941,20.2859862 9.2080546,20.3587128 9.27620178,20.4198944 C9.32682044,20.4649231 9.37576801,20.4900942 9.42326462,20.4951319 L9.44100827,20.4960767 L9.575031,20.4960767 C9.64638968,20.4960767 9.72761794,20.4604202 9.81918578,20.3891072 C9.84286002,20.3709229 9.87140465,20.3452951 9.90492982,20.3124448 C9.90037973,20.3376256 9.89556781,20.3629135 9.89070118,20.3881648 L9.88171279,20.442916 L9.87237191,20.4967836 L9.87237191,21.0954827 L10.0217473,21.0954827 C10.0190058,21.0660308 10.0173609,21.03061 10.0173609,20.9887489 C10.0183008,20.9602394 10.0193975,20.929845 10.0203375,20.897173 C10.0212774,20.864501 10.0217473,20.8304153 10.0217473,20.7947587 C10.0217473,20.5889878 10.0426615,20.4118835 10.0846464,20.2632101 C10.1191117,20.1399046 10.1654831,20.0434592 10.2232907,19.9730887 C10.2721686,19.9139492 10.3182267,19.8844973 10.3620915,19.8844973 C10.3976534,19.8844973 10.4270272,19.8980844 10.4497428,19.9247875 C10.4687379,19.9472365 10.4798455,19.973176 10.4830204,20.0022425 L10.4839731,20.0200548 L10.4839731,20.1420251 C10.4839731,20.1908761 10.4688554,20.2361928 10.4385417,20.2778182 C10.4284606,20.2925207 10.3993453,20.3232542 10.35131,20.370191 L10.3345977,20.386437 L10.2262672,20.386437 C10.2315936,20.3565138 10.2481213,20.3270618 10.2765551,20.2973743 C10.2886962,20.2852008 10.2948843,20.2745982 10.2948843,20.2654091 C10.2948843,20.2460886 10.2877563,20.2295171 10.2737352,20.2164011 C10.2593225,20.2032852 10.2437348,20.1966094 10.2262672,20.1966094 C10.1978334,20.1966094 10.1759792,20.2092541 10.1606266,20.2347791 C10.1495821,20.2531571 10.1440989,20.2724776 10.1440989,20.2929762 C10.1440989,20.3367221 10.1654047,20.3806252 10.2078596,20.4243712 C10.2494964,20.4668867 10.2947228,20.4907235 10.3435939,20.4954958 L10.3620915,20.4963908 L10.4839731,20.4963908 C10.5530602,20.4963908 10.6216773,20.4703946 10.6898245,20.4181666 C10.7415895,20.3789197 10.7850675,20.3320562 10.8207024,20.2778729 L10.83779,20.2501727 L10.83779,20.1964523 C10.7962751,20.2362713 10.7549951,20.2758547 10.7143419,20.3156737 C10.6602418,20.3674044 10.6076272,20.3989673 10.5564981,20.4101966 L10.5373942,20.4134543 L10.4582025,20.4134543 C10.4752001,20.3923273 10.518125,20.3463037 10.5862722,20.276326 C10.6443148,20.1999079 10.6732186,20.1191704 10.6732186,20.033799 C10.6732186,19.9647636 10.6578659,19.9090798 10.6273171,19.86769 C10.5887787,19.8145194 10.5276813,19.788052 10.4441814,19.788052 C10.3792458,19.788052 10.3219082,19.8087076 10.2720903,19.8492335 C10.2471421,19.8697811 10.2112192,19.9024752 10.1646364,19.947158 L10.1440206,19.9670413 L10.1440206,19.831091 C10.1440206,19.8145194 10.1596866,19.7397508 10.191097,19.6063138 C10.2034507,19.5546131 10.2104525,19.5117406 10.2122009,19.4773504 L10.2126378,19.4608604 L10.2126378,19.3934744 Z M11.8994758,19.7862456 C11.8434697,19.7862456 11.7952968,19.8543385 11.7546434,19.9914667 C11.7428766,20.0313294 11.7299338,20.0897465 11.71576,20.1668837 L11.710387,20.1966878 L11.7102719,20.2196606 C11.6749296,20.2891452 11.641795,20.3388281 11.6105515,20.3680948 L11.5989233,20.3781119 C11.5735444,20.3982402 11.5431587,20.4095401 11.5075196,20.4123578 L11.4892613,20.4130615 L11.4892613,20.2605397 C11.4973292,20.2350146 11.5076688,20.1743045 11.519575,20.078566 C11.5276625,20.016167 11.542347,19.9697632 11.5635758,19.9394066 L11.5730744,19.9273793 L11.5730744,19.815776 C11.5659463,19.8167185 11.5583483,19.8174254 11.5501237,19.8174254 C11.5429956,19.8174254 11.535946,19.8171898 11.5281128,19.8164828 C11.5203582,19.8160117 11.5120553,19.815776 11.5028906,19.815776 C11.4491562,19.815776 11.4094428,19.8472699 11.3839855,19.9105721 C11.3553168,19.9878539 11.3275879,20.0649002 11.3000158,20.1415538 C11.2547584,20.2401284 11.1900674,20.3265402 11.1055028,20.4002927 L11.0728586,20.4273556 L11.0042414,20.4273556 L11.0042414,20.2881853 C11.0104295,20.2688647 11.0244506,20.1904048 11.0469313,20.0525696 C11.062989,19.9506266 11.0857047,19.8852827 11.1141385,19.8567732 C11.0948693,19.8332902 11.0809265,19.8183678 11.0728586,19.8116921 C11.0645556,19.8050164 11.055626,19.8015606 11.0452864,19.8015606 C10.9904554,19.8015606 10.9452588,19.8415367 10.909697,19.9211748 C10.8842397,19.9781938 10.8645006,20.0520985 10.8502445,20.1427319 C10.846093,20.1825509 10.8420199,20.2218988 10.8378684,20.2607754 C10.8378684,20.3269834 10.8475029,20.3799182 10.8667721,20.4199729 C10.8913678,20.4706303 10.9320211,20.4961553 10.9891237,20.4961553 C11.0590725,20.4961553 11.119465,20.4733792 11.1703795,20.4273556 C11.2071163,20.3949192 11.2486313,20.3392354 11.2954726,20.2607754 C11.3085538,20.2717708 11.3275879,20.3228993 11.3519485,20.4135328 C11.3694162,20.4784056 11.4150827,20.5110776 11.4894179,20.5110776 C11.5350842,20.5110776 11.5881137,20.4811544 11.6486629,20.4217793 C11.6781977,20.3927044 11.7005387,20.3660588 11.7156492,20.341898 C11.721609,20.3653237 11.733631,20.3903676 11.7514319,20.4169099 C11.7869938,20.4700805 11.8324253,20.496548 11.8872563,20.496548 C11.9625314,20.496548 12.0329502,20.461834 12.0992958,20.3923273 C12.1304051,20.3595476 12.1530053,20.3291588 12.1671091,20.3011607 L12.1745519,20.2847006 L12.1776125,20.3064401 C12.1877878,20.3631832 12.2140673,20.4090083 12.2562692,20.4443984 C12.291115,20.4739513 12.3274568,20.4908676 12.3654431,20.4950977 L12.3845738,20.4961553 L12.5139751,20.4961553 C12.5670047,20.4961553 12.6255172,20.4719654 12.6895128,20.4227218 C12.733704,20.3897356 12.7684848,20.3548405 12.794127,20.3180365 L12.8084962,20.295725 L12.8084962,20.246874 C12.7687829,20.261168 12.7382341,20.2859862 12.7169284,20.3218783 C12.6996958,20.3513303 12.663664,20.3697083 12.6088328,20.3768552 C12.613611,20.3596554 12.621444,20.3306746 12.6315486,20.2899132 C12.63476,20.2767972 12.6386766,20.2588118 12.6439247,20.2362713 C12.6439247,20.1773675 12.6163525,20.1180708 12.5612864,20.0577533 C12.51215,20.0038915 12.484903,19.9605265 12.4799449,19.9278871 L12.4791182,19.9174049 L12.4791182,19.8352536 C12.4791182,19.8178181 12.4781783,19.8072154 12.4759067,19.8032885 C12.4708152,19.7927642 12.4561675,19.7878949 12.4318069,19.7878949 C12.4173158,19.7878949 12.3707878,19.8587366 12.291596,20.0007343 C12.2359782,20.0999713 12.1998331,20.1699787 12.1831076,20.2108369 C12.1827943,20.2081826 12.18223,20.2064938 12.1815424,20.2054842 C12.1809157,20.20428 12.1793839,20.2025521 12.1768774,20.2002308 L12.1723777,20.1962952 L12.0259788,20.3559641 C11.9906519,20.394605 11.9621398,20.4139254 11.940834,20.4139254 C11.9050373,20.4139254 11.8873346,20.3955474 11.8873346,20.3589485 C11.8873346,20.3230564 11.9008858,20.23957 11.927518,20.1084106 C11.9545417,19.9772513 11.9683279,19.902247 11.9683279,19.8829265 C11.9683279,19.8737375 11.9687978,19.8608572 11.9697378,19.8442855 C11.9697378,19.8240226 11.9648814,19.8092574 11.9559517,19.8000684 C11.9467871,19.7908794 11.9279096,19.7862456 11.8994758,19.7862456 Z M14.4175525,18.9666175 L14.3427473,18.9666175 L13.5711961,19.8354893 L13.5711961,19.9104935 L13.607698,19.9104935 L14.1169217,19.4013283 C14.1201332,19.4167218 14.1217781,19.4328222 14.1217781,19.4503363 C14.1217781,19.5124603 14.0988274,19.6026226 14.053866,19.7209015 C14.0083562,19.8391806 13.9645697,19.9540038 13.9216448,20.0651358 C13.8762133,20.1947244 13.8530276,20.3007515 13.8530276,20.383374 C13.8530276,20.4590851 13.8906262,20.4967836 13.9661363,20.4967836 C14.0779133,20.4967836 14.150212,20.433246 14.1825623,20.3069561 C14.1857737,20.2965889 14.205513,20.1270242 14.2422498,19.7975551 C14.2699655,19.5480252 14.3215078,19.3211311 14.3965146,19.1170547 L14.4175525,19.0619633 L14.4175525,18.9666175 Z M8.50433726,18.9669317 C8.3568418,18.9669317 8.22579557,19.0042375 8.11080704,19.0787706 C8.01626263,19.1395594 7.94059579,19.2195901 7.88364979,19.3187843 C7.83477184,19.4032133 7.81041121,19.4808092 7.81041121,19.5514154 C7.81041121,19.6278334 7.84182157,19.6945912 7.90495564,19.7518457 C7.96808963,19.8087076 8.03576678,19.8372172 8.10783048,19.8372172 C8.1454289,19.8372172 8.18655218,19.824808 8.23127869,19.7990473 C8.28313314,19.7686529 8.32496144,19.7272632 8.35637179,19.6752707 L8.35637179,19.6752707 L8.35637179,19.6262626 C8.31986996,19.6336452 8.28540476,19.643541 8.2535244,19.6561858 C8.22164405,19.6688305 8.20190489,19.6752707 8.19477686,19.6752707 C8.14683886,19.6752707 8.0996058,19.655479 8.05276446,19.6156598 C7.99816837,19.5687724 7.97059618,19.5100256 7.97059618,19.439655 C7.97059618,19.3427386 8.0208841,19.2518695 8.12161658,19.167205 C8.21224447,19.0918079 8.29441268,19.0542666 8.36874793,19.0542666 L8.36874793,19.0542666 L8.5792208,19.0542666 C8.72264317,19.0542666 8.84060826,19.137753 8.93288112,19.3052756 C9.01136782,19.4467236 9.05037619,19.5993239 9.05037619,19.7624484 C9.05037619,19.9817279 9.00267319,20.1531775 8.90695382,20.2767186 C8.82572557,20.3816461 8.72859631,20.4341099 8.61572263,20.4341099 C8.59230196,20.4341099 8.56089161,20.4276697 8.52117828,20.4143182 C8.48146489,20.4009666 8.44707798,20.3829812 8.41770425,20.3604407 C8.42256071,20.3604407 8.44135992,20.3420627 8.47394522,20.3052282 C8.51452021,20.2605397 8.55008208,20.2109034 8.58063077,20.1570259 C8.6212841,20.0857129 8.64587974,20.016442 8.65410434,19.949056 L8.65410434,19.949056 L8.65410434,19.5027215 C8.65410434,19.4548129 8.66671549,19.4021136 8.69217277,19.3448591 C8.72060663,19.297893 8.74888376,19.2506914 8.77731755,19.2028614 C8.75710846,19.1957144 8.74034579,19.1920231 8.7270297,19.1920231 C8.70478392,19.1920231 8.68151989,19.2125216 8.65770757,19.2532046 C8.63389525,19.2938875 8.61572263,19.3228684 8.6035815,19.3403824 C8.54436395,19.4230049 8.49462433,19.5492948 8.45397106,19.7193307 C8.42639887,19.8520608 8.39953169,19.9814138 8.3725078,20.1079393 C8.3454839,20.2344649 8.31540516,20.297767 8.2818799,20.297767 C8.23214028,20.2740484 8.19446358,20.2572412 8.16900629,20.2471097 C8.09263442,20.2144376 8.04767298,20.1983372 8.03318195,20.1983372 L8.03318195,20.1983372 L7.89735761,20.1983372 C7.88043829,20.1983372 7.85881916,20.2084687 7.83359688,20.2287316 C7.80210824,20.2542566 7.78628554,20.285515 7.78628554,20.3221139 C7.78628554,20.3785045 7.81518932,20.4226433 7.87299691,20.4555509 C7.92187487,20.4831179 7.97921251,20.4967051 8.04555808,20.4967051 C8.09004959,20.4967051 8.13430608,20.4902648 8.17817086,20.4776202 C8.22203569,20.4647399 8.26856382,20.4499746 8.31838172,20.4338742 C8.34180239,20.4338742 8.37618931,20.4440057 8.4220907,20.4651325 C8.46799216,20.4862595 8.52423314,20.4966265 8.5914403,20.4966265 C8.73486266,20.4966265 8.86755379,20.4179309 8.99029705,20.2603042 C9.1126486,20.1024416 9.1741377,19.9326414 9.1741377,19.7499607 L9.1741377,19.7499607 L9.17390269,19.7499607 L9.17390269,19.5390064 C9.17390269,19.3779238 9.10575558,19.2412668 8.96946124,19.1289566 C8.83849336,19.020809 8.6833215,18.9669317 8.50433726,18.9669317 Z M17.9879153,18.9667746 L17.7788524,18.9667746 C17.7038122,18.9667746 17.6142809,19.003138 17.5105718,19.075629 C17.3843821,19.1648488 17.321483,19.2686767 17.321483,19.3857776 C17.321483,19.4644733 17.3409872,19.5251836 17.3802306,19.5684583 C17.419474,19.6119686 17.4821381,19.6335667 17.5686145,19.6335667 C17.5878836,19.6335667 17.6062129,19.6345092 17.6232104,19.6365511 L17.6404418,19.6386685 C17.6472077,19.639432 17.6512213,19.6397712 17.6525843,19.6397712 C17.6604173,19.6397712 17.6702869,19.6351375 17.681958,19.6268909 C17.6938642,19.6180946 17.7133685,19.6013659 17.7407057,19.577176 C17.7143084,19.5565204 17.6756917,19.5362575 17.6250121,19.5157589 C17.5616431,19.4911764 17.5302326,19.4414615 17.5302326,19.3659859 C17.5302326,19.2629434 17.5765258,19.1793785 17.6690336,19.1152124 C17.7389824,19.0663615 17.8071295,19.0417789 17.873475,19.0417789 C17.9159299,19.0417789 17.9623013,19.0610994 18.0121193,19.0999759 C18.0719634,19.146942 18.1020422,19.2040396 18.1020422,19.2716611 C18.1020422,19.401014 18.0396132,19.5367286 17.91452,19.6787263 C17.858749,19.7417928 17.7284078,19.862585 17.5239664,20.0397679 C17.3664916,20.1772103 17.2582818,20.2907756 17.1990188,20.3807192 L17.1870686,20.3996315 L17.1870686,20.4762851 C17.2238054,20.4622266 17.2609339,20.4410998 17.2983757,20.4134543 C17.3615098,20.3668024 17.4007531,20.3430836 17.4156358,20.3430836 C17.4656887,20.3430836 17.5363424,20.3689229 17.6279104,20.4199729 C17.7192432,20.4711014 17.8011764,20.4966265 17.873475,20.4966265 C17.9547034,20.4966265 18.027002,20.4786412 18.089901,20.4429847 C18.1479893,20.4102276 18.2148973,20.3419656 18.2915904,20.2383198 L18.3127501,20.2091755 L18.3127501,20.1325219 C18.2843162,20.1447739 18.2471095,20.1693565 18.201443,20.2059554 C18.1254509,20.267143 18.0753548,20.3000902 18.0513398,20.3047969 L18.0458796,20.3053853 L17.5882753,20.1526278 C17.6075444,20.0952947 17.6848562,20.0274374 17.820289,19.9492129 C18.002093,19.8428718 18.1191181,19.7676319 18.1707377,19.7225508 C18.2909743,19.6187228 18.3508969,19.5004439 18.3508969,19.3677138 C18.3508969,19.2402457 18.3035855,19.1374388 18.2088845,19.0585861 C18.135959,18.9974046 18.0620155,18.9667746 17.9879153,18.9667746 Z M16.5695144,18.9666175 C16.4159874,18.9666175 16.2844712,19.0214375 16.1745743,19.1318626 C16.0818314,19.2245381 16.03593,19.3158784 16.03593,19.4056478 C16.03593,19.476097 16.049951,19.5361004 16.0783849,19.5860508 C16.1210748,19.6350589 16.1639996,19.6835957 16.2064546,19.7316613 C16.1731643,19.7518457 16.139874,19.7723443 16.1075237,19.7926073 C16.0402381,19.8386308 15.9833705,19.886068 15.9365292,19.9348405 C15.87551,19.9992421 15.8449613,20.0588527 15.8449613,20.1140654 C15.8449613,20.2231554 15.8860062,20.31104 15.9686444,20.3770908 C16.0671054,20.4569646 16.2167159,20.496548 16.4170841,20.496548 C16.6071128,20.496548 16.7562533,20.4553938 16.8645838,20.3734782 C16.9729142,20.2913268 17.0270404,20.1793308 17.0270404,20.0375688 C17.0270404,19.9314634 16.9997032,19.851354 16.9446372,19.7973196 C16.9132268,19.7669251 16.8579258,19.7194878 16.778264,19.6550863 C16.9189448,19.5428546 16.993985,19.4812019 17.0040896,19.4698924 C17.0448996,19.423162 17.0653438,19.3762745 17.0653438,19.3293084 C17.0653438,19.2221034 17.0098078,19.132805 16.8990491,19.0614136 C16.8005881,18.9981115 16.6904561,18.9666175 16.5695144,18.9666175 Z M15.2274853,18.9666175 C15.0739584,18.9666175 14.9424422,19.0214375 14.8323102,19.1318626 C14.7398023,19.2245381 14.693666,19.3158784 14.693666,19.4056478 C14.693666,19.476097 14.707922,19.5361004 14.7361208,19.5860508 C14.7790457,19.6350589 14.8217356,19.6835957 14.8644254,19.7316613 C14.8309002,19.7518457 14.797845,19.7723443 14.7652597,19.7926073 C14.6982091,19.8386308 14.6413415,19.886068 14.5945001,19.9348405 C14.5334809,19.9992421 14.5029323,20.0588527 14.5029323,20.1140654 C14.5029323,20.2231554 14.5442122,20.31104 14.6263804,20.3770908 C14.7250763,20.4569646 14.8746868,20.496548 15.0748201,20.496548 C15.2648489,20.496548 15.4142243,20.4553938 15.5225548,20.3734782 C15.6308852,20.2913268 15.6847763,20.1793308 15.6847763,20.0375688 C15.6847763,19.9314634 15.6576742,19.851354 15.6026081,19.7973196 C15.5711977,19.7669251 15.5156617,19.7194878 15.436235,19.6550863 C15.5766808,19.5428546 15.6519559,19.4812019 15.6620605,19.4698924 C15.7026355,19.423162 15.7230797,19.3762745 15.7230797,19.3293084 C15.7230797,19.2221034 15.6677786,19.132805 15.556785,19.0614136 C15.458324,18.9981115 15.348427,18.9666175 15.2274853,18.9666175 Z M7.94623556,20.2729488 C7.97169284,20.2729488 8.0049831,20.2811953 8.04626303,20.2975314 C8.08730802,20.3138674 8.13689093,20.3346016 8.19493351,20.3603622 C8.16830128,20.3817246 8.13595097,20.3960186 8.09725596,20.4032442 C8.07610684,20.4076423 8.05041455,20.4094487 8.02104074,20.4094487 C7.9741994,20.4094487 7.93354606,20.4023803 7.89915922,20.3878506 C7.8645373,20.3735567 7.84706969,20.3560426 7.84706969,20.3342088 C7.84706969,20.3210929 7.8563126,20.3072701 7.87464187,20.293683 C7.89297108,20.2796245 7.91686176,20.2729488 7.94623556,20.2729488 Z M12.4072896,20.0002631 C12.4185691,20.02461 12.4297703,20.0485643 12.4410498,20.0720473 C12.4558207,20.105168 12.464146,20.1298644 12.4662233,20.146532 L12.466742,20.1541986 L12.466742,20.2595972 C12.466742,20.2982382 12.4474729,20.3334235 12.4087778,20.3648388 C12.3779941,20.3892643 12.3544168,20.4016734 12.3369492,20.4016734 C12.3298212,20.4016734 12.3201865,20.3959402 12.3080454,20.3846305 C12.2959043,20.3735567 12.2897161,20.3634252 12.2897161,20.3542362 C12.2897161,20.3470892 12.2977841,20.3325595 12.3136068,20.3100191 C12.3291944,20.2876355 12.3370276,20.2630529 12.3370276,20.2368211 C12.3370276,20.2165582 12.333111,20.1999865 12.3248864,20.1871062 C12.3168967,20.1744614 12.3051472,20.1633876 12.2897945,20.1541986 C12.3060871,20.1247466 12.3228498,20.0952947 12.3396125,20.0658427 C12.356375,20.0363908 12.3790908,20.0145571 12.4072896,20.0002631 Z M16.340869,19.8263788 C16.3530101,19.8263788 16.3911569,19.8383166 16.4551525,19.861564 C16.5405323,19.8935292 16.6105594,19.9294998 16.6656254,19.9704185 C16.7408222,20.0264948 16.778264,20.0870482 16.778264,20.1521566 C16.778264,20.2197782 16.7442688,20.2777397 16.6763566,20.3270618 C16.630984,20.3590859 16.5928079,20.3771596 16.5623005,20.3811776 L16.5496969,20.3820388 L16.3025656,20.3820388 C16.2601106,20.3820388 16.2151493,20.3564353 16.1683078,20.3053853 C16.1175499,20.2501727 16.0920926,20.1926825 16.0920926,20.1323648 C16.0920926,20.0827285 16.1184899,20.0210758 16.1712844,19.9474066 C16.2293269,19.8669047 16.2858029,19.8263788 16.340869,19.8263788 Z M14.9986049,19.8263788 C15.010746,19.8263788 15.0488928,19.8383166 15.1131235,19.861564 C15.1985033,19.8935292 15.2685304,19.9294998 15.3233614,19.9704185 C15.3986365,20.0264948 15.436235,20.0870482 15.436235,20.1521566 C15.436235,20.2197782 15.4022398,20.2777397 15.3343276,20.3270618 C15.2887493,20.3590859 15.2507274,20.3771596 15.2202618,20.3811776 L15.2076678,20.3820388 L14.9603015,20.3820388 C14.9178466,20.3820388 14.8728852,20.3564353 14.8262788,20.3053853 C14.7752858,20.2501727 14.7500636,20.1926825 14.7500636,20.1323648 C14.7500636,20.0827285 14.7764609,20.0210758 14.8292554,19.9474066 C14.8872979,19.8669047 14.9437739,19.8263788 14.9986049,19.8263788 Z M9.60095822,19.8672973 C9.62547557,19.8672973 9.64270817,19.8728736 9.65281276,19.8843402 C9.66291733,19.8953356 9.66816546,19.9167766 9.66816546,19.9482706 C9.66816546,20.0269662 9.62343895,20.0950591 9.53398601,20.1532561 C9.50860709,20.1698165 9.47263921,20.1875886 9.42573708,20.206523 L9.40137324,20.2160869 L9.40137324,20.0950591 C9.42886708,20.0433022 9.45667427,19.9922521 9.48510805,19.9423016 C9.51354191,19.8921155 9.55231528,19.8672973 9.60095822,19.8672973 Z M16.6075045,19.0812838 C16.6392282,19.0812838 16.6809781,19.0987979 16.7328326,19.1332763 C16.8019198,19.1802424 16.8363066,19.2391462 16.8363066,19.3106948 C16.8363066,19.3564828 16.8175074,19.4052552 16.7800656,19.4575619 C16.7311877,19.5249479 16.667192,19.5583267 16.5877654,19.5583267 C16.5551801,19.5583267 16.499879,19.5336656 16.4213923,19.4851289 C16.3291194,19.4268533 16.282748,19.3688918 16.282748,19.3106948 C16.282748,19.2506129 16.3144717,19.1972851 16.3782324,19.1507904 C16.4416014,19.1045311 16.5182082,19.0812838 16.6075045,19.0812838 Z M15.2654754,19.0812838 C15.2971991,19.0812838 15.338714,19.0987979 15.3905686,19.1332763 C15.4596557,19.1802424 15.4942776,19.2391462 15.4942776,19.3106948 C15.4942776,19.3564828 15.4754784,19.4052552 15.4378016,19.4575619 C15.3889236,19.5249479 15.325163,19.5583267 15.2457362,19.5583267 C15.212916,19.5583267 15.157615,19.5336656 15.0791282,19.4851289 C14.9868553,19.4268533 14.940484,19.3688918 14.940484,19.3106948 C14.940484,19.2506129 14.9723644,19.1972851 15.0359683,19.1507904 C15.0995723,19.1045311 15.1759442,19.0812838 15.2654754,19.0812838 Z M11.9682496,19.3382618 C11.9354293,19.3382618 11.9060555,19.352713 11.8796582,19.382636 C11.8571776,19.408004 11.8458979,19.4332934 11.8458979,19.4588185 C11.8458979,19.4825371 11.8571776,19.5043708 11.8796582,19.5248694 C11.901904,19.5451324 11.9266562,19.5552637 11.9542285,19.5552637 C11.9695812,19.5552637 11.9895553,19.546546 12.0136811,19.5295031 C12.0465013,19.5069626 12.062559,19.4789244 12.062559,19.4453099 C12.062559,19.4158579 12.0580158,19.3928461 12.0490079,19.3764316 C12.0345952,19.3509066 12.0077279,19.3382618 11.9682496,19.3382618 Z" id="Combined-Shape"></path>
                                                    </g>
                                                </g>
                                            </g>
                                        </g>
                                    </g>
                                </g>
                            </g>
                            <path d="M12.6437034,27.5979336 L12.6165806,27.5979336 C7.76158336,25.83262 4.18136196,22.682214 2.22851393,18.4454612 C-0.321037684,12.9050922 0.112928547,3.18228782 0.112928547,3.07365313 L0.112928547,2.99217712 L0.194297215,2.99217712 C7.81582916,2.99217712 12.5352119,0.0590405904 12.5894576,0.0318819188 L12.6437034,0.00472324723 L12.6979493,0.0318819188 C12.752195,0.0590405904 17.4715777,2.99217712 25.0931098,2.99217712 L25.1744784,2.99217712 L25.1744784,3.07365313 C25.1744784,3.18228782 25.6355675,12.9050922 23.058893,18.4454612 C21.106045,22.682214 17.5258236,25.83262 12.6708263,27.5979336 L12.6437034,27.5979336 Z M0.275665884,3.18228782 C0.248542994,4.16 -0.049808789,13.1495203 2.36412838,18.3911438 C4.28985352,22.5735793 7.84295203,25.6968265 12.6165806,27.4349815 C17.417332,25.6968265 20.9433077,22.5735793 22.8690328,18.3911438 C25.2829699,13.1495203 25.011741,4.16 24.9574952,3.18228782 C17.7699296,3.15512915 13.1590384,0.520738007 12.6437034,0.22199262 C12.1283686,0.520738007 7.49035445,3.15512915 0.275665884,3.18228782 Z" id="path4892" stroke="#FFFFFF" stroke-width="0.663965884"></path>
                        </g>
                    </g>
                </g>
                <g id="g4601" transform="translate(0.070849, 30.323247)" fill="#FFFFFF" fill-rule="nonzero">
                    <g id="g5348" transform="translate(0.037455, 0.043285)">
                        <path d="M1.60594116,4.59251998 C1.66022437,4.61957264 1.74164917,4.64662532 1.82307398,4.64662532 L1.82307398,4.75483601 L0.00458668541,4.75483601 L0.00458668541,4.64662532 C0.0860114898,4.64662532 0.140294692,4.61957264 0.221719496,4.59251998 C0.248861098,4.56546731 0.248861098,4.53841464 0.248861098,4.48430929 L0.248861098,0.399355999 C0.248861098,0.372303329 0.248861098,0.318197987 0.221719496,0.291145316 C0.167436294,0.264092645 0.0860114898,0.237039974 0.00458668541,0.237039974 L0.00458668541,0.128829292 L3.20729564,0.128829292 C3.85869408,0.128829292 4.3201013,0.237039974 4.61865892,0.480514012 C4.91721653,0.723988052 5.05292454,1.07567277 5.05292454,1.58967352 C5.05292454,1.99546358 4.94435813,2.32009562 4.70008372,2.53651699 C4.4558093,2.77999103 4.13011009,2.94230705 3.80441087,3.02346508 L4.83579173,4.48430929 C4.89007493,4.56546731 4.97149974,4.64662532 5.08006614,4.64662532 L5.08006614,4.75483601 L3.26157886,4.75483601 L3.26157886,4.64662532 C3.39728686,4.64662532 3.45157006,4.59251998 3.45157006,4.48430929 C3.42442846,4.43020396 3.39728686,4.40315129 3.37014526,4.34904594 C3.31586204,4.26788792 3.26157886,4.18672992 3.20729564,4.1055719 C3.12587084,3.99736122 3.07158764,3.88915054 2.96302123,3.78093985 C2.85445482,3.67272917 2.80017163,3.56451848 2.71874682,3.4563078 C2.63732202,3.34809712 2.58303882,3.26693911 2.50161401,3.1857811 C2.42018921,3.10462308 2.39304761,3.05051773 2.39304761,3.02346508 L1.52451636,3.02346508 L1.52451636,4.48430929 C1.57879956,4.51136196 1.57879956,4.56546731 1.60594116,4.59251998 M3.04444603,2.07662159 C3.31586204,2.07662159 3.47871166,2.02251625 3.58727807,1.94135824 C3.77726927,1.75198955 3.77726927,1.48146283 3.61441967,1.29209414 C3.61441967,1.29209414 3.61441967,1.29209414 3.58727807,1.26504146 C3.47871166,1.15683078 3.31586204,1.12977811 3.04444603,1.12977811 L1.57879956,1.12977811 L1.57879956,2.10367427 L3.04444603,2.07662159 Z" id="path4852"></path>
                        <path d="M8.93417354,4.64662532 C8.96131512,4.64662532 8.98845676,4.64662532 9.01559833,4.64662532 C9.04273991,4.64662532 9.06988156,4.61957264 9.06988156,4.56546731 C9.06988156,4.53841464 9.04273991,4.48430929 9.04273991,4.45725662 C9.01559833,4.40315129 8.98845676,4.34904594 8.96131512,4.2949406 C8.93417354,4.24083526 8.9070319,4.18672992 8.87989033,4.13262457 C8.85274876,4.07851924 8.82560711,4.02441389 8.79846553,3.97030854 L6.76284542,3.97030854 C6.73570382,4.02441389 6.73570382,4.07851924 6.70856222,4.13262457 C6.68142062,4.18672992 6.65427901,4.24083526 6.62713741,4.2949406 C6.59999581,4.34904594 6.57285421,4.40315129 6.54571261,4.45725662 C6.51857101,4.48430929 6.51857101,4.53841464 6.51857101,4.56546731 C6.51857101,4.61957264 6.54571261,4.61957264 6.57285421,4.64662532 C6.59999581,4.64662532 6.62713741,4.64662532 6.65427901,4.64662532 L6.65427901,4.75483601 L5.35148215,4.75483601 L5.35148215,4.64662532 C5.37862375,4.64662532 5.43290695,4.64662532 5.46004856,4.61957264 C5.48719016,4.61957264 5.51433176,4.59251998 5.54147336,4.56546731 C5.70432296,4.15967724 5.89431418,3.75388718 6.08430539,3.34809712 C6.2742966,2.94230705 6.43714621,2.59062233 6.57285421,2.26599029 L6.92569504,1.45441016 C6.97997824,1.34619948 7.03426144,1.21093612 7.06140304,1.10272544 C7.06140304,1.0486201 7.03426144,1.02156743 6.95283664,1.02156743 L6.95283664,0.913356745 L8.79846553,0.913356745 L8.79846553,1.02156743 C8.71704074,1.02156743 8.6898991,1.0486201 8.6898991,1.10272544 C8.71704074,1.18388346 8.74418232,1.26504146 8.7713239,1.34619948 C8.82560711,1.48146283 8.9070319,1.64377886 9.01559833,1.86020022 C9.12416477,2.07662159 9.23273113,2.29304296 9.34129757,2.53651699 L9.69413838,3.29399178 C9.80270474,3.53746582 9.93841276,3.78093985 10.0198376,3.99736122 C10.128404,4.21378258 10.2098288,4.40315129 10.264112,4.56546731 C10.264112,4.59251998 10.2912536,4.61957264 10.3455368,4.61957264 C10.3726784,4.64662532 10.4269616,4.64662532 10.4541032,4.64662532 L10.4541032,4.75483601 L8.98845676,4.75483601 L8.98845676,4.64662532 L8.93417354,4.64662532 Z M7.73994304,1.80609488 L7.00711984,3.34809712 L8.4727663,3.34809712 L7.73994304,1.80609488 Z" id="path4854"></path>
                        <path d="M14.009653,2.37420097 L13.9010866,2.32009562 C13.9010866,2.29304296 13.9010866,2.26599029 13.9282282,2.23893761 C13.9282282,2.21188495 13.9282282,2.18483227 13.9282282,2.1577796 C13.9282282,2.13072692 13.9010866,2.07662159 13.8196618,2.02251625 C13.738237,1.9684109 13.6296706,1.91430557 13.5482458,1.88725289 C13.4125378,1.83314755 13.3039714,1.80609488 13.1682634,1.7790422 C13.0325554,1.75198955 12.8697058,1.72493687 12.7339978,1.72493687 C12.5711482,1.72493687 12.4082984,1.75198955 12.245449,1.7790422 C12.0825994,1.80609488 11.9197497,1.88725289 11.7840417,1.9684109 C11.6483337,2.04956892 11.5397673,2.1577796 11.4583424,2.29304296 C11.2683513,2.59062233 11.2683513,2.94230705 11.4583424,3.23988643 C11.5397673,3.3751498 11.6483337,3.48336048 11.7840417,3.56451848 C11.9197497,3.6456765 12.0825994,3.72683452 12.245449,3.75388718 C12.4082984,3.78093985 12.5711482,3.80799252 12.7339978,3.80799252 C12.8968474,3.80799252 13.059697,3.78093985 13.2225466,3.75388718 C13.3582546,3.72683452 13.4939626,3.67272917 13.6296706,3.59157115 C13.738237,3.53746582 13.8196618,3.48336048 13.9010866,3.40220245 C13.9553698,3.34809712 14.009653,3.29399178 14.009653,3.26693911 L14.009653,3.1857811 C14.009653,3.15872842 14.009653,3.13167575 14.009653,3.10462308 L14.1182194,3.05051773 L14.959609,4.24083526 L14.8510427,4.2949406 C14.7967595,4.24083526 14.7424762,4.18672992 14.7153347,4.18672992 C14.6610514,4.21378258 14.5796267,4.24083526 14.5253434,4.26788792 C14.416777,4.32199326 14.281069,4.37609861 14.1182194,4.43020396 C13.9282282,4.51136196 13.7110954,4.56546731 13.5211042,4.59251998 C13.2768298,4.64662532 13.0054138,4.67367798 12.7611392,4.67367798 C12.4354402,4.67367798 12.1368824,4.64662532 11.8111833,4.56546731 C11.5126256,4.51136196 11.2412096,4.40315129 10.9969353,4.24083526 C10.7526608,4.07851924 10.5626696,3.88915054 10.4269616,3.6456765 C10.264112,3.3751498 10.2098288,3.05051773 10.2098288,2.72588569 C10.2098288,2.40125364 10.264112,2.10367427 10.4269616,1.80609488 C10.5626696,1.56262085 10.7798025,1.34619948 10.9969353,1.18388346 C11.2412096,1.02156743 11.5397673,0.913356745 11.8111833,0.832198735 C12.1097408,0.751040718 12.4354402,0.723988052 12.7611392,0.723988052 C12.9511306,0.723988052 13.1411218,0.751040718 13.331113,0.778093391 C13.5211042,0.805146062 13.6839538,0.832198735 13.8196618,0.886304074 C13.9825114,0.913356745 14.0910778,0.967462084 14.2267858,0.994514756 C14.3082106,1.02156743 14.3896354,1.0486201 14.4710602,1.0486201 C14.4982019,1.0486201 14.5253434,1.0486201 14.552485,1.02156743 C14.5796267,0.994514756 14.5796267,0.994514756 14.6067682,0.967462084 L14.7153347,0.994514756 L14.009653,2.37420097 L14.009653,2.37420097 Z" id="path4856"></path>
                        <path d="M16.8052379,0.994514756 C16.7238131,0.994514756 16.6695299,1.02156743 16.5881051,1.02156743 C16.5338219,1.0486201 16.5066803,1.10272544 16.5066803,1.15683078 L16.5066803,4.48430929 C16.5066803,4.53841464 16.5338219,4.59251998 16.5881051,4.61957264 C16.6423883,4.64662532 16.7238131,4.64662532 16.8052379,4.64662532 L16.8052379,4.75483601 L15.0681755,4.75483601 L15.0681755,4.64662532 C15.1496003,4.64662532 15.2038835,4.61957264 15.2853083,4.61957264 C15.3395915,4.59251998 15.3667331,4.53841464 15.3667331,4.48430929 L15.3667331,1.15683078 C15.3667331,1.10272544 15.3395915,1.0486201 15.2853083,1.02156743 C15.2310251,0.994514756 15.1496003,0.994514756 15.0681755,0.994514756 L15.0681755,0.886304074 L16.8052379,0.886304074 L16.8052379,0.994514756 Z" id="path4858"></path>
                        <path d="M21.8535757,4.59251998 C21.9078589,4.61957264 21.9621422,4.61957264 22.0164254,4.61957264 L22.0164254,4.72778333 L20.3879293,4.72778333 L20.3879293,4.61957264 C20.4422125,4.61957264 20.4964957,4.61957264 20.5507789,4.59251998 C20.6050621,4.59251998 20.6322037,4.53841464 20.6322037,4.48430929 C20.6322037,4.43020396 20.5779205,4.32199326 20.4422125,4.18672992 C20.3065045,4.05146656 20.1436549,3.86209786 19.9536637,3.6456765 L19.2751236,2.94230705 C19.0308492,2.67178036 18.7865748,2.40125364 18.5423004,2.10367427 L18.5151588,2.13072692 L18.5151588,4.43020396 C18.5151588,4.48430929 18.5423004,4.53841464 18.569442,4.56546731 C18.6237252,4.59251998 18.6780084,4.59251998 18.7322916,4.59251998 L18.7322916,4.70073066 L17.2395035,4.70073066 L17.2395035,4.59251998 C17.2937867,4.59251998 17.34807,4.56546731 17.4023532,4.56546731 C17.4566364,4.53841464 17.483778,4.48430929 17.4566364,4.43020396 L17.4566364,1.10272544 C17.4566364,1.0486201 17.4294948,0.994514756 17.3752115,0.967462084 C17.3209284,0.940409418 17.2666452,0.940409418 17.212362,0.940409418 L17.212362,0.832198735 L19.3022652,0.832198735 L19.3022652,0.940409418 C19.2479821,0.940409418 19.2208404,0.967462084 19.1936988,0.967462084 C19.1394156,0.994514756 19.1122741,1.0486201 19.1394156,1.10272544 C19.1936988,1.15683078 19.2208404,1.2379888 19.2751236,1.29209414 C19.3836901,1.40030482 19.4922564,1.53556818 19.6551061,1.6978842 C19.8179557,1.86020022 19.9808053,2.04956892 20.1707965,2.23893761 C20.3607877,2.42830631 20.5507789,2.64472768 20.7407701,2.83409638 L20.7407701,1.10272544 C20.7407701,1.0486201 20.7136285,0.994514756 20.6593453,0.967462084 C20.6050621,0.940409418 20.5507789,0.940409418 20.4964957,0.940409418 L20.4964957,0.832198735 L22.0435669,0.832198735 L22.0435669,0.940409418 C21.9892837,0.940409418 21.9350006,0.967462084 21.8807174,0.967462084 C21.8264341,0.994514756 21.7992926,1.0486201 21.7992926,1.10272544 L21.7992926,4.43020396 C21.7721509,4.53841464 21.7992926,4.59251998 21.8535757,4.59251998" id="path4860"></path>
                        <path d="M26.6304977,3.8350452 C26.6304977,3.88915054 26.6304977,3.94325588 26.6847809,3.99736122 C26.7119225,4.05146656 26.7662057,4.07851924 26.8204889,4.07851924 L26.9019137,4.07851924 L26.9019137,4.18672992 C26.7662057,4.26788792 26.603356,4.32199326 26.4133649,4.40315129 C26.2233736,4.48430929 26.0333824,4.53841464 25.8162496,4.59251998 C25.5991168,4.64662532 25.381984,4.70073066 25.1648512,4.72778333 C24.9477184,4.75483601 24.7305856,4.78188866 24.4863112,4.78188866 C24.1606118,4.78188866 23.8620544,4.75483601 23.536355,4.67367798 C23.264939,4.61957264 23.0206646,4.48430929 22.8035318,4.32199326 C22.586399,4.15967724 22.4235494,3.94325588 22.314983,3.69978184 C22.2064166,3.42925513 22.1249917,3.10462308 22.1521334,2.80704371 C22.1521334,2.50946432 22.2064166,2.18483227 22.3421246,1.91430557 C22.4778326,1.67083152 22.6406822,1.45441016 22.857815,1.3191468 C23.0749478,1.15683078 23.3192222,1.02156743 23.5906382,0.967462084 C23.8620544,0.886304074 24.1606118,0.859251401 24.4591694,0.859251401 C24.6763022,0.859251401 24.8662936,0.859251401 25.0562848,0.886304074 C25.2191344,0.913356745 25.381984,0.940409418 25.5448336,0.967462084 C25.6805416,0.994514756 25.789108,1.02156743 25.8976744,1.0486201 C25.9519576,1.07567277 26.0062408,1.07567277 26.0876656,1.07567277 C26.1148072,1.07567277 26.1419488,1.07567277 26.1690904,1.0486201 C26.1962321,1.02156743 26.1962321,0.994514756 26.2233736,0.994514756 L26.3319401,1.02156743 L25.8705328,2.18483227 L25.7619664,2.13072692 L25.7619664,2.07662159 C25.7619664,2.02251625 25.7076832,1.9684109 25.6534,1.91430557 C25.5719752,1.86020022 25.4634088,1.80609488 25.3548424,1.7790422 C25.110568,1.6978842 24.8662936,1.67083152 24.6220192,1.67083152 C24.4591694,1.67083152 24.2691784,1.6978842 24.1063286,1.72493687 C23.943479,1.75198955 23.807771,1.83314755 23.672063,1.91430557 C23.5634966,2.02251625 23.4549302,2.13072692 23.3735054,2.26599029 C23.2920806,2.42830631 23.264939,2.61767501 23.264939,2.77999103 C23.264939,2.96935973 23.2920806,3.15872842 23.3735054,3.32104445 C23.4277886,3.4563078 23.536355,3.59157115 23.672063,3.69978184 C23.807771,3.80799252 23.943479,3.86209786 24.1063286,3.9162032 C24.2691784,3.97030854 24.4591694,3.99736122 24.6491608,3.99736122 C24.7848688,3.99736122 24.9477184,3.99736122 25.0834264,3.97030854 C25.2191344,3.94325588 25.3548424,3.9162032 25.517692,3.86209786 L25.517692,3.29399178 L24.7848688,3.29399178 C24.7305856,3.29399178 24.6763022,3.32104445 24.6491608,3.3751498 C24.6220192,3.42925513 24.6220192,3.4563078 24.6220192,3.51041314 L24.5134528,3.51041314 L24.5134528,2.42830631 L24.6220192,2.42830631 C24.6220192,2.48241164 24.6220192,2.50946432 24.6491608,2.56356967 C24.6763022,2.61767501 24.7305856,2.64472768 24.7848688,2.64472768 L26.603356,2.64472768 L26.6304977,3.8350452 L26.6304977,3.8350452 Z" id="path4862"></path>
                        <path d="M29.6432154,3.32104445 L29.7246402,3.3751498 L29.7246402,3.4563078 C29.7246402,3.75388718 30.2674722,3.88915054 30.8374458,3.88915054 C31.5702691,3.88915054 32.2488091,3.51041314 32.3302339,2.67178036 C31.7331187,2.96935973 31.2717114,3.13167575 30.7017378,3.13167575 C29.806065,3.13167575 28.9918169,2.53651699 28.9918169,1.61672618 C28.9918169,0.507566683 30.1317642,0.10177662 31.0817202,0.10177662 C32.5473667,0.10177662 33.4973228,0.832198735 33.4973228,2.3471483 C33.4973228,3.86209786 32.2488091,4.75483601 30.8374458,4.75483601 C30.4574634,4.75483601 30.077481,4.70073066 29.7246402,4.61957264 C29.4532242,4.53841464 29.2903745,4.48430929 29.2360914,4.48430929 C29.1546665,4.48430929 29.0732417,4.51136196 29.0461002,4.59251998 L28.9375337,4.53841464 L29.6432154,3.32104445 L29.6432154,3.32104445 Z M30.1589058,1.58967352 C30.1589058,2.10367427 30.7831626,2.23893761 31.1088618,2.23893761 C31.4345611,2.23893761 32.0588179,2.10367427 32.0588179,1.58967352 C32.0588179,1.07567277 31.4345611,0.940409418 31.1088618,0.940409418 C30.7831626,0.940409418 30.1589058,1.07567277 30.1589058,1.58967352" id="path4864"></path>
                        <path d="M37.8671206,3.6456765 C38.0028286,3.6456765 38.0571118,3.61862383 38.0842534,3.4563078 L38.1928198,3.4563078 L38.1928198,4.89009936 L38.0842534,4.89009936 C38.0571118,4.72778333 38.0028286,4.70073066 37.8128374,4.70073066 L33.9858716,4.70073066 C33.8773051,4.70073066 33.8230219,4.75483601 33.8230219,4.89009936 L33.7144556,4.89009936 C33.6330308,3.26693911 35.3972348,2.64472768 36.5371822,1.94135824 C36.7000318,1.83314755 36.7814566,1.75198955 36.7814566,1.53556818 C36.7814566,1.3191468 36.5914654,1.07567277 36.1571996,1.07567277 C35.3429516,1.07567277 34.6915532,1.67083152 34.6915532,1.88725289 C34.6915532,1.94135824 34.7186948,1.9684109 34.7186948,2.02251625 L34.6101284,2.10367427 L33.6873139,0.805146062 L33.7958804,0.723988052 C33.8230219,0.778093391 33.9044467,0.805146062 33.9587299,0.805146062 C34.1487212,0.805146062 34.8272612,0.0476712787 36.1300582,0.0476712787 C37.1342974,0.0476712787 38.0299702,0.669882708 38.0299702,1.53556818 C38.0299702,2.80704371 36.2657662,2.9964124 35.5329428,3.6456765 L37.8671206,3.6456765 L37.8671206,3.6456765 Z" id="path4866"></path>
                    </g>
                    <path d="M31.4783057,6.54487483 C31.397804,6.55003451 31.3264489,6.56454923 31.2628528,6.58452053 C31.1774766,6.61115032 31.1058898,6.64467968 31.0507146,6.68693904 C30.9949589,6.72977611 30.9514735,6.78003718 30.924757,6.83561016 C30.8980405,6.89118229 30.884981,6.94679418 30.884981,7.00410368 C30.884981,7.08920012 30.9021776,7.15683996 30.9347012,7.20893905 C30.9672248,7.26161839 31.0083876,7.30380328 31.0606588,7.33448382 C31.1135105,7.36458587 31.1755926,7.38782467 31.2429652,7.40055973 C31.3109173,7.41387419 31.378199,7.42178033 31.4484738,7.42699076 C31.5187487,7.43278477 31.589346,7.43730924 31.6572982,7.44020539 C31.7246699,7.44252299 31.786752,7.44746278 31.8396044,7.45672476 C31.8924562,7.46598596 31.9330375,7.48213826 31.9655611,7.5029782 C31.9980857,7.52323795 32.0152814,7.55322488 32.0152814,7.59548429 C32.0152814,7.63774363 31.9970936,7.6724318 31.9622465,7.69790191 C31.9268189,7.72395234 31.8844952,7.74620231 31.8362898,7.76067479 C31.7880844,7.7757249 31.7409728,7.78577783 31.6904447,7.79040878 C31.6410775,7.79503564 31.5991646,7.79701486 31.5678018,7.79701486 C31.5254036,7.79701486 31.4759702,7.79091635 31.4219568,7.78049549 C31.3685246,7.77065318 31.3155347,7.75763736 31.2661674,7.74084983 C31.2173808,7.7240623 31.1746472,7.70610414 31.1368961,7.68468558 C31.0985635,7.66326617 31.0734358,7.64118624 31.0606588,7.61860889 C31.053106,7.60587383 31.0507196,7.5918691 31.0507196,7.57566018 L31.0208879,7.55914075 L30.8684132,7.89612866 L30.9081893,7.91925496 C30.9192248,7.9047834 30.9318737,7.89612866 30.9446506,7.89612866 C30.9649777,7.89612866 30.9902761,7.90205806 31.0175731,7.91595107 C31.0454513,7.92984414 31.083228,7.94483765 31.1302717,7.9622045 C31.1778966,7.98015006 31.234512,7.99630066 31.3059486,8.00845801 C31.3773852,8.02061452 31.4654184,8.02497653 31.5711217,8.02497653 C31.646624,8.02497653 31.731441,8.02061197 31.8197212,8.00845801 C31.9080022,7.99630066 31.9889231,7.97050741 32.0650068,7.9357744 C32.1410904,7.90046198 32.2028332,7.85449357 32.2539426,7.79371097 C32.3044708,7.73292845 32.3301799,7.65523576 32.3301799,7.55914075 C32.3301799,7.47635941 32.3162981,7.40582676 32.2837744,7.35430544 C32.2518304,7.3022055 32.2073546,7.26216648 32.1545022,7.23206449 C32.1016505,7.20138396 32.0434626,7.17988081 31.9755104,7.16598865 C31.9081388,7.15209558 31.8369619,7.14146416 31.766687,7.13625373 C31.6958309,7.13045965 31.6291296,7.12650616 31.5611776,7.12303903 C31.4938058,7.11898747 31.4317237,7.110912 31.378871,7.09991189 C31.3260194,7.08833478 31.2854381,7.07293194 31.2529145,7.05035544 C31.2203899,7.02835751 31.2031942,6.99581524 31.2031942,6.9512408 C31.2031942,6.91998169 31.2131122,6.8927894 31.2363408,6.87195028 C31.259572,6.8505309 31.2904085,6.83182415 31.325837,6.81908908 C31.3606834,6.806354 31.3982903,6.79902643 31.4418503,6.7926589 C31.4854094,6.78629813 31.5304666,6.78275234 31.5711217,6.78275234 C31.6245539,6.78275234 31.6767937,6.78612727 31.7302258,6.79596785 C31.7842392,6.80639207 31.8329215,6.8221299 31.8793856,6.83891742 C31.9252675,6.85570494 31.9677617,6.87366227 32.0020284,6.89508164 C32.0362951,6.91650102 32.0598505,6.93585654 32.074951,6.95785447 C32.0859865,6.97464199 32.0946688,6.99787994 32.0981532,7.02393034 L32.1246703,7.03383605 L32.316921,6.68693735 L32.2837744,6.66711408 C32.2727338,6.67812955 32.2535556,6.6836487 32.2274196,6.6836487 C32.203607,6.6836487 32.1745136,6.67557086 32.1379242,6.66052241 C32.1019152,6.64604996 32.0581897,6.63105648 32.0053372,6.61426896 C31.9524856,6.59748144 31.8884192,6.57918408 31.8164014,6.56471249 C31.7438021,6.54966149 31.6599068,6.54488922 31.5611724,6.54488922 C31.5325686,6.54488922 31.5051401,6.54316369 31.4783057,6.54488922 L31.4783057,6.54487483 Z M0.0420420907,6.56139 L0.0420420907,6.61095155 C0.0972172978,6.61095155 0.124908858,6.62751154 0.124908858,6.66050802 L0.124908858,7.91925666 C0.124908858,7.95283171 0.0972172978,7.96881398 0.0420420907,7.96881398 L0.0420420907,8.01837131 L1.36459223,8.01837131 C1.3924705,8.01837131 1.41346213,8.01820212 1.43088616,8.0216701 C1.44831017,8.02513807 1.45740322,8.04344048 1.45740322,8.07122742 L1.50712345,8.07122742 L1.50712345,7.69128996 L1.45740322,7.69128996 C1.45740322,7.71328792 1.44831271,7.73083664 1.43088616,7.74415117 C1.41346213,7.75688622 1.3924705,7.76397358 1.36459223,7.76397358 L0.439801385,7.76397358 L0.439801385,6.6605038 C0.439801385,6.62750731 0.467083058,6.61094647 0.519353413,6.61094647 L0.519353413,6.56139 L0.0420420907,6.56139 L0.0420420907,6.56139 Z M17.3445828,6.56139422 L17.3445828,6.61095155 C17.3800114,6.61095155 17.3976178,6.62751154 17.3976178,6.66050802 L17.3976178,7.91925666 C17.3976178,7.95225402 17.3800114,7.96881398 17.3445828,7.96881398 L17.3445828,8.01837131 L17.7655453,8.01837131 L17.7655453,7.96881398 C17.7527684,7.96881398 17.742853,7.96428023 17.7323988,7.9555985 C17.7225233,7.94748682 17.715825,7.93546649 17.715825,7.91925666 L17.715825,7.39725584 L18.610784,7.39725584 L18.610784,7.91925666 C18.610784,7.95225402 18.5917758,7.96881398 18.5511205,7.96881398 L18.5511205,8.01837131 L18.9787116,8.01837131 L18.9787116,7.96881398 C18.9653534,7.96881398 18.9521232,7.96428023 18.9422503,7.9555985 C18.9317918,7.94748682 18.9289922,7.93546649 18.9289922,7.91925666 L18.9289922,6.66050802 C18.9289922,6.6437205 18.9317927,6.6295458 18.9422503,6.62086234 C18.9521258,6.61275066 18.9653534,6.61095662 18.9787116,6.61095662 L18.9787116,6.56139422 L18.5511205,6.56139422 L18.5511205,6.61095662 C18.5917758,6.61095662 18.610784,6.62751661 18.610784,6.66051395 L18.610784,7.13295743 L17.715825,7.13295743 L17.715825,6.66051395 C17.715825,6.64372558 17.7225293,6.62955088 17.7323988,6.62086825 C17.7428573,6.61275659 17.7527684,6.6109617 17.7655453,6.6109617 L17.7655453,6.56139422 L17.3445828,6.56139422 L17.3445828,6.56139422 Z M22.7342246,6.73318657 L22.7342246,7.05035713 L22.783945,7.05035713 C22.783945,7.03356961 22.791048,7.02153997 22.8038326,7.01401532 C22.8166103,7.00707092 22.8285089,7.00410876 22.8436085,7.00410876 L23.2049074,7.00410876 L23.2049074,7.92586954 C23.2049074,7.94034194 23.2009444,7.9525399 23.1916484,7.95890827 C23.1823568,7.96526906 23.1744239,7.96881398 23.1651313,7.96881398 L23.1651313,8.01837131 L23.5231146,8.01837131 L23.5231146,7.96881398 C23.4894293,7.96881398 23.4733944,7.95365136 23.4733944,7.92586444 L23.4733944,7.00410368 L23.8346933,7.00410368 C23.8492133,7.00410368 23.8616924,7.00706416 23.8744693,7.0140094 C23.8878276,7.02153744 23.8943569,7.03356368 23.8943569,7.05035206 L23.9440771,7.05035206 L23.9440771,6.73318657 L23.8943569,6.73318657 C23.8943569,6.75923611 23.8878224,6.77678489 23.8744693,6.78604776 C23.8616924,6.79530894 23.8492133,6.79926242 23.8346933,6.79926242 L22.8436085,6.79926242 C22.8285089,6.79926242 22.8166103,6.79531232 22.8038326,6.78604776 C22.7910556,6.77678658 22.783945,6.75923611 22.783945,6.73318657 L22.7342246,6.73318657 L22.7342246,6.73318657 Z M2.86282013,6.7497271 C2.86282013,6.78272358 2.83413737,6.79928357 2.77663946,6.79928357 L1.78886944,6.79928357 L1.78886944,6.84884089 C1.79757805,6.84884089 1.80609402,6.852385 1.8153865,6.8587466 C1.82467812,6.86511583 1.82864545,6.87343051 1.82864545,6.8884815 L1.82864545,7.92587542 C1.82864545,7.94034704 1.82468236,7.95254585 1.8153865,7.95891337 C1.80609487,7.96527409 1.7975806,7.96881908 1.78886944,7.96881908 L1.78886944,8.01837641 L2.80978601,8.01837641 C2.8318554,8.01837641 2.85103524,8.01933216 2.86613486,8.0216752 C2.88065488,8.02340915 2.88602329,8.03189809 2.88602329,8.04810538 L2.93574268,8.04810538 L2.93574268,7.7573709 L2.88602329,7.7573709 C2.88602329,7.77415843 2.88065996,7.78717596 2.86613486,7.79701656 C2.85103524,7.80744082 2.8318554,7.81353515 2.80978601,7.81353515 L2.09713333,7.81353515 L2.09713333,7.48645883 L2.50483685,7.48645883 C2.54142625,7.48645883 2.56737644,7.48843813 2.5877036,7.4930649 C2.60803078,7.49769168 2.61671394,7.50972469 2.61090593,7.52940667 L2.66725478,7.52940667 L2.66725478,7.23536838 L2.6175354,7.23536838 C2.6175354,7.25562892 2.60943102,7.27038302 2.59433224,7.27501404 C2.57981308,7.27964082 2.55608716,7.28162012 2.52472442,7.28162012 L2.09713333,7.28162012 L2.09713333,7.0041003 L2.77663946,7.0041003 C2.83413737,7.0041003 2.86282013,7.0222285 2.86282013,7.0569615 L2.91254035,7.0569615 L2.91254035,6.74970764 L2.86282013,6.74970764 L2.86282013,6.7497271 Z M14.4442528,6.7497271 C14.4442528,6.78272358 14.4155692,6.79928357 14.3580713,6.79928357 L13.3703021,6.79928357 L13.3703021,6.84884089 C13.3795937,6.84884089 13.3908414,6.852385 13.4001338,6.8587466 C13.4088425,6.86511583 13.4133929,6.87343051 13.4133929,6.8884815 L13.4133929,7.92587542 C13.4133929,7.94034704 13.4088442,7.95254585 13.4001338,7.95891337 C13.3908422,7.96527409 13.3795945,7.96881908 13.3703021,7.96881908 L13.3703021,8.01837641 L14.3912178,8.01837641 C14.4132881,8.01837641 14.4324679,8.01933216 14.4475675,8.0216752 C14.4620875,8.02340915 14.4707699,8.03189809 14.4707699,8.04810538 L14.5204901,8.04810538 L14.5204901,7.7573709 L14.4707699,7.7573709 C14.4707699,7.77415843 14.4620833,7.78717596 14.4475675,7.79701656 C14.4324679,7.80744082 14.4132881,7.81353515 14.3912178,7.81353515 L13.678566,7.81353515 L13.678566,7.48645883 L14.0862695,7.48645883 C14.1228589,7.48645883 14.152123,7.48843813 14.1724501,7.4930649 C14.1927773,7.49769168 14.2014613,7.50972469 14.1956533,7.52940667 L14.2486874,7.52940667 L14.2486874,7.23536838 L14.1989681,7.23536838 C14.1989681,7.25562892 14.1935963,7.27038302 14.1790796,7.27501404 C14.16398,7.27964082 14.1408346,7.28162012 14.1094718,7.28162012 L13.678566,7.28162012 L13.678566,7.0041003 L14.3580713,7.0041003 C14.4155692,7.0041003 14.4442528,7.0222285 14.4442528,7.0569615 L14.493973,7.0569615 L14.493973,6.74970764 L14.4442528,6.74970764 L14.4442528,6.7497271 Z M29.5027673,6.7497271 C29.5027673,6.78272358 29.4773984,6.79928357 29.4199004,6.79928357 L28.4321305,6.79928357 L28.4321305,6.84884089 C28.4414221,6.84884089 28.4493551,6.852385 28.4586475,6.8587466 C28.4673562,6.86511583 28.4719066,6.87343051 28.4719066,6.8884815 L28.4719066,7.92587542 C28.4719066,7.94034704 28.4673578,7.95254585 28.4586475,7.95891337 C28.4493559,7.96527409 28.441423,7.96881908 28.4321305,7.96881908 L28.4321305,8.01837641 L29.4530471,8.01837641 C29.4756977,8.01837641 29.4909816,8.01933216 29.5060812,8.0216752 C29.5211816,8.02340915 29.5292844,8.03189809 29.5292844,8.04810538 L29.5790038,8.04810538 L29.5790038,7.7573709 L29.5292844,7.7573709 C29.5292844,7.77415843 29.52118,7.78717596 29.5060812,7.79701656 C29.4909816,7.80744082 29.4756977,7.81353515 29.4530471,7.81353515 L28.7403944,7.81353515 L28.7403944,7.48645883 L29.1447832,7.48645883 C29.1813726,7.48645883 29.2106375,7.48843813 29.2309646,7.4930649 C29.2512918,7.49769168 29.2599758,7.50972469 29.254167,7.52940667 L29.3105167,7.52940667 L29.3105167,7.23536838 L29.2607964,7.23536838 C29.2607964,7.25562892 29.252109,7.27038302 29.2375942,7.27501404 C29.2224937,7.27964082 29.1993481,7.28162012 29.1679864,7.28162012 L28.7403944,7.28162012 L28.7403944,7.0041003 L29.4199004,7.0041003 C29.4773984,7.0041003 29.5027673,7.0222285 29.5027673,7.0569615 L29.5558014,7.0569615 L29.5558014,6.74970764 L29.5027673,6.74970764 L29.5027673,6.7497271 Z M33.8284019,6.7497271 C33.8284019,6.78272358 33.7997191,6.79928357 33.7422212,6.79928357 L32.7577658,6.79928357 L32.7577658,6.84884089 C32.7670576,6.84884089 32.7749904,6.852385 32.784283,6.8587466 C32.7929916,6.86511583 32.7975419,6.87343051 32.7975419,6.8884815 L32.7975419,7.92587542 C32.7975419,7.94034704 32.7929933,7.95254585 32.784283,7.95891337 C32.7749914,7.96527409 32.7670584,7.96881908 32.7577658,7.96881908 L32.7577658,8.01837641 L33.7753676,8.01837641 C33.7980185,8.01837641 33.8166169,8.01933216 33.8317166,8.0216752 C33.8462366,8.02340915 33.8549197,8.03189809 33.8549197,8.04810538 L33.9046391,8.04810538 L33.9046391,7.7573709 L33.8549197,7.7573709 C33.8549197,7.77415843 33.8462323,7.78717596 33.8317166,7.79701656 C33.8166169,7.80744082 33.7980185,7.81353515 33.7753676,7.81353515 L33.0660298,7.81353515 L33.0660298,7.48645883 L33.4704186,7.48645883 C33.5075893,7.48645883 33.5362729,7.48843813 33.5566001,7.4930649 C33.5769264,7.49769168 33.5856104,7.50972469 33.5798023,7.52940667 L33.6361513,7.52940667 L33.6361513,7.23536838 L33.5864318,7.23536838 C33.5864318,7.25562892 33.5777444,7.27038302 33.5632286,7.27501404 C33.548129,7.27964082 33.5249836,7.28162012 33.4936208,7.28162012 L33.0660298,7.28162012 L33.0660298,7.0041003 L33.7422212,7.0041003 C33.7997191,7.0041003 33.8284019,7.0222285 33.8284019,7.0569615 L33.8781221,7.0569615 L33.8781221,6.74970764 L33.8284019,6.74970764 L33.8284019,6.7497271 Z M38.1540372,6.7497271 C38.1540372,6.78272358 38.124774,6.79928357 38.0678557,6.79928357 L37.0834013,6.79928357 L37.0834013,6.84884089 C37.0921091,6.84884089 37.100626,6.852385 37.1099184,6.8587466 C37.1186269,6.86511583 37.1231773,6.87343051 37.1231773,6.8884815 L37.1231773,7.92587542 C37.1231773,7.94034704 37.1186286,7.95254585 37.1099184,7.95891337 C37.1006268,7.96527409 37.0921124,7.96881908 37.0834013,7.96881908 L37.0834013,8.01837641 L38.1010032,8.01837641 C38.1236538,8.01837641 38.1422524,8.01933216 38.157352,8.0216752 C38.171872,8.02340915 38.1805543,8.03189809 38.1805543,8.04810538 L38.2302745,8.04810538 L38.2302745,7.7573709 L38.1805543,7.7573709 C38.1805543,7.77415843 38.1718678,7.78717596 38.157352,7.79701656 C38.1422524,7.80744082 38.1236538,7.81353515 38.1010032,7.81353515 L37.3916652,7.81353515 L37.3916652,7.48645883 L37.7960539,7.48645883 C37.8326434,7.48645883 37.8619074,7.48843813 37.8822346,7.4930649 C37.9025618,7.49769168 37.9112458,7.50972469 37.9054378,7.52940667 L37.9584719,7.52940667 L37.9584719,7.23536838 L37.9087525,7.23536838 C37.9087525,7.25562892 37.9039662,7.27038302 37.8888641,7.27501404 C37.8743441,7.27964082 37.850619,7.28162012 37.8192563,7.28162012 L37.3916652,7.28162012 L37.3916652,7.0041003 L38.0678557,7.0041003 C38.124774,7.0041003 38.1540372,7.0222285 38.1540372,7.0569615 L38.2037574,7.0569615 L38.2037574,6.74970764 L38.1540372,6.74970764 L38.1540372,6.7497271 Z M4.75880731,6.78275742 C4.66762399,6.78275742 4.57959078,6.79363585 4.49363416,6.81910684 C4.40709708,6.84515639 4.33171351,6.88536456 4.26492314,6.9380439 C4.19813192,6.99014299 4.14315953,7.05539669 4.10250434,7.13296763 C4.06184916,7.21053938 4.04284074,7.30025836 4.04284074,7.40387963 C4.04284074,7.50750096 4.06184916,7.59936673 4.10250434,7.67809559 C4.14315953,7.75624505 4.19713987,7.82364469 4.2616084,7.87632319 C4.32665569,7.92900253 4.40005686,7.96491802 4.4836908,7.98865247 C4.56732388,8.01238693 4.65412488,8.02499431 4.73891972,8.02499431 C4.8225528,8.02499431 4.89636472,8.02022371 4.96431686,8.00517184 C5.03168854,7.99012088 5.09219906,7.96984674 5.14330849,7.94900681 C5.19441793,7.9275874 5.2355806,7.90905154 5.26926601,7.89284256 C5.30237096,7.87605503 5.32766856,7.86641238 5.34218857,7.86641238 C5.3514802,7.86641238 5.3665238,7.87366126 5.38859321,7.88293097 L5.41511112,7.86641238 L5.20960157,7.57567705 L5.17976977,7.60210808 C5.18150946,7.6096361 5.18307942,7.61753886 5.18307942,7.62853826 L5.18307942,7.65166456 C5.18307942,7.66845209 5.17001989,7.68756905 5.1433034,7.70782966 C5.11658606,7.72809019 5.0802122,7.74662698 5.03723431,7.76399383 C4.99483604,7.78136077 4.94697431,7.79751222 4.8947031,7.81024734 C4.84301236,7.8229824 4.79217703,7.83006976 4.74222852,7.83006976 C4.6887964,7.83006976 4.63539568,7.82001596 4.58312532,7.80033568 C4.53143458,7.7812331 4.48787878,7.7520649 4.44722358,7.71443736 C4.40656838,7.6768099 4.37275822,7.63166028 4.34778396,7.57898094 C4.32280972,7.52630244 4.30800796,7.46656876 4.30800796,7.40057581 C4.30800796,7.33400424 4.32239982,7.27427056 4.34446924,7.22217061 C4.36653948,7.17064922 4.39604371,7.12863431 4.43728021,7.0933219 C4.47793541,7.05858976 4.52521668,7.03139748 4.57981057,7.01403055 C4.63440448,6.99666446 4.69590704,6.98760037 4.76211696,6.98760037 C4.81787177,6.98760037 4.86812749,6.99039167 4.91459154,7.00081589 C4.96105472,7.01065816 5.00296759,7.02598913 5.03723431,7.04046157 C5.07150104,7.05551172 5.09878187,7.07108461 5.11678549,7.08671504 C5.13537128,7.10292395 5.1433034,7.11379398 5.1433034,7.12305682 C5.1433034,7.1288509 5.14545892,7.13280439 5.14661305,7.13627152 C5.14712222,7.13973949 5.14661305,7.1427084 5.14661305,7.14617808 L5.1764457,7.16930437 L5.36206681,6.90830393 L5.32560554,6.8884815 C5.31805276,6.89253311 5.31210558,6.89648321 5.30571712,6.90169616 C5.29933543,6.90749022 5.29122595,6.90830224 5.28251479,6.90830224 C5.26915654,6.90830224 5.2497374,6.9012225 5.2195356,6.88847981 C5.18991596,6.8757439 5.151558,6.86231777 5.10683704,6.84553025 C5.06211607,6.82932043 5.01244252,6.81531575 4.95436331,6.80258068 C4.89570364,6.78984562 4.82907281,6.78275742 4.75879796,6.78275742 L4.75880731,6.78275742 Z M15.4187639,6.78276419 C15.2404613,6.78276419 15.1020026,6.81844201 15.0044309,6.88848658 C14.9056964,6.95911056 14.855271,7.05121651 14.855271,7.1693094 C14.855271,7.24919628 14.8795782,7.31090586 14.9248788,7.35432238 C14.9701802,7.39773967 15.0253937,7.4302819 15.0939271,7.45343695 C15.1624606,7.47659201 15.2364414,7.4931529 15.3160096,7.50299342 C15.3961582,7.51341768 15.4695584,7.52288774 15.5380919,7.53272834 C15.6066253,7.54315175 15.6645713,7.55715301 15.710454,7.57567705 C15.7557556,7.59420193 15.7800618,7.62435811 15.7800618,7.66488011 C15.7800618,7.70019252 15.7658406,7.7299392 15.7402859,7.7507792 C15.7141506,7.77219776 15.6813317,7.78875858 15.644161,7.80033568 C15.6069902,7.81249303 15.5697949,7.81998976 15.5314625,7.82346282 C15.4937112,7.8269308 15.4614727,7.8300689 15.4353367,7.8300689 C15.4074593,7.8300689 15.3714248,7.8261188 15.3226381,7.8168542 C15.2732718,7.80759307 15.222265,7.79283811 15.1734784,7.77720853 C15.1241119,7.76157895 15.0829493,7.74419934 15.0475217,7.72104343 C15.0120931,7.69788838 14.9944866,7.67284286 14.9944866,7.64505593 C14.9944866,7.6357948 14.9939776,7.6267307 14.9944866,7.61862582 C14.9956409,7.60994657 14.9977963,7.603025 14.9977963,7.59549953 L14.9447614,7.57898009 L14.8154899,7.88953782 L14.855266,7.91927189 C14.8645576,7.90827248 14.8756355,7.90275337 14.8884125,7.90275337 C14.8959653,7.90275337 14.9165436,7.90868276 14.9513909,7.92257578 C14.9868193,7.93646879 15.0328684,7.94931635 15.0839778,7.96552532 C15.1350872,7.9811549 15.1908803,7.99689692 15.2530253,8.00847487 C15.3151702,8.02063138 15.3753404,8.02499346 15.4386463,8.02499346 C15.5013718,8.02499346 15.5694046,8.02104336 15.6408412,8.01177876 C15.7122778,8.00309867 15.7771655,7.98183244 15.8364056,7.95230984 C15.8962271,7.92278726 15.9454916,7.88547274 15.9855655,7.83337279 C16.0250597,7.78185139 16.0452299,7.71288528 16.0452299,7.6318413 C16.0452299,7.55079732 16.0242374,7.48653244 15.9789368,7.44022062 C15.9336354,7.39448821 15.8751073,7.36153739 15.8065739,7.33780294 C15.7380404,7.31348993 15.6640596,7.29536172 15.5844914,7.28494172 C15.5049241,7.27509949 15.4309426,7.26504826 15.3624091,7.25520773 C15.2938757,7.24478347 15.2353475,7.22962504 15.1900469,7.2122581 C15.1441642,7.19489124 15.1237538,7.16688185 15.1237538,7.126359 C15.1237538,7.1003095 15.1285402,7.07765006 15.1436414,7.06028315 C15.1581614,7.0423385 15.1804846,7.02891154 15.2066197,7.01733358 C15.2327558,7.00633504 15.2630111,6.99883829 15.296116,6.99420728 C15.329221,6.98958049 15.3650143,6.98760122 15.402185,6.98760122 C15.4985959,6.98760122 15.5829028,6.99864205 15.6607288,7.02063914 C15.7385546,7.04263709 15.7959202,7.06867056 15.8330909,7.09993052 C15.8476109,7.11092993 15.8572861,7.12196908 15.8596088,7.13296848 C15.8613485,7.14396781 15.8644969,7.15442926 15.8662367,7.16600636 L15.9159559,7.1825258 L16.0551724,6.92482924 L16.0220251,6.8917913 C16.0109904,6.89700172 16.0030583,6.90367968 15.995508,6.90830984 C15.9879552,6.91294508 15.9768815,6.9149159 15.9623615,6.9149159 C15.9490032,6.9149159 15.9294143,6.90898652 15.9026978,6.89509349 C15.8759806,6.88177902 15.8396066,6.86562756 15.7966279,6.84884005 C15.7542305,6.83263109 15.7029845,6.81590108 15.6408395,6.8025866 C15.5786945,6.78869357 15.5058746,6.78276419 15.4187572,6.78276419 L15.4187639,6.78276419 Z M24.762799,6.78276419 C24.5844964,6.78276419 24.446619,6.81844201 24.348466,6.88848658 C24.2497315,6.95911056 24.2026208,7.05121651 24.2026208,7.1693094 C24.2026208,7.24919628 24.2236124,7.31090586 24.2689139,7.35432238 C24.3142153,7.39773967 24.3727426,7.4302819 24.441276,7.45343695 C24.5098096,7.47659201 24.5837911,7.4931529 24.6633593,7.50299342 C24.7435079,7.51341768 24.8169082,7.52288774 24.8854416,7.53272834 C24.953975,7.54315175 25.0086064,7.55715301 25.0544891,7.57567705 C25.0997905,7.59420193 25.124097,7.62435811 25.124097,7.66488011 C25.124097,7.70019252 25.110457,7.7299392 25.084321,7.7507792 C25.0581858,7.77219776 25.0286815,7.78875858 24.9915108,7.80033568 C24.9543392,7.81249303 24.9171446,7.81998976 24.8788122,7.82346282 C24.841061,7.8269308 24.8088226,7.8300689 24.7826866,7.8300689 C24.7548083,7.8300689 24.7160404,7.8261188 24.6666732,7.8168542 C24.6178873,7.80759307 24.5696148,7.79283811 24.5208281,7.77720853 C24.4714618,7.76157895 24.4269844,7.74419934 24.3915566,7.72104343 C24.3561282,7.69788838 24.3385217,7.67284286 24.3385217,7.64505593 C24.3385217,7.6357948 24.3406772,7.6267307 24.3418314,7.61862582 C24.3423406,7.60994657 24.3418314,7.603025 24.3418314,7.59549953 L24.2887963,7.57898009 L24.1628398,7.88953782 L24.2026157,7.91927189 C24.2119074,7.90827248 24.2196706,7.90275337 24.2324476,7.90275337 C24.2400002,7.90275337 24.2638933,7.90868276 24.2987406,7.92257578 C24.334169,7.93646879 24.3769034,7.94931635 24.4280129,7.96552532 C24.4791222,7.9811549 24.5349152,7.99689692 24.5970602,8.00847487 C24.6592052,8.02063138 24.7226893,8.02499346 24.7859962,8.02499346 C24.8487216,8.02499346 24.9134395,8.02104336 24.9848762,8.01177876 C25.0563128,8.00309867 25.1212006,7.98183244 25.1804406,7.95230984 C25.2402622,7.92278726 25.290107,7.88547274 25.3296005,7.83337279 C25.3696752,7.78185139 25.389265,7.71288528 25.389265,7.6318413 C25.389265,7.55079732 25.3682725,7.48653244 25.3229719,7.44022062 C25.2776705,7.39448821 25.2191423,7.36153739 25.1506088,7.33780294 C25.0820754,7.31348993 25.0080947,7.29536172 24.9285265,7.28494172 C24.8489592,7.27509949 24.7749775,7.26504826 24.7064441,7.25520773 C24.6379106,7.24478347 24.5826972,7.22962504 24.5373967,7.2122581 C24.4915139,7.19489124 24.4677889,7.16688185 24.4677889,7.126359 C24.4677889,7.1003095 24.4758932,7.07765006 24.4909912,7.06028315 C24.5055112,7.0423385 24.5245196,7.02891154 24.5506548,7.01733358 C24.5767908,7.00633504 24.607046,6.99883829 24.640151,6.99420728 C24.673256,6.98958049 24.7090494,6.98760122 24.7462201,6.98760122 C24.842631,6.98760122 24.9302526,6.99864205 25.0080785,7.02063914 C25.0859045,7.04263709 25.14327,7.06867056 25.1804406,7.09993052 C25.1949607,7.11092993 25.2013212,7.12196908 25.2036438,7.13296848 C25.2053836,7.14396781 25.208532,7.15442926 25.2102716,7.16600636 L25.259991,7.1825258 L25.3992076,6.92482924 L25.3693748,6.8917913 C25.3583401,6.89700172 25.3470932,6.90367968 25.3395431,6.90830984 C25.3319903,6.91294508 25.3209164,6.9149159 25.3063964,6.9149159 C25.2930383,6.9149159 25.2734495,6.90898652 25.2467329,6.89509349 C25.2200155,6.88177902 25.1869565,6.86562756 25.1439778,6.84884005 C25.1015803,6.83263109 25.0470196,6.81590108 24.9848744,6.8025866 C24.9227296,6.78869357 24.8499097,6.78276419 24.7627921,6.78276419 L24.762799,6.78276419 Z M5.71011606,6.7992785 L5.71011606,6.84884089 C5.7583215,6.84884089 5.78303861,6.86069966 5.78303861,6.88848658 L5.78303861,7.92588052 C5.78303861,7.95366738 5.7583215,7.96883006 5.71011606,7.96883006 L5.71011606,8.01838654 L6.80063959,8.01838654 C6.82270985,8.01838654 6.84188882,8.01934236 6.8569893,8.02168532 C6.87150932,8.02341935 6.87687689,8.02976314 6.87687689,8.04481162 L6.92659711,8.04481162 L6.92659711,7.75407714 L6.87687689,7.75407714 C6.87687689,7.77260202 6.87151356,7.78718616 6.8569893,7.79702669 C6.84188882,7.80745094 6.82270985,7.81354613 6.80063959,7.81354613 L6.0515265,7.81354613 L6.0515265,6.8884815 C6.0515265,6.86069459 6.07210656,6.84883582 6.11450483,6.84883582 L6.11450483,6.7992785 L5.71011606,6.7992785 L5.71011606,6.7992785 Z M7.25143382,6.7992785 L7.25143382,6.84884089 C7.28279657,6.84884089 7.30337748,6.85180135 7.31441302,6.8587466 C7.32544777,6.86511583 7.33098587,6.87673439 7.33098587,6.89178539 L7.33098587,7.59219138 C7.33098587,7.64950091 7.34520804,7.70139865 7.3707619,7.75407714 C7.39689707,7.80675649 7.43392267,7.8556185 7.48677524,7.8961405 C7.53962773,7.93666333 7.60981259,7.9687962 7.6922839,7.99195126 C7.77475604,8.01510631 7.86972937,8.02498921 7.98066024,8.02498921 C8.09217157,8.02498921 8.18987825,8.01510462 8.2723504,7.99195126 C8.3542413,7.9687962 8.42169274,7.93666333 8.47454438,7.8961405 C8.52739688,7.8556185 8.56831854,7.80675649 8.59387246,7.75407714 C8.62000848,7.70139865 8.63364841,7.64950091 8.63364841,7.59219138 L8.63364841,6.89178539 C8.63364841,6.86399846 8.65207638,6.84883582 8.69331287,6.84883582 L8.69331287,6.7992785 L8.30549696,6.7992785 L8.30549696,6.84883582 C8.35196018,6.84883582 8.37510475,6.86399846 8.37510475,6.89178539 L8.37510475,7.52611469 C8.37510475,7.61526355 8.34402803,7.68760462 8.27897992,7.74086251 C8.2145122,7.79469895 8.11424179,7.82015383 7.98066024,7.82015383 C7.84765993,7.82015383 7.75070255,7.79469895 7.68565529,7.74086251 C7.62118672,7.68760462 7.5862148,7.61526355 7.5862148,7.52611469 L7.5862148,6.89178539 C7.5862148,6.86399846 7.6085388,6.84883582 7.64919398,6.84883582 L7.64919398,6.7992785 L7.25143382,6.7992785 L7.25143382,6.7992785 Z M9.09438691,6.7992785 L9.09438691,6.84884089 C9.10948655,6.84884089 9.12353897,6.852385 9.13747766,6.8587466 C9.15141552,6.865691 9.15736525,6.87673439 9.15736525,6.89178539 L9.15736525,7.92587542 C9.15736525,7.94092559 9.15141637,7.95254585 9.13747766,7.95891337 C9.12353897,7.96585775 9.10948655,7.96881908 9.09438691,7.96881908 L9.09438691,8.01837641 L9.94625521,8.01837641 C10.028146,8.01837641 10.0997337,8.00931564 10.1583934,7.99194623 C10.2164726,7.9745793 10.2616009,7.94878519 10.297609,7.91926261 C10.333618,7.88973917 10.3603184,7.85562955 10.377161,7.81684406 C10.3940037,7.77805943 10.403679,7.73917844 10.403679,7.69460398 C10.403679,7.6563971 10.3965675,7.61857502 10.3837905,7.58557858 C10.3704323,7.55200352 10.3543975,7.5218457 10.3340703,7.49637552 C10.3131627,7.47032602 10.2905985,7.44940226 10.2644625,7.43029968 C10.2383273,7.4123542 10.2110464,7.39834954 10.1849104,7.38735013 L10.1849104,7.38405134 C10.2069807,7.37305194 10.2302959,7.35632279 10.2512043,7.33779876 C10.2726942,7.3192738 10.293444,7.29818094 10.310868,7.27502587 C10.328292,7.25187082 10.3429232,7.22798326 10.3539587,7.19903837 C10.3649942,7.17067374 10.3705324,7.13952886 10.3705324,7.10653235 C10.3705324,7.06601036 10.3602751,7.02794812 10.3440145,6.99089917 C10.3271718,6.95385024 10.302044,6.92015002 10.2677772,6.89178539 C10.2335105,6.86341991 10.1896153,6.8386146 10.1385058,6.8224048 C10.0873964,6.80561728 10.029789,6.7992785 9.95951419,6.7992785 L9.09438691,6.7992785 L9.09438691,6.7992785 Z M11.6301042,6.79928357 L11.6301042,6.84884089 C11.6730821,6.84884089 11.6963973,6.86400354 11.6963973,6.89179045 L11.6963973,7.92588052 C11.6963973,7.95366738 11.6730821,7.96883006 11.6301042,7.96883006 L11.6301042,8.01838654 L12.4156794,8.01838654 C12.5248681,8.01838654 12.618027,8.00083774 12.6941107,7.96552618 C12.769613,7.93079316 12.8315263,7.88349761 12.8797318,7.82676671 C12.9279373,7.77061429 12.9637315,7.70866447 12.985801,7.63514604 C13.0078711,7.56220609 13.0189475,7.48475449 13.0189475,7.40718352 C13.0189475,7.33019201 13.0057174,7.25546399 12.9824862,7.18252495 C12.959255,7.109585 12.9252038,7.04433217 12.8764171,6.98760037 C12.8270507,6.93144883 12.7619933,6.88745634 12.6841664,6.85214477 C12.6063406,6.81741176 12.5149238,6.79928357 12.4057352,6.79928357 L11.6301042,6.79928357 Z M19.8007481,6.79928104 L19.8007481,6.84884089 C19.8059756,6.85230887 19.8126756,6.85586142 19.8173218,6.8587466 C19.8219638,6.86106422 19.8239496,6.86699362 19.8239496,6.87856987 C19.8239496,6.8930423 19.8203939,6.9086135 19.8140105,6.92482331 C19.8076288,6.94045286 19.7985289,6.96154576 19.7874935,6.9875953 L19.3731604,7.88622976 C19.3656077,7.90070215 19.3539526,7.9184193 19.340014,7.93578623 C19.3260752,7.95373171 19.3096304,7.96535196 19.2869789,7.96882496 L19.2869789,8.01838229 L19.6582212,8.01838229 L19.6582212,7.96882496 C19.6413785,7.96882496 19.6310532,7.96568686 19.6217599,7.96221889 C19.6124682,7.95816733 19.6051871,7.95083888 19.6051871,7.93578793 C19.6051871,7.92652673 19.6071728,7.91490732 19.6118148,7.90274996 C19.6164568,7.89059346 19.624153,7.87757671 19.6317032,7.8631043 L19.7079406,7.71443318 L20.3045798,7.71443318 L20.3775024,7.86971201 C20.3833156,7.88476304 20.3905916,7.89679181 20.3940752,7.90605385 C20.3981402,7.91531498 20.397385,7.92478937 20.397385,7.93578793 C20.397385,7.95026033 20.3939989,7.96361623 20.384126,7.96882667 C20.3736684,7.97462074 20.3635876,7.97543274 20.3542942,7.97543274 L20.3542942,8.01838229 L20.7487396,8.01838229 L20.7487396,7.96882582 C20.7359618,7.96535784 20.7233138,7.95925763 20.7122783,7.95230645 C20.7012427,7.94477842 20.691739,7.93275212 20.6824457,7.9159646 L20.2316522,6.97438063 C20.2223606,6.95412006 20.213266,6.93384596 20.2051343,6.9182164 C20.196996,6.902586 20.1918762,6.8895701 20.1918762,6.87857071 C20.1918762,6.86525624 20.195432,6.85718094 20.2018145,6.85544442 C20.2087818,6.85371043 20.2158941,6.85230632 20.2217029,6.84883836 L20.2217029,6.79928104 L19.8007405,6.79928104 L19.8007481,6.79928104 Z M20.9973416,6.7992785 L20.9973416,6.84884089 C21.0287042,6.84884089 21.0492844,6.85180135 21.0603199,6.8587466 C21.0713555,6.86511583 21.0768936,6.87673439 21.0768936,6.89178539 L21.0768936,7.59219138 C21.0768936,7.64950091 21.0911149,7.70139865 21.1166696,7.75407714 C21.1428048,7.80675649 21.1798304,7.8556185 21.232683,7.8961405 C21.2855346,7.93666333 21.3524047,7.9687962 21.4348769,7.99195126 C21.517349,8.01510631 21.6156371,8.02498921 21.7265671,8.02498921 C21.8380793,8.02498921 21.9352048,8.01510462 22.0182582,7.99195126 C22.1001481,7.9687962 22.1676005,7.93666333 22.2204521,7.8961405 C22.2733046,7.8556185 22.3142262,7.80675649 22.3397802,7.75407714 C22.3659154,7.70139865 22.3762414,7.64950091 22.3762414,7.59219138 L22.3762414,6.89178539 C22.3762414,6.86399846 22.3985646,6.84883582 22.4392198,6.84883582 L22.4392198,6.7992785 L22.0514047,6.7992785 L22.0514047,6.84883582 C22.0978679,6.84883582 22.1210125,6.86399846 22.1210125,6.89178539 L22.1210125,7.52611469 C22.1210125,7.61526355 22.0899349,7.68760462 22.0248868,7.74086251 C21.960419,7.79469895 21.8601487,7.82015383 21.7265671,7.82015383 C21.5935676,7.82015383 21.4932955,7.79469895 21.4282475,7.74086251 C21.3637798,7.68760462 21.3321226,7.61526355 21.3321226,7.52611469 L21.3321226,6.89178539 C21.3321226,6.86399846 21.3544457,6.84883582 21.3951008,6.84883582 L21.3951008,6.7992785 L20.9973416,6.7992785 L20.9973416,6.7992785 Z M26.6919326,6.79928357 L26.6919326,6.84884089 C26.7349105,6.84884089 26.7549109,6.86400354 26.7549109,6.89179045 L26.7549109,7.92588052 C26.7549109,7.95366738 26.7349105,7.96883006 26.6919326,7.96883006 L26.6919326,8.01838654 L27.4741931,8.01838654 C27.5833817,8.01838654 27.6771228,8.00083774 27.7526244,7.96552618 C27.8287081,7.93079316 27.8900408,7.88349761 27.9382454,7.82676671 C27.9864509,7.77061429 28.0222451,7.70866447 28.0443154,7.63514604 C28.0663848,7.56220609 28.0774619,7.48475449 28.0774619,7.40718352 C28.0774619,7.33019201 28.0669712,7.25546399 28.0443154,7.18252495 C28.0210834,7.109585 27.9837174,7.04433217 27.9349316,6.98760037 C27.8855644,6.93144883 27.8238216,6.88745634 27.7459957,6.85214477 C27.6681689,6.81741176 27.5734375,6.79928357 27.4642489,6.79928357 L26.6919326,6.79928357 Z M34.3256016,6.79927342 L34.3256016,6.84884089 C34.3552212,6.84884089 34.3742297,6.852385 34.3852652,6.8587466 C34.3968812,6.86511583 34.4018389,6.87400907 34.4018389,6.8884815 L34.4018389,7.92587542 C34.4018389,7.94092559 34.3968829,7.95254585 34.3852652,7.95891337 C34.3742297,7.96527409 34.3552212,7.96881908 34.3256016,7.96881908 L34.3256016,8.01837641 L34.7465641,8.01837641 L34.7465641,7.96881908 C34.6942928,7.96881908 34.667012,7.9536564 34.667012,7.92586954 L34.667012,6.88847558 C34.667012,6.86068866 34.6942928,6.8488299 34.7465641,6.8488299 L34.7465641,6.79927342 L34.3256016,6.79927342 L34.3256016,6.79927342 Z M35.2238754,6.79928357 L35.2238754,6.84884089 C35.2569803,6.84884089 35.2735948,6.86069966 35.2735948,6.88848658 L35.2735948,7.92588052 C35.2735948,7.95366738 35.2569803,7.96883006 35.2238754,7.96883006 L35.2238754,8.01838654 L35.5652858,8.01838654 L35.5652858,7.96883006 C35.5263728,7.96883006 35.5089361,7.95366738 35.5089361,7.92588052 L35.5089361,7.11975293 L36.1983864,7.84989301 C36.2204558,7.87362746 36.2400456,7.89744481 36.25805,7.91596885 C36.275474,7.93449373 36.284567,7.94478515 36.284567,7.9523107 C36.284567,7.96157183 36.2774641,7.96883006 36.2646796,7.96883006 L36.2646796,8.01838654 L36.6259775,8.01838654 L36.6259775,7.96883006 C36.5922922,7.96883006 36.5762573,7.95366738 36.5762573,7.92588052 L36.5762573,6.88848658 C36.5762573,6.86069966 36.5922922,6.84884089 36.6259775,6.84884089 L36.6259775,6.79928357 L36.2878818,6.79928357 L36.2878818,6.84884089 C36.3250526,6.84884089 36.3409169,6.86069966 36.3409169,6.88848658 L36.3409169,7.64175382 L35.6746696,6.9380439 C35.6340144,6.89752106 35.6150052,6.87189698 35.6150052,6.8620564 C35.6150052,6.855112 35.6187985,6.85115597 35.6315789,6.84884089 L35.6315789,6.79928357 L35.2238754,6.79928357 Z M9.42585317,7.00411553 L9.91973816,7.00411553 C9.94180754,7.00411553 9.96396101,7.00454268 9.98603123,7.00741856 C10.0086819,7.00973618 10.0288521,7.01739871 10.0456948,7.02724183 C10.0625376,7.03766605 10.0744353,7.05282446 10.0854709,7.07019139 C10.0965064,7.08755836 10.1020445,7.11004856 10.1020445,7.13957116 C10.1020445,7.19688067 10.0846078,7.23395495 10.0456948,7.25190043 C10.0067827,7.27042447 9.96387784,7.2816345 9.91973816,7.2816345 L9.42585317,7.2816345 L9.42585317,7.00411553 L9.42585317,7.00411553 Z M11.9615705,7.00411469 L12.3228685,7.00411469 C12.3803664,7.00411469 12.4369112,7.00766386 12.4886021,7.01402548 C12.5408724,7.02096988 12.5855899,7.03637528 12.6245029,7.0635828 C12.663415,7.09021171 12.6940818,7.12984051 12.717313,7.18251985 C12.7405451,7.23519835 12.7504604,7.30794877 12.7504604,7.40057071 C12.7504604,7.49319264 12.7405426,7.56693098 12.717313,7.62192546 C12.6940818,7.67634046 12.663415,7.71522151 12.6245029,7.7441664 C12.5855899,7.77253104 12.5408724,7.791648 12.4886021,7.80033058 C12.4369112,7.80844226 12.3803664,7.81354613 12.3228685,7.81354613 L11.9615705,7.81354613 L11.9615705,7.00411469 L11.9615705,7.00411469 Z M27.0233988,7.00411469 L27.3846968,7.00411469 C27.4421957,7.00411469 27.4954249,7.00766386 27.5471156,7.01402548 C27.5993869,7.02096988 27.6441044,7.03637528 27.6830166,7.0635828 C27.7219295,7.09021171 27.7525963,7.12984051 27.7758275,7.18251985 C27.7990588,7.23519835 27.8122888,7.30794877 27.8122888,7.40057071 C27.8122888,7.49319264 27.7990588,7.56693098 27.7758275,7.62192546 C27.7525963,7.67634046 27.7219295,7.71522151 27.6830166,7.7441664 C27.6441044,7.77253104 27.5993869,7.791648 27.5471156,7.80033058 C27.4954249,7.80844226 27.4421947,7.81354613 27.3846968,7.81354613 L27.0233988,7.81354613 L27.0233988,7.00411469 L27.0233988,7.00411469 Z M19.989684,7.04376545 L20.2150811,7.50629731 L19.7908039,7.50629731 L19.989684,7.04376545 Z M25.7141068,7.29155035 L25.7141068,7.52281668 L26.3704106,7.52281668 L26.3704106,7.29155035 L25.7141068,7.29155035 Z M29.8839529,7.29155035 L29.8839529,7.52281668 L30.5402567,7.52281668 L30.5402567,7.29155035 L29.8839529,7.29155035 Z M9.42585317,7.48647491 L9.87001796,7.48647491 C9.96642881,7.48647491 10.0342901,7.4983337 10.0755266,7.52612057 C10.1161827,7.5539075 10.1351911,7.59707952 10.1351911,7.65496844 C10.1351911,7.70417387 10.1207296,7.74281467 10.0887856,7.77060161 C10.0574229,7.79838854 9.9984848,7.81355116 9.91310872,7.81355116 L9.42585317,7.81355116 L9.42585317,7.48647491 Z" id="path942"></path>
                </g>
            </g>
        </g>
    </g>
</svg>