<?xml version="1.0" encoding="UTF-8"?>
<svg width="27px" height="32px" viewBox="0 0 27 32" version="1.1" xmlns="http://www.w3.org/2000/svg" xmlns:xlink="http://www.w3.org/1999/xlink">
    <!-- Generator: Sketch 59.1 (86144) - https://sketch.com -->
    <title>stade_rennais</title>
    <desc>Created with Sketch.</desc>
    <g id="Design" stroke="none" stroke-width="1" fill="none" fill-rule="evenodd">
        <g id="Desktop" transform="translate(-817.000000, -744.000000)" fill-rule="nonzero">
            <g id="Logos-reassurance" transform="translate(0.000000, 720.000000)">
                <g id="stade_rennais" transform="translate(817.000000, 24.000000)">
                    <path d="M22.4023436,0 L25.0170079,3.252359 L24.7819755,3.60677693 C24.7733254,3.61877575 23.9502567,4.88278336 24.1599648,6.73654422 C24.2412303,7.45392641 24.5486504,8.7217261 24.904898,10.1897136 C25.5710128,12.9352923 26.4,16.3527483 26.4,18.7685859 C26.4,23.1661529 24.5940065,25.3543525 19.2434057,27.4399396 L19.2434057,27.4399396 L18.6926446,27.6527488 C16.6286845,28.4480101 14.3992912,29.1394137 13.665569,30.8259269 C13.425927,31.28358 13.364295,31.4058321 13.2,32 C13.035705,31.4058321 12.974073,31.28358 12.734431,30.8259269 C12.0618523,29.2800084 10.1324466,28.5702108 8.22581873,27.8500494 L7.70735543,27.6527488 L7.15659428,27.4399396 C1.8059366,25.3544091 0,23.1662095 0,18.7685859 C0,16.3526917 0.82887334,12.9353489 1.49510198,10.1897136 C1.85129273,8.7217261 2.15876974,7.45386981 2.23997827,6.73654422 C2.44968636,4.88278336 1.62661769,3.61877575 1.6180245,3.60677693 L1.6180245,3.60677693 L1.3829921,3.252359 L3.99777022,0 L4.35936728,0.0880668 C6.75555958,0.674310961 9.86908442,0.99641132 13.1263603,0.99641132 L13.1263603,0.99641132 L13.2737535,0.99641132 C16.5310294,0.99641132 19.6445542,0.674310961 22.0407465,0.0880668 L22.0407465,0.0880668 L22.4023436,0 Z M12.8,7.01219861 L12.8,9.66132298 C12.0865179,9.62106273 11.5203922,9.04339854 11.5203922,8.33662002 C11.5203922,7.6298415 12.0865179,7.05245886 12.8,7.01219861 Z M12.8,4 L9.91037136,4 L6.4,7.47386823 L6.4,13.2095178 L10.0059368,16.8 L12.8,16.8 L12.8,30.4 C13.0212858,29.9602079 13.3306126,29.5842874 13.6891845,29.2641983 C14.0879955,28.9081253 14.5474825,28.6165985 15.037221,28.3610558 C16.0168712,27.851376 17.124224,27.4789414 18.1581421,27.087784 L18.7151958,26.8769964 C20.71843,26.1132357 22.1922063,25.3428404 23.2327635,24.488445 C24.2734362,23.6309572 24.895669,22.7070114 25.2529131,21.534045 C25.4891515,20.7513927 25.6,19.8520173 25.6,18.7985853 C25.6009779,17.6626711 25.3975312,16.2395596 25.1059281,14.7690504 C24.8148446,13.297248 24.4378562,11.7746182 24.0999522,10.4112177 C23.7383782,8.94762411 23.4244329,7.69661738 23.3314848,6.910198 C23.3048705,6.68012521 23.2929777,6.45803638 23.2929777,6.24516845 C23.2939592,5.0093987 23.6877475,4.09405534 23.9074168,3.67540383 C23.9821794,3.53382923 24.0333298,3.4539897 24.0553833,3.42109806 C24.0557297,3.42059203 24.0560184,3.42019846 24.0563648,3.41986111 C24.057808,3.41761211 24.0579812,3.41738721 24.0581544,3.41710608 L21.9096094,0.8 C19.4135191,1.39722218 16.2192788,1.71832328 12.8748204,1.71899798 L12.8,1.71866063 L12.8,4 Z" id="path9808-2" fill="#FFFFFF"></path>
                    <path d="M3.80503493,18.8697141 C3.67395496,18.7305443 3.4656883,18.6506219 3.27715546,18.6506219 C3.08562507,18.6506219 2.84382343,18.7273138 2.84382343,18.966952 C2.84382343,19.4434502 4,19.4369246 4,20.0797932 C4,20.4518818 3.62349635,20.8 3.09930135,20.8 C2.89434448,20.8 2.68926271,20.768535 2.49735764,20.6955258 L2.4,20.2608948 C2.5983373,20.4384429 2.87386129,20.5494427 3.13614613,20.5494427 C3.32767652,20.5494427 3.61662699,20.4312066 3.61662699,20.187498 C3.61662699,19.6450977 2.46045041,19.7431756 2.46045041,19.0052011 C2.46045041,18.5670812 2.89428203,18.4 3.30438312,18.4 C3.47212053,18.4 3.64385465,18.4244872 3.80497248,18.4763043 L3.80503493,18.8697141" id="path9814" fill="#111F2A"></path>
                    <path d="M4.95452156,20.3309682 C4.95452156,20.5369239 4.95150955,20.6773116 5.1137032,20.7894072 L5.1137032,20.8 L4.50772182,20.8 L4.50772182,20.7894072 C4.6611636,20.7208224 4.6425801,20.4578803 4.6425801,20.2949662 L4.6425801,18.6855355 L4.37320452,18.6855355 C4.24169923,18.6855355 4.10434041,18.7252249 4.00920651,18.8295435 L4,18.8295435 L4.10718193,18.4 L4.11627477,18.4 C4.15315763,18.4183697 4.19293884,18.4183697 4.23249272,18.4254763 L5.45019535,18.4254763 C5.50236556,18.4254763 5.55118278,18.4221241 5.59090715,18.4 L5.6,18.4 L5.50236556,18.8295435 L5.49281807,18.8295435 C5.45303687,18.7038382 5.33090857,18.6855355 5.229637,18.6855355 L4.95457839,18.6855355 L4.95452156,20.3309682" id="path9816" fill="#111F2A"></path>
                    <path d="M5.94785871,18.7100971 L5.61462957,19.6292749 L6.2777743,19.6292749 L5.94785871,18.7100971 L5.94785871,18.7100971 Z M5.5273523,19.8993223 L5.35211003,20.4139372 C5.28165052,20.6179806 5.25801813,20.7241699 5.41944358,20.7894285 L5.41944358,20.8 L4.8,20.8 L4.8,20.7894285 C4.99524852,20.683578 5.05264145,20.4796024 5.1264145,20.2717642 L5.68846515,18.7503501 C5.73585495,18.6191552 5.79987496,18.4656652 5.63844952,18.4109781 L5.63844952,18.4 L6.17005314,18.4 L6.8700844,20.2717642 C6.94742107,20.4795347 7.00793998,20.683578 7.2,20.7894285 L7.2,20.8 L6.50990935,20.8 L6.50990935,20.7894285 C6.67471085,20.7093291 6.64795249,20.6688728 6.55692404,20.4139372 L6.37517974,19.8993223 L5.5273523,19.8993223 Z" id="path9818" fill="#111F2A"></path>
                    <path d="M8.37984777,20.5126722 C8.4421892,20.5309013 8.50477226,20.5380845 8.56981998,20.5380845 C8.9573517,20.5380845 9.30346744,20.2536707 9.30346744,19.6222272 C9.30346744,18.9840072 9.04835085,18.6628642 8.61389392,18.6628642 C8.53613628,18.6628642 8.45799203,18.6771629 8.37984777,18.7029817 L8.37984777,20.5126722 L8.37984777,20.5126722 Z M8.11458258,18.9001807 C8.11458258,18.7321888 8.13270509,18.4656652 8.00004833,18.4109781 L8.00004833,18.4 L8.63742902,18.4 C9.23034916,18.4 9.6,18.8524057 9.6,19.5786537 C9.6,20.2969054 9.2070557,20.8 8.62442914,20.8 L8,20.8 L8,20.7894285 C8.13004712,20.6650102 8.11453425,20.4901739 8.11453425,20.2752202 L8.11458258,18.9001807 L8.11458258,18.9001807 Z" id="path9820" fill="#111F2A"></path>
                    <path d="M10.1091202,20.4958893 L10.5488821,20.5399389 C10.7775454,20.5617284 11.0163745,20.4853308 11.18977,20.3261468 L11.2,20.3261468 L11.0444909,20.8 L9.6,20.8 L9.6,20.7893743 C9.77693421,20.7247457 9.75589513,20.4568162 9.75589513,20.2933954 L9.75589513,18.9287976 C9.75589513,18.7624177 9.77693421,18.4978508 9.6,18.4289853 L9.6,18.4180906 L10.7081872,18.4180906 C10.7672511,18.4180906 10.8261219,18.4256228 10.8710954,18.4 L10.8813897,18.4 L10.8813897,18.8233474 L10.8710954,18.8233474 C10.7638411,18.6930815 10.621972,18.6788242 10.4622808,18.6788242 C10.3409361,18.6788242 10.2196558,18.6826576 10.1090558,18.7040435 L10.1090558,19.3777678 L10.5212804,19.3777678 C10.5765482,19.3777678 10.632202,19.3777678 10.6733794,19.3555749 L10.6841885,19.3555749 L10.6841885,19.7394457 L10.6733794,19.7394457 C10.6181116,19.6348026 10.4728326,19.6382324 10.3651922,19.6382324 L10.1090558,19.6382324 L10.1091202,20.4958893" id="path9822" fill="#111F2A"></path>
                    <path d="M12.643093,18.4000678 C13.0052595,18.4000678 13.2026862,18.6555988 13.2026862,18.9874301 C13.2026862,19.3081484 12.994615,19.5603591 12.7730873,19.629341 L13.1621164,20.2896154 C13.2754911,20.4795528 13.4461558,20.6688125 13.6,20.7999322 L13.3511078,20.7999322 C13.208109,20.7999322 13.1188853,20.7525665 13.0376953,20.6179231 L12.7080148,20.066949 L12.459223,19.5527698 C12.675579,19.509131 12.9270319,19.3738099 12.9270319,19.0310689 C12.9270319,18.7686261 12.7592795,18.6154837 12.5783719,18.6264611 C12.5161112,18.6302558 12.4565619,18.6407589 12.3944518,18.6556666 L12.3944518,20.2895477 C12.3944518,20.4571913 12.3782841,20.7241741 12.5161112,20.7892936 L12.5161112,20.8 L12,20.8 L12,20.7892936 C12.1378272,20.7241741 12.1188477,20.4542097 12.1188477,20.2895477 L12.1188477,18.9145858 C12.1188477,18.7469422 12.1378272,18.4804337 12,18.4109775 L12,18.4 L12.643093,18.4" id="path9824" fill="#FFFFFF"></path>
                    <path d="M12.8,18.4109775 C12.8,18.4109775 12.8,18.9835699 12.8,20.1287547 L12.459223,19.5527698 C12.675579,19.509131 12.8,19.3692655 12.8,19.0265245 C12.8,18.7640817 12.7592795,18.6154837 12.5783719,18.6264611 C12.5161112,18.6302558 12.4565619,18.6407589 12.3944518,18.6556666 L12.3944518,20.2895477 C12.3944518,20.4571913 12.3782841,20.7241741 12.5161112,20.7892936 L12.5161112,20.8 L12,20.8 L12,20.7892936 C12.1378272,20.7241741 12.1188477,20.4542097 12.1188477,20.2895477 L12.1188477,18.9145858 C12.1188477,18.7469422 12.1378272,18.4804337 12,18.4109775 L12,18.4 L12.643093,18.4 L12.8,18.4109775 Z" id="path9824" fill="#0B202F"></path>
                    <path d="M14.1086902,20.4958893 L14.5489203,20.5399389 C14.7775285,20.5617284 15.0164314,20.4853308 15.1894479,20.3261468 L15.2,20.3261468 L15.044549,20.8 L13.6,20.8 L13.6,20.7893743 C13.7765553,20.7247457 13.755451,20.4568162 13.755451,20.2933954 L13.755451,18.9287976 C13.755451,18.7624177 13.7765553,18.4978508 13.6,18.4289853 L13.6,18.4180906 L14.7082318,18.4180906 C14.766912,18.4180906 14.8257852,18.4256228 14.8707604,18.4 L14.8811839,18.4 L14.8811839,18.8233474 L14.8707604,18.8233474 C14.7634375,18.6930815 14.6215627,18.6788242 14.4621868,18.6788242 C14.3408373,18.6788242 14.2200668,18.6826576 14.1086259,18.7040435 L14.1086259,19.3777678 L14.5212531,19.3777678 C14.5765231,19.3777678 14.6318575,19.3777678 14.6735513,19.3555749 L14.6837817,19.3555749 L14.6837817,19.7394457 L14.6735513,19.7394457 C14.6181526,19.6348026 14.4724816,19.6382324 14.3651586,19.6382324 L14.1086259,19.6382324 L14.1086902,20.4958893" id="path9826" fill="#FFFFFF"></path>
                    <path d="M15.6506275,20.2362633 C15.6506275,20.4315197 15.6468121,20.5700471 15.8379205,20.6780778 L15.8379205,20.6882864 L15.2,20.6882864 L15.2,20.6780778 C15.3910414,20.5700471 15.3910414,20.4315843 15.3910414,20.2362633 L15.3910414,18.8485987 C15.3910414,18.6541176 15.3910414,18.5148795 15.2033469,18.4104025 L15.2033469,18.4 L15.7296145,18.4 L15.7296145,18.403166 C15.7442071,18.4450989 15.7589335,18.4624795 15.7837675,18.4906502 L15.8343727,18.5601077 L17.1530541,20.167258 L17.1530541,18.8486633 C17.1530541,18.6541176 17.1566687,18.5149441 16.9655603,18.4104671 L16.9655603,18.4 L17.6,18.4 L17.6,18.4104671 C17.412841,18.5149441 17.412841,18.6541176 17.412841,18.8486633 L17.412841,20.8 C17.1566687,20.7164571 17.0450828,20.601836 16.8866403,20.4036721 L15.6506945,18.8905963 L15.6506945,20.2362633" id="path9828" fill="#FFFFFF"></path>
                    <path d="M17.2506945,20.2362633 C17.2506945,20.4315197 17.2471468,20.5700471 17.4382551,20.6780778 L17.4382551,20.6882864 L16.8,20.6882864 L16.8,20.6780778 C16.9913092,20.5700471 16.9913092,20.4315843 16.9913092,20.2362633 L16.9913092,18.8485987 C16.9913092,18.6541176 16.9913092,18.5148795 16.8038155,18.4104025 L16.8038155,18.4 L17.3300831,18.4 L17.3300831,18.403166 C17.3441401,18.4450989 17.3587326,18.4624795 17.3836336,18.4906502 L17.4347744,18.5601077 L18.7534557,20.167258 L18.7534557,18.8486633 C18.7534557,18.6541176 18.7568695,18.5149441 18.5658281,18.4104671 L18.5658281,18.4 L19.2,18.4 L19.2,18.4104671 C19.0127071,18.5149441 19.0127071,18.6541176 19.0127071,18.8486633 L19.0127071,20.8 C18.7568695,20.7164571 18.6452167,20.601836 18.486908,20.4036721 L17.2506945,18.8905963 L17.2506945,20.2362633" id="path9830" fill="#FFFFFF"></path>
                    <path d="M20.3475868,18.7100971 L20.014594,19.6292749 L20.6777025,19.6292749 L20.3475868,18.7100971 L20.3475868,18.7100971 Z M19.9270927,19.8993223 L19.7522777,20.4139372 C19.6811633,20.6179806 19.6575211,20.7241699 19.819264,20.7894285 L19.819264,20.8 L19.2,20.8 L19.2,20.7894285 C19.3948921,20.683578 19.4523715,20.4796024 19.5265506,20.2717642 L20.0888356,18.7503501 C20.1357448,18.6191552 20.1996039,18.4656652 20.0381737,18.4109781 L20.0381737,18.4 L20.569999,18.4 L21.2703221,20.2717642 C21.3478787,20.4795347 21.4084228,20.683578 21.6,20.7894285 L21.6,20.8 L20.9101845,20.8 L20.9101845,20.7894285 C21.0753675,20.7093291 21.0482852,20.6688728 20.9570937,20.4139372 L20.7754613,19.8993223 L19.9270927,19.8993223 Z" id="path9832" fill="#FFFFFF"></path>
                    <path d="M21.6,18.4109775 L21.6,18.4 L22.4,18.4 L22.4,18.4109775 C22.1894202,18.4802982 22.2146084,18.7503303 22.2146084,18.9145858 L22.2146084,20.2895477 C22.2146084,20.4542097 22.1894202,20.7199729 22.4,20.7892936 L22.4,20.8 L21.6,20.8 L21.6,20.7892936 C21.8101105,20.7241741 21.7856263,20.4542097 21.7856263,20.2895477 L21.7856263,18.9145858 C21.7856263,18.7469422 21.8142564,18.4803659 21.6,18.4109775 Z" id="path9834" fill="#FFFFFF"></path>
                    <path d="M23.8045659,18.8697141 C23.6735063,18.7305443 23.46496,18.6506219 23.2771434,18.6506219 C23.0853932,18.6506219 22.8436293,18.7273138 22.8436293,18.966952 C22.8436293,19.4434502 24,19.4369246 24,20.0797932 C24,20.4518818 23.6233678,20.8 23.0986927,20.8 C22.8937678,20.8 22.6889678,20.768535 22.4974049,20.6955258 L22.4,20.2608948 C22.598119,20.4384429 22.8736,20.5494427 23.1358439,20.5494427 C23.327282,20.5494427 23.6168117,20.4312066 23.6168117,20.187498 C23.6168117,19.6450977 22.4603785,19.7431756 22.4603785,19.0052011 C22.4603785,18.5670812 22.8936429,18.4 23.3036176,18.4 C23.4717034,18.4 23.643161,18.4244872 23.8045034,18.4763043 L23.8045034,18.8697141" id="path9836" fill="#FFFFFF"></path>
                    <path d="M5.91793029,23.0312074 C5.91793029,23.0853189 5.90068272,23.1737264 6.00862379,23.19643 L6.00862379,23.2 L5.6,23.2 L5.6,23.19643 C5.71038448,23.1748496 5.69716134,23.0852788 5.69716134,23.0312074 L5.69716134,22.5762134 C5.69716134,22.5204974 5.71045634,22.4325311 5.6,22.4096671 L5.6,22.4058564 L6.29184333,22.4058564 C6.32885375,22.4058564 6.36543299,22.4085439 6.39360402,22.4 L6.4,22.4 L6.4,22.539631 L6.39360402,22.539631 C6.32684154,22.4976334 6.23780093,22.4926996 6.13826806,22.4926996 C6.06288178,22.4926996 5.98706432,22.4942639 5.91785843,22.5012435 L5.91785843,22.7259527 L6.17721883,22.7259527 C6.2094143,22.7259527 6.2444125,22.7259527 6.27028387,22.7185319 L6.27689544,22.7185319 L6.27689544,22.8462495 L6.27028387,22.8462495 C6.23571685,22.810349 6.14480776,22.8128359 6.07768595,22.8128359 L5.91778656,22.8128359 L5.91778656,23.0312074" id="path9838" fill="#111F2A"></path>
                    <path d="M6.64841972,22.3758081 C6.64841972,22.7000677 6.86455358,23.0333302 7.20765429,23.0333302 C7.53936426,23.0333302 7.75107242,22.7767081 7.75107242,22.430903 C7.75107242,22.0933313 7.54807056,21.7669941 7.20293838,21.7669941 C6.86462613,21.7669941 6.64841972,22.0262325 6.64841972,22.3758081 L6.64841972,22.3758081 Z M8,22.3853497 C8,22.8578115 7.63099805,23.2 7.19655376,23.2 C6.76457625,23.2 6.4,22.8714313 6.4,22.3968919 C6.4,21.9568253 6.75986034,21.5890899 7.21846461,21.6002474 C7.67699633,21.5977851 8,21.9685214 8,22.3853497 Z" id="path9840" fill="#111F2A"></path>
                    <path d="M8.24885503,22.3758081 C8.24885503,22.7000677 8.46462613,23.0333302 8.80772684,23.0333302 C9.13943681,23.0333302 9.35114497,22.7767081 9.35114497,22.430903 C9.35114497,22.0933313 9.14814311,21.7669941 8.80344624,21.7669941 C8.46462613,21.7669941 8.24885503,22.0262325 8.24885503,22.3758081 L8.24885503,22.3758081 Z M9.6,22.3853497 C9.6,22.8578115 9.23136081,23.2 8.79698907,23.2 C8.3646488,23.2 8,22.8714313 8,22.3968919 C8,21.9568253 8.35993289,21.5890899 8.81846461,21.6002474 C9.27706888,21.5977851 9.6,21.9685214 9.6,22.3853497 Z" id="path9842" fill="#111F2A"></path>
                    <path d="M10.0772251,23.043839 C10.0772251,23.1123019 10.0754971,23.1592902 10.1568642,23.1964409 L10.1568642,23.2 L9.85401182,23.2 L9.85401182,23.1964409 C9.93049997,23.1738465 9.92125024,23.0856286 9.92125024,23.0317221 L9.92125024,22.4948963 L9.78672257,22.4948963 C9.72090719,22.4948963 9.65209326,22.5083329 9.60472651,22.5434441 L9.6,22.5434441 L9.65361794,22.4 L9.65814116,22.4 C9.67648815,22.4059985 9.69666476,22.4059985 9.71618067,22.4082779 L10.3247824,22.4082779 C10.3511086,22.4082779 10.3755543,22.4071582 10.3953243,22.4 L10.4,22.4 L10.3511086,22.5434441 L10.3464329,22.5434441 C10.3266629,22.5009348 10.2653707,22.4948963 10.2147513,22.4948963 L10.0772251,22.4948963 L10.0772251,23.043839" id="path9844" fill="#111F2A"></path>
                    <path d="M10.8691439,22.9372993 C11.0394567,22.9372993 11.2828229,22.8924514 11.2828229,22.7262583 C11.2828229,22.5864622 11.1152093,22.5137359 10.9580444,22.5257896 L10.7824202,22.5399981 L10.7824202,22.9371646 L10.8691439,22.9372993 L10.8691439,22.9372993 Z M11.0103746,23.5873244 C11.2250071,23.6035531 11.4430353,23.5262477 11.4430353,23.3344658 C11.4430353,23.1372967 11.1964475,23.0525166 10.9659679,23.0627522 L10.7823331,23.0706982 L10.7823331,23.5710956 L11.0103746,23.5873244 Z M10.5153704,22.6837 C10.5153704,22.5925227 10.5333943,22.4447806 10.4000871,22.4063299 L10.4000871,22.4 L11.0208233,22.4 C11.3664991,22.4 11.5686802,22.5137359 11.5686802,22.6943395 C11.5686802,22.829624 11.455922,22.9067946 11.3067677,22.956895 C11.5421233,22.9956824 11.7333333,23.1174316 11.7333333,23.3156108 C11.7333333,23.4715683 11.5944535,23.6053713 11.4188293,23.6705556 C11.235804,23.7395109 11.0288339,23.733181 10.8321383,23.733181 L10.4,23.733181 L10.4,23.7271878 C10.5307821,23.6891412 10.5152833,23.540591 10.5152833,23.4479323 L10.5153704,22.6837 L10.5153704,22.6837 Z" id="path9846" fill="#111F2A"></path>
                    <path d="M11.9651623,22.5725427 L11.7433047,23.083234 L12.1853786,23.083234 L11.9651623,22.5725427 L11.9651623,22.5725427 Z M11.6848191,23.2328114 L11.5681462,23.5184968 C11.5209996,23.6319763 11.50511,23.6911068 11.6130548,23.7273395 L11.6130548,23.7333333 L11.2,23.7333333 L11.2,23.7273395 C11.3300261,23.6685456 11.3684446,23.5547294 11.41768,23.439701 L11.7925401,22.5947671 C11.8240209,22.5216958 11.8663931,22.4367714 11.7586721,22.4063306 L11.7586721,22.4 L12.1135397,22.4 L12.5802313,23.439701 C12.632003,23.5546621 12.6727341,23.6684783 12.8,23.7273395 L12.8,23.7333333 L12.3399478,23.7333333 L12.3399478,23.7273395 C12.4499814,23.6828232 12.432003,23.6605987 12.3716524,23.5184968 L12.2502051,23.2328114 L11.6848191,23.2328114 Z" id="path9848" fill="#111F2A"></path>
                    <path d="M13.2886145,23.112476 C13.4060589,23.1174462 13.508112,23.089403 13.5947164,23.0385291 L13.6,23.0385291 L13.50972,23.2 L12.8,23.2 L12.8,23.1964037 C12.8878679,23.1746641 12.8775879,23.0844328 12.8775879,23.0299626 L12.8775879,22.5716133 C12.8775879,22.5154864 12.8878679,22.4268714 12.8,22.4038388 L12.8,22.4 L13.1297057,22.4 L13.1297057,22.4038792 C13.0418378,22.4269118 13.0537258,22.5169411 13.0537258,22.5716537 L13.0537258,23.1016466 L13.2886145,23.112476" id="path9850" fill="#FFFFFF"></path>
                    <path d="M14.089007,23.112476 C14.2061894,23.1174462 14.3085517,23.089403 14.3947153,23.0385291 L14.4,23.0385291 L14.3101601,23.2 L13.6,23.2 L13.6,23.1964037 C13.6877145,23.1746641 13.6773174,23.0844328 13.6773174,23.0299626 L13.6773174,22.5716133 C13.6773174,22.5154864 13.687772,22.4268714 13.6,22.4038388 L13.6,22.4 L13.9300639,22.4 L13.9300639,22.4038792 C13.8415452,22.4269118 13.8537804,22.5169411 13.8537804,22.5716537 L13.8537804,23.1016466 L14.089007,23.112476" id="path9852" fill="#FFFFFF"></path>
                    <path d="M16.7300785,21.9247013 C16.6546944,21.8436224 16.5670195,21.7922929 16.4766587,21.7922929 C16.2877888,21.7922929 16.1563218,22.0268979 16.1563218,22.3633141 C16.1563218,22.7036609 16.2932514,23.007553 16.5040173,23.007553 C16.6068055,23.007553 16.7092295,22.9446628 16.7960851,22.8618112 L16.8,22.8618112 L16.7300785,23.1309441 C16.6653921,23.1814258 16.5944691,23.2 16.5232275,23.2 C16.2000683,23.2 16,22.8941811 16,22.3983044 C16,21.917842 16.2001138,21.6 16.4809377,21.6 C16.5644702,21.6 16.6489132,21.6258189 16.7300785,21.6581888 L16.7300785,21.9247013" id="path9854" fill="#FFFFFF"></path>
                    <path d="M18.0893293,23.112476 C18.2068074,23.1174462 18.3085452,23.089403 18.3950022,23.0385291 L18.4,23.0385291 L18.3103835,23.2 L17.6,23.2 L17.6,23.1964037 C17.6882378,23.1746641 17.6777826,23.0844328 17.6777826,23.0299626 L17.6777826,22.5716133 C17.6777826,22.5154864 17.6882953,22.4268714 17.6,22.4038388 L17.6,22.4 L17.9297429,22.4 L17.9297429,22.4038792 C17.8420796,22.4269118 17.8540859,22.5169411 17.8540859,22.5716537 L17.8540859,23.1016466 L18.0893293,23.112476" id="path9856" fill="#FFFFFF"></path>
                    <path d="M19.0099839,23.1026382 C18.9531723,23.1715173 18.8473215,23.2 18.7568009,23.2 C18.6716479,23.2 18.5811272,23.1752651 18.5227697,23.1171951 C18.4544069,23.048316 18.4570692,22.9686276 18.4570692,22.8834163 L18.4570692,22.5662015 C18.4570692,22.5127866 18.4659581,22.426234 18.4,22.4037083 L18.4,22.4 L18.64584,22.4 L18.64584,22.4037477 C18.5812131,22.4262735 18.5890284,22.5128261 18.5890284,22.5662409 L18.5890284,22.8834558 C18.5890284,23.0410967 18.6613849,23.114552 18.7944605,23.114552 C18.8668599,23.114552 18.9404616,23.0872134 18.9830166,23.0315499 C19.0114439,22.9960057 19.0100268,22.9664185 19.0100268,22.9236156 L19.0100268,22.5662015 C19.0100268,22.5127866 19.0181428,22.426234 18.9532152,22.4037083 L18.9532152,22.4 L19.1987976,22.4 L19.2,22.4037477 C19.1342566,22.4262735 19.1419002,22.5128261 19.1419002,22.5675428 L19.1419002,23.0150205 C19.1419002,23.0682381 19.1342136,23.1551852 19.2,23.1775137 L19.2,23.1810247 L19.0100268,23.1810247 L19.0100268,23.1026382" id="path9858" fill="#FFFFFF"></path>
                    <path d="M20.4682685,22.9372993 C20.6390703,22.9372993 20.8829111,22.8924514 20.8829111,22.7262583 C20.8829111,22.5864622 20.7153304,22.5137359 20.5577609,22.5257896 L20.3821711,22.5399981 L20.3821711,22.9371646 L20.4682685,22.9372993 L20.4682685,22.9372993 Z M20.610081,23.5873244 C20.8249325,23.6035531 21.0423958,23.5262477 21.0423958,23.3344658 C21.0423958,23.1372967 20.7966397,23.0525166 20.5661182,23.0627522 L20.3820841,23.0706982 L20.3820841,23.5710956 L20.610081,23.5873244 Z M20.1151737,22.6837 C20.1151737,22.5925227 20.133194,22.4447806 20,22.4063299 L20,22.4 L20.6206146,22.4 C20.9668321,22.4 21.1681901,22.5137359 21.1681901,22.6943395 C21.1681901,22.829624 21.0556281,22.9067946 20.9063289,22.956895 C21.1418995,22.9956824 21.3333333,23.1174316 21.3333333,23.3156108 C21.3333333,23.4715683 21.1947419,23.6053713 21.0186298,23.6705556 C20.8354662,23.7395109 20.6287107,23.733181 20.4321407,23.733181 L20.0000871,23.733181 L20.0000871,23.7271878 C20.1314529,23.6891412 20.1152607,23.540591 20.1152607,23.4479323 L20.1151737,22.6837 L20.1151737,22.6837 Z" id="path9860" fill="#FFFFFF"></path>
                    <path d="M10.4001099,24.9987083 C10.6664468,24.9634583 10.9032152,24.891 11.0407255,24.8 L11.0492993,24.8 L11.0492993,25.4400417 C11.0492993,25.504875 11.0378675,25.5570833 11.2,25.5969583 L11.2,25.6 L10.5707062,25.6 L10.5707062,25.5969583 C10.7564716,25.5624583 10.747568,25.5092917 10.747568,25.4400417 L10.747568,25.0019167 L10.4,25.0019167 L10.4001099,24.9987083" id="path9862" fill="#111F2A"></path>
                    <path d="M12.1738418,25.5286848 C12.4198305,25.4905513 12.6446328,25.3221881 12.6446328,25.1284309 C12.6446328,25.010729 12.5568927,24.8818961 12.3797175,24.8818961 C12.2474011,24.8818961 12.1550847,24.9588403 12.1550847,25.0559729 C12.1550847,25.1606814 12.2474011,25.2435509 12.3894915,25.2435509 C12.4461017,25.2435509 12.5031638,25.2288647 12.5523164,25.2068141 L12.4476836,25.30255 C12.4076836,25.3141043 12.3661017,25.319818 12.3231073,25.319818 C12.1427119,25.319818 12,25.2193842 12,25.080182 C12,24.9119881 12.1828814,24.8 12.399774,24.8 C12.6416384,24.8 12.8,24.9418686 12.8,25.1159454 C12.8,25.2485451 12.7064407,25.3764469 12.569096,25.4583854 C12.4287006,25.5410433 12.2722034,25.582732 12.0964407,25.6 L12.1738418,25.5286848" id="path9864" fill="#111F2A"></path>
                    <path d="M13.8683995,25.4515176 C13.8683995,25.6460788 13.9511683,25.9823391 14.2750541,25.9823391 C14.523637,25.9823391 14.6648417,25.7469072 14.6648417,25.4740816 C14.6648417,25.1980629 14.5139592,24.9547549 14.2601226,24.9502847 C13.9435181,24.9504976 13.8683995,25.2636972 13.8683995,25.4515176 L13.8683995,25.4515176 Z M13.6,25.4706047 C13.6,25.1133415 13.8283055,24.8 14.2698005,24.8 C14.7347067,24.8 14.9333333,25.1458393 14.9333333,25.4591808 C14.9333333,25.7740833 14.7319416,26.1333333 14.2603069,26.1333333 C13.8663717,26.1297146 13.6,25.8279389 13.6,25.4706047 Z" id="path9866" fill="#FFFFFF"></path>
                    <path d="M15.2001101,24.9987083 C15.4665566,24.9634583 15.7037159,24.891 15.841123,24.8 L15.8507019,24.8 L15.8507019,25.4400417 C15.8507019,25.504875 15.8388109,25.5570833 16,25.5969583 L16,25.6 L15.3709882,25.6 L15.3709882,25.5969583 C15.5573906,25.5624583 15.5478117,25.5092917 15.5478117,25.4400417 L15.5478117,25.0019167 L15.2,25.0019167 L15.2,24.9987083" id="path9868" fill="#FFFFFF"></path>
                    <path d="M16.4897849,4 L12.8,4 L12.8,7.01225492 C13.5135784,7.05290932 14.8793309,7.63012304 14.8793309,8.33662002 C14.8793309,9.043117 13.5135207,9.62061226 12.8,9.66126667 L12.8,16.8 L16.3943873,16.8 L20,13.2095178 L20,7.47392454 L16.4897849,4 Z" id="path9874" fill="#FFFFFF"></path>
                    <path d="M12.9497391,6.51873254 L12.9870531,6.06099987 C12.9870531,6.06099987 13.7248199,6.02630114 14.3751585,6.52376134 C14.3751585,6.52376134 14.8997283,5.10044294 15.6376159,4.8 C15.6376159,4.8 15.6874283,4.98478051 15.7369992,4.99668201 C15.7874757,5.007913 15.9621512,4.82285311 16.0126278,4.83469873 C16.0621383,4.84626497 15.9499547,5.47100972 17.5124337,6.01473489 L17.4250054,6.39653266 C17.4250054,6.39653266 15.5124509,6.25740249 15.5124509,7.31015411 C15.5124509,7.78448182 16.250097,8.6058527 16.3745375,8.75626974 C16.5002458,8.9066309 17.29978,9.50824316 17.4122051,11.1162862 C17.4122051,11.1162862 17.7000906,10.9193248 17.7000906,10.4105777 C17.7000906,9.9015513 17.3752534,8.88349841 17.3752534,8.51326689 C17.3752534,8.14303536 17.3122181,7.14845021 18.4,7.14845021 L18.4,7.6571414 C18.4,7.6571414 18.031509,7.64741905 17.9873119,8.09677039 C17.9502997,8.47856816 18.4875491,10.1560086 18.2375814,10.7923196 C18.032294,11.3150915 17.9250011,11.5208812 17.5251132,11.8100931 C17.1251046,12.0993051 15.8497865,13.0363943 17.0748695,13.869052 L15.9374563,15.7779291 C15.9374563,15.7779291 15.2748609,15.9977436 15.2250485,15.9977436 C15.1748739,15.9977436 15.0372709,16.0212114 15.1371976,15.9167799 C15.2373658,15.8129631 16.1124941,15.0609897 16.1124941,14.2396188 C16.1124941,13.4181921 14.8250399,13.1633995 14.8250399,11.9258115 C14.8250399,11.1044406 15.6001208,10.6069245 15.6001208,10.6069245 C15.6001208,10.6069245 15.4625178,10.3061463 15.325096,10.2023295 C15.1872515,10.0978981 14.4248501,9.68140155 14.3126666,9.42688833 C14.3126666,9.42688833 13.5622202,9.99380187 12.9623582,10.02878 C12.9623582,10.02878 12.8124984,9.78583299 12.8,9.61228347 C12.8,9.61228347 14.2991418,9.43499029 14.27016,7.9832871 C14.2455255,6.76575843 12.9497391,6.51873254 12.9497391,6.51873254" id="path9876" fill="#0B202F"></path>
                    <path d="M12.6497811,6.51873254 L12.6124679,6.06099987 C12.6124679,6.06099987 11.8752604,6.02630114 11.2246943,6.52376134 C11.2246943,6.52376134 10.7000151,5.10044294 9.96262642,4.8 C9.96262642,4.8 9.91245283,4.98478051 9.86227925,4.99668201 C9.81240755,5.007913 9.63743396,4.82285311 9.58756226,4.83469873 C9.53738868,4.84626497 9.64993208,5.47100972 8.08742642,6.01473489 L8.17497358,6.39653266 C8.17497358,6.39653266 10.0876075,6.25740249 10.0876075,7.31015411 C10.0876075,7.78448182 9.3498566,8.6058527 9.22499623,8.75626974 C9.09983396,8.9066309 8.29995472,9.50824316 8.18741132,11.1162862 C8.18741132,11.1162862 7.89989434,10.9193248 7.89989434,10.4105777 C7.89989434,9.9015513 8.22472453,8.88349841 8.22472453,8.51326689 C8.22472453,8.14303536 8.28739623,7.14845021 7.2,7.14845021 L7.2,7.6571414 C7.2,7.6571414 7.56812075,7.64741905 7.61237736,8.09677039 C7.64975094,8.47856816 7.11251321,10.1560086 7.36235472,10.7923196 C7.56775849,11.3150915 7.67474717,11.5208812 8.0749283,11.8100931 C8.4749283,12.0993051 9.74991698,13.0363943 8.52516226,13.869052 L9.66243019,15.7779291 C9.66243019,15.7779291 10.3249509,15.9977436 10.3750038,15.9977436 C10.4248151,15.9977436 10.5626566,16.0212114 10.4626717,15.9167799 C10.3626264,15.8129631 9.48727547,15.0609897 9.48727547,14.2396188 C9.48727547,13.4181921 10.7750642,13.1633995 10.7750642,11.9258115 C10.7750642,11.1044406 10,10.6069245 10,10.6069245 C10,10.6069245 10.1374792,10.3061463 10.2752,10.2023295 C10.4125585,10.0978981 11.1749434,9.68140155 11.2874264,9.42688833 C11.2874264,9.42688833 12.0374943,9.99380187 12.6373434,10.02878 C12.6373434,10.02878 12.7875019,9.78583299 12.8,9.61228347 C12.8,9.61228347 11.3008906,9.43499029 11.3299321,7.9832871 C11.3544453,6.76575843 12.6497811,6.51873254 12.6497811,6.51873254" id="path9878" fill="#FFFFFF"></path>
                    <path d="M11.2,14.4027382 L12.1518633,15.8955709 L12.7243807,16 C12.7243807,16 12.8208915,16 12.7656639,15.9107134 C12.7104364,15.8208319 12.0690969,15.0146568 12.0070221,14.8130995 C11.9448974,14.6115422 11.7999063,14.4399454 12.0551026,14.0589496 C12.3102989,13.6785488 12.8,13.3202127 12.8,12.558816 C12.8,11.7974194 12.1999438,11.1839865 11.4136632,11.2003187 C11.0619561,11.2082145 11.3456908,11.4378935 11.3789773,11.4841863 C11.4551963,11.5886153 11.6687096,11.9096901 11.7171399,12.3951149 C11.7701684,12.929212 11.5238684,13.2530449 11.5238684,13.2978234 C11.5238684,13.4249121 11.7033955,13.4473555 11.7033955,13.7681058 C11.7033955,14.1415844 11.2,14.4027382 11.2,14.4027382" id="path9880" fill="#FFFFFF"></path>
                    <path d="M15.2,14.4027382 L14.2484744,15.8955709 L13.6758003,16 C13.6758003,16 13.5793136,16 13.6346273,15.9107134 C13.6895912,15.8208319 14.3312201,15.0146568 14.3933793,14.8130995 C14.4552887,14.6115422 14.6001437,14.4399454 14.3450111,14.0589496 C14.0899785,13.6785488 13.6,13.3202127 13.6,12.558816 C13.6,11.7974194 14.2001561,11.1839865 14.9864401,11.2003187 C15.3380094,11.2082145 15.0541957,11.4378935 15.0211174,11.4841863 C14.9449174,11.5886153 14.7312576,11.9096901 14.6828894,12.3951149 C14.6296743,12.929212 14.8761126,13.2530449 14.8761126,13.2978234 C14.8761126,13.4249121 14.6965804,13.4473555 14.6965804,13.7681058 C14.6965304,14.1415844 15.2,14.4027382 15.2,14.4027382" id="path9882" fill="#0B202F"></path>
                </g>
            </g>
        </g>
    </g>
</svg>