<?xml version="1.0" encoding="UTF-8"?>
<svg width="164px" height="24px" viewBox="0 0 164 24" version="1.1" xmlns="http://www.w3.org/2000/svg" xmlns:xlink="http://www.w3.org/1999/xlink">
    <!-- Generator: Sketch 59.1 (86144) - https://sketch.com -->
    <title>Stade de france - Logo - Blanc</title>
    <desc>Created with Sketch.</desc>
    <g id="Design" stroke="none" stroke-width="1" fill="none" fill-rule="evenodd">
        <g id="Tablet" transform="translate(-352.000000, -809.000000)" fill="#FFFFFF" fill-rule="nonzero">
            <g id="Stade-de-france---Logo---Blanc" transform="translate(352.000000, 809.000000)">
                <path d="M160.659914,20.5720578 C160.659914,20.3204124 160.451338,20.3156077 160.349637,20.3156077 L160.085534,20.3156077 L160.085534,20.8745527 L160.321774,20.8745527 C160.423674,20.8745527 160.659914,20.8745527 160.659914,20.5720578 Z M159.594942,19.9754761 L160.428052,19.9754761 C160.807987,19.9754761 161.150705,20.1340307 161.150705,20.5344211 C161.150705,20.6977803 161.095177,20.8931708 160.831273,21.0144891 C160.974768,21.0749481 161.095177,21.1730437 161.113488,21.4755386 C161.136773,21.820475 161.136773,21.8579115 161.17399,21.9602112 L160.696932,21.9602112 C160.659914,21.8905433 160.641206,21.5502114 160.632051,21.4849478 C160.61792,21.3730387 160.590256,21.1960662 160.280178,21.1960662 L160.085534,21.1960662 L160.085534,21.9602112 L159.594942,21.9602112 L159.594942,19.9754761 Z M160.358593,22.4170566 C161.118065,22.4170566 161.743594,21.7878432 161.743594,20.986662 C161.743594,20.2177123 161.146525,19.5562674 160.36337,19.5562674 L160.358593,19.5562674 C159.576234,19.5562674 158.969413,20.2038988 158.969413,20.986662 C158.969413,21.778434 159.599122,22.4170566 160.358593,22.4170566 Z M160.36337,19.1975176 L160.367947,19.1975176 C161.345349,19.1975176 162.123529,20.0221216 162.123529,20.986662 C162.123529,21.9742249 161.326641,22.7756062 160.354016,22.7756062 C159.376813,22.7756062 158.580323,21.9694202 158.580323,20.986662 C158.580323,20.026726 159.34895,19.1975176 160.36337,19.1975176 Z M150.552134,14.9063337 L146.095014,14.9063337 C145.722244,15.718926 144.230964,18.8125422 140.564961,18.8125422 C136.743919,18.8125422 134.584718,15.4374515 134.584718,11.9376392 C134.584718,8.65623984 136.588681,5.18745776 140.533914,5.18745776 C143.702956,5.18745776 145.442616,7.5001126 146.095014,9.21858812 L150.552134,9.21858812 L150.552134,14.9063337 Z M105.3566,15.5349466 L110.952928,7.63204124 L111.006067,15.5349466 L105.3566,15.5349466 Z M90.0063552,12.0627612 L87.9247736,12.0627612 L87.9247736,5.62508444 L90.0686496,5.62508444 C92.3363172,5.62508444 93.8584452,6.65649008 93.8584452,8.7499312 C93.8584452,9.87482796 93.4548264,12.0627612 90.0063552,12.0627612 Z M68.6935804,18.3751157 L61.5482572,18.3751157 L61.5482572,14.825655 L66.0517492,14.825655 L66.0517492,9.25121992 L61.5482572,9.25121992 L61.5482572,5.62508444 L68.6935804,5.62508444 L68.6935804,18.3751157 Z M46.0220756,18.3751157 L43.5257304,18.3751157 L43.5257304,5.62508444 L46.0531232,5.62508444 C48.662912,5.62508444 49.843516,6.71895096 50.5269612,7.7501564 C51.3654448,9.06263608 51.6452712,10.7188509 51.6452712,12.0311304 C51.6452712,15.3125297 50.4027708,18.3751157 46.0220756,18.3751157 Z M37.6143496,15.5349466 L31.9605046,15.5349466 L37.6455963,7.63204124 L37.6143496,15.5349466 Z M163.118644,5.62508444 L163.118644,0.437626688 L150.552134,0.437626688 L150.552134,5.23450364 C148.694851,2.49663422 145.379924,0 140.564961,0 C135.903444,0 132.389694,2.33167338 130.391901,5.5109732 L130.391901,0.437626688 L125.053905,0.437626688 L125.017086,14.9063337 L124.954991,14.9689948 L116.076178,0.447636444 L110.00518,0.447636444 L95.822404,18.2888316 L93.7653024,15.6874953 C98.1145516,14.9689948 99.4818396,11.0627862 99.4818396,8.40619604 C99.4818396,6.03128048 98.549616,3.59390406 96.654718,2.0938415 C95.1634388,0.937514076 93.6102636,0.437626688 89.5712908,0.437626688 L55.9254596,0.437626688 L55.9254596,5.54300444 C55.7654452,5.27514328 55.5930912,5.01048524 55.4044176,4.75003128 C52.422058,0.437626688 47.8238308,0.437626688 45.245488,0.437626688 L36.6090846,0.447636444 L23.8071298,16.4368259 L23.8071298,7.2098296 L28.3118162,7.2098296 L28.3118162,0.44783664 L13.3998198,0.44783664 L13.3998198,1.52208403 C11.9618787,0.494882512 10.1213141,0 8.38782384,0 C4.53573392,0 0.341523448,2.46880709 0.341523448,6.81264232 C0.341523448,11.1564776 4.34924936,12.7812617 5.96471896,13.4375016 C9.50633304,14.9375641 10.4694053,15.3125297 10.4694053,16.8440229 C10.4694053,17.9062586 9.6307224,19.062586 8.23258592,19.062586 C7.4870458,19.062586 5.8403296,18.5937289 5.8403296,15.9063086 L0,15.9063086 L0,16.65644 C0,19.6249343 1.64631816,24 8.29468108,24 C14.3837894,24 16.3101329,20.2813743 16.3101329,16.9064838 C16.3101329,14.2186632 15.2226713,12.218513 10.9355171,10.2812242 C6.80360084,8.40619604 6.18225108,8.1249218 6.18225108,6.74998124 C6.18225108,5.65611472 7.17637092,4.93781436 8.20173736,4.93781436 C10.0034924,4.93781436 10.189778,6.40644628 10.3139683,7.18740772 L13.3998198,7.18740772 L13.3998198,7.2098296 L17.9353546,7.2098296 L17.9353546,23.5727835 L25.9102058,23.5625735 L28.4638697,20.2203148 L37.6340529,20.2203148 L37.6340529,23.5625735 L45.6803532,23.5625735 C50.983122,23.5625735 54.2080904,21.6002602 55.9254596,18.6469808 L55.9254596,23.5625735 L74.316776,23.5625735 L74.316776,14.825655 L79.5815312,14.825655 L79.5815312,9.25121992 L74.316776,9.25121992 L74.316776,5.62508444 L82.3015784,5.62508444 L82.3015784,23.5625735 L87.9247736,23.5625735 L87.9247736,16.0940917 L87.987068,16.0940917 L93.2993896,23.5625735 L93.3304372,23.5565676 L93.3304372,23.5625735 L99.3063016,23.5625735 L101.859766,20.2203148 L111.006067,20.2203148 L111.006067,23.5625735 L116.478403,23.5625735 L116.474024,9.5310928 L116.53592,9.50006256 L125.296714,23.5625735 L130.391901,23.5625735 L130.391901,18.4359751 C132.454177,21.7009584 136.083162,24 140.627255,24 C144.738672,24 148.387162,22.0146643 150.552134,18.7715022 L150.552134,23.5625735 L163.118644,23.5625735 L163.118644,18.3751157 L155.973122,18.3751157 L155.973122,14.8126423 L162.901112,14.8126423 L162.901112,9.21858812 L155.973122,9.21858812 L155.973122,5.62508444 L163.118644,5.62508444 L163.118644,5.62508444 Z" id="Fill-1"></path>
            </g>
        </g>
    </g>
</svg>