<?xml version="1.0" encoding="UTF-8"?>
<svg width="28px" height="32px" viewBox="0 0 28 32" version="1.1" xmlns="http://www.w3.org/2000/svg" xmlns:xlink="http://www.w3.org/1999/xlink">
    <!-- Generator: Sketch 59.1 (86144) - https://sketch.com -->
    <title>stade_toulousain</title>
    <desc>Created with Sketch.</desc>
    <g id="Design" stroke="none" stroke-width="1" fill="none" fill-rule="evenodd">
        <g id="Tablet" transform="translate(-603.000000, -744.000000)" fill="#FFFFFF" fill-rule="nonzero">
            <g id="logos-reassurance" transform="translate(0.000000, 720.000000)">
                <path d="M616.723103,24 L616.77027,24.0037484 L616.888185,24.0093748 L616.921202,24.0112528 L616.954217,24.0168792 L626.948739,26.1335797 L627.257678,26.1969639 L627.257678,26.5087261 C627.257678,29.8255929 628.064219,31.771176 628.913211,33.8316187 C629.755127,35.8667326 630.625344,37.9764012 630.625344,41.4456329 C630.625344,48.3676894 625.720058,51.3048164 625.498378,51.4313967 L625.498378,51.4313967 L617.057984,55.9484305 L616.96365,56 L616.855169,55.9962533 L616.734801,55.990631 L616.645185,55.9868843 L616.569719,55.9469416 C616.569719,55.9469416 608.138759,51.4299066 608.115175,51.4205306 C607.905286,51.3009822 603,48.3661999 603,41.4394551 C603,37.9749122 603.870217,35.8628984 604.712134,33.8235524 C605.563484,31.7654544 606.367668,29.8175277 606.367668,26.5006598 L606.367668,26.5006598 L606.367668,26.1888976 L606.674248,26.1232636 L616.673484,24.0112514 L616.723103,24 Z M620.871781,28.8481506 L620.488323,29.1037898 C619.76845,29.5087999 618.961698,29.7792434 618.243509,29.9370717 C617.864241,30.0187961 617.519902,30.0744011 617.264998,30.109829 C617.016177,30.1444113 616.841444,30.159933 616.83928,30.1602724 C616.835607,30.1598457 616.663742,30.1444259 616.415347,30.109829 C616.160938,30.0743946 615.81672,30.0188022 615.437281,29.9370717 C614.678406,29.7736108 613.776428,29.4972772 613.191437,29.1040869 C613.061756,29.0188656 612.932123,28.9335679 612.802475,28.8481506 L612.627039,29.0235832 L612.474668,29.175806 L612.208281,29.3755599 C611.987396,29.5387352 611.767216,29.6817117 611.532312,29.7146128 L611.046175,29.7604434 L611.046175,29.7604434 L611.030699,30.2621984 C610.985381,30.6226214 610.935924,30.9518377 610.805411,31.2179438 C610.65659,31.5120109 610.415143,31.7827478 610.004865,31.9664105 C610.008064,31.9198701 610.014623,31.8838967 610.014239,31.8324896 C610.012462,31.5944447 609.972748,31.2822962 609.760088,31.0163192 C609.540397,30.7395624 609.183839,30.6135164 608.786041,30.6135164 C608.428091,30.6135164 608.09967,30.7462988 607.88178,30.9962312 L607.881034,30.9972726 L607.880141,30.9981655 C607.602549,31.3220226 607.533612,31.730799 607.512604,32.0568812 C607.5021,32.2199219 607.506161,32.364697 607.512901,32.4729266 C607.516989,32.5378644 607.523015,32.5963881 607.526964,32.6310828 L607.53,32.654 L607.528,32.633 L607.530116,32.6477705 C607.530579,32.6534601 607.531107,32.6596604 607.53165,32.6656234 C607.531307,32.7545125 607.532706,33.5507541 608.122388,34.1381529 C608.483946,34.499711 608.99561,34.6780003 609.580781,34.6780003 C610.617041,34.6780003 611.385222,33.9656605 611.888824,33.2879069 C612.3326,32.6906687 612.559726,32.157333 612.631189,31.9823318 L615.174216,31.9823318 L615.174,34.354 L611.608993,34.354292 L611.542926,34.3943246 C610.823806,34.87413 609.775282,35.6544335 608.894873,36.4813994 L608.892344,36.4813994 L608.770625,36.5999933 L608.770625,36.5999933 C608.735824,36.6334861 608.701502,36.6669934 608.667358,36.7005822 C608.450251,36.9149287 608.245995,37.1304294 608.065013,37.3435486 C607.60285,37.8868236 607.285673,38.4127084 607.255539,38.8492608 L607.253158,38.898662 L607.269675,38.9458316 C607.336876,39.1531554 607.79409,40.3371729 609.5676,41.3279779 C609.577565,41.3335623 609.587758,41.3390744 609.597807,41.3446435 C609.679902,41.3900244 609.764787,41.4348841 609.852553,41.4793081 C609.894677,41.5006889 609.936612,41.5221733 609.980075,41.543292 C610.021406,41.563322 610.063848,41.5830396 610.106407,41.6028121 C610.128925,41.6133022 610.150501,41.6239453 610.173367,41.6343584 L610.174706,41.6335966 C611.296245,42.1431189 612.834056,42.5594623 614.943611,42.6932042 C614.945019,42.6932042 615.02993,42.6957275 615.173381,42.7000208 L615.173822,46.6061277 C615.087946,46.5864612 615.021395,46.5680501 615.021395,46.5680501 C612.7527,45.9737557 611.101844,44.219133 610.009945,43.0541277 C609.172745,42.1674032 608.743539,41.747697 608.403942,41.735905 C607.587967,41.7170391 607.26967,42.4268174 607.210712,42.8513126 C607.064497,43.8441617 608.703509,44.6247814 608.722375,44.631859 C608.755392,44.648367 608.790737,44.6649008 608.82847,44.6814095 C608.804887,44.7450834 608.788443,44.7968783 608.788443,44.7968783 C608.687035,45.0893084 608.682186,45.7378258 609.30478,46.3391947 C610.118397,47.1221541 611.387291,47.0208308 611.439174,47.018469 C611.439174,47.018469 611.462657,47.0137074 611.490957,47.0137074 L611.535745,47.04436 C612.330496,47.7070456 614.162977,48.1009575 614.91292,48.2377393 L615.174,48.292 L615.174216,49.5620484 L614.395517,50.595052 L614.439565,52.218744 L615.138034,52.0288745 L615.139223,52.0285697 C615.542792,51.9152067 616.164778,51.7779892 616.818436,51.7779892 L616.860844,51.7779892 C617.512001,51.7779892 618.136774,51.9152875 618.540057,52.0285697 L618.541101,52.0288745 L619.234511,52.218744 L619.289121,50.595052 L618.50506,49.5620484 L618.505,48.474 L618.749926,48.4522313 C620.150763,48.2824329 623.688222,47.5230957 626.221048,44.1978779 L626.327142,44.0563689 L626.230422,43.9031043 C625.775268,43.1838195 624.02774,40.7829979 620.69073,40.1839868 L620.669601,40.1816098 L618.505,40.181 L618.504738,36.1563166 C618.979953,36.4313571 619.631841,36.8082225 620.331041,37.1997235 L620.326729,37.199114 C620.410077,37.2458479 620.496506,37.293138 620.581177,37.3401766 C620.664705,37.3865403 620.745852,37.4317063 620.830269,37.4781149 C620.907069,37.5203523 620.982927,37.5618042 621.060166,37.6038512 C621.210576,37.6857342 621.360751,37.7664782 621.51118,37.8465449 C621.550746,37.8675897 621.590151,37.8890825 621.629625,37.9099338 C621.828073,38.0148432 622.023948,38.1161155 622.21709,38.2140821 C622.311403,38.2618613 622.404663,38.3085997 622.496834,38.3541032 C622.574852,38.3926693 622.650931,38.4293352 622.727029,38.4660012 L622.913475,38.5548346 L622.913475,38.5548346 C622.982146,38.5871206 623.049649,38.6184459 623.116142,38.6487275 C623.171076,38.6737226 623.223868,38.6969371 623.277144,38.7204496 C623.688572,38.9021543 624.050652,39.0400369 624.322467,39.104206 C624.331036,39.1062478 624.339072,39.1079619 624.347465,39.109859 C624.384454,39.1181457 624.419802,39.1251121 624.453262,39.1305419 L624.507277,39.1385772 L624.507277,39.1385772 C624.521465,39.1402914 624.535372,39.1417922 624.548793,39.1428893 C624.575023,39.1451139 624.600019,39.1463634 624.623193,39.1461653 L624.631525,39.1464701 C624.702978,39.1446949 624.772007,39.1377186 624.838805,39.1262328 C624.905453,39.1147729 624.969894,39.0987404 625.031947,39.0787652 C625.062935,39.0687956 625.093312,39.0579063 625.123162,39.0460297 L625.123314,39.0458773 L625.16771,39.0274177 L625.16771,39.0274177 L625.211408,39.0074835 L625.254016,38.9864398 L625.254016,38.9864398 L625.29593,38.9640302 L625.336899,38.9405521 L625.336899,38.9405521 L625.377178,38.915816 C625.403629,38.8990734 625.429518,38.8816603 625.454853,38.8635875 L625.455005,38.8634352 L625.473307,38.8495968 L625.473307,38.8495968 C625.540482,38.800303 625.603814,38.7469265 625.663028,38.690232 L625.665637,38.6878541 L625.668392,38.685318 C625.712437,38.6428559 625.754323,38.598678 625.79398,38.5534808 L625.794132,38.5533284 C625.833782,38.5081296 625.871175,38.4618711 625.906476,38.415093 L625.906629,38.4149407 L626.006069,38.2735752 L626.006069,38.2735752 L626.092782,38.1325145 L626.13127,38.0633602 L626.13127,38.0633602 L626.166739,37.9954661 C626.189212,37.950889 626.209463,37.9075507 626.227748,37.8660104 L626.227901,37.865858 L626.25371,37.80499 L626.25371,37.80499 L626.276562,37.7471118 C626.290685,37.7097868 626.302701,37.6747863 626.312721,37.6428027 C626.332812,37.578671 626.344746,37.5264289 626.348581,37.4907282 L626.348581,37.4899663 L626.350813,37.4743421 L626.350813,37.4625867 C626.350813,36.6466114 625.978153,35.7786126 624.926347,35.7786126 C624.106292,35.7786126 623.686444,36.3169866 623.506344,36.8151565 C623.443618,36.9152152 623.41732,37.0521622 623.403375,37.2442968 C623.403222,37.2454396 623.40307,37.2467271 623.402917,37.2478699 C623.402917,37.2478699 623.394201,37.3344566 623.385062,37.4243475 L623.379553,37.4564888 L623.379553,37.4564888 L623.202332,37.3445908 C623.181152,37.3310945 623.160851,37.3171182 623.140133,37.3033728 C623.106468,37.2806976 623.072661,37.2581131 623.04014,37.2349244 C623.028329,37.2265653 623.016527,37.2182153 623.004874,37.209777 C622.952439,37.1716185 622.901195,37.1329748 622.851759,37.0935639 C622.845748,37.0887489 622.840018,37.0838159 622.834051,37.0789819 C622.797527,37.0495414 622.762403,37.019624 622.72751,36.9895527 C621.811185,36.1921249 621.47342,35.1549448 621.351106,34.5617247 L621.308698,34.354292 L618.505,34.354 L618.50506,31.9823227 L621.045858,31.9823227 C621.117748,32.158126 621.344889,32.6907792 621.788968,33.2880555 C622.292828,33.9657367 623.060849,34.6780003 624.096118,34.6780003 C624.68129,34.6780003 625.194646,34.5002496 625.556744,34.1381529 L625.557353,34.1376957 C626.120962,33.5714032 626.147269,32.8291205 626.148356,32.6744902 L626.148388,32.6331774 C626.154925,32.5899717 626.159832,32.5571478 626.165352,32.4739605 C626.172599,32.365273 626.176738,32.2203363 626.166396,32.0571707 C626.145706,31.7308402 626.076749,31.3220168 625.799156,30.9981579 L625.797671,30.9963721 L625.796033,30.9945863 C625.577505,30.7475559 625.251211,30.6135084 624.893261,30.6135084 C624.49719,30.6135084 624.13928,30.7383825 623.918618,31.0167576 C623.708202,31.2816923 623.666862,31.5915831 623.663723,31.8290589 C623.663037,31.8831181 623.669178,31.9188081 623.672055,31.9655092 C623.262244,31.7818382 623.021329,31.5115972 622.872997,31.2180846 C622.695115,30.8660962 622.652912,30.4832673 622.648755,30.2639762 C622.645288,30.0960289 622.641814,29.9280816 622.638339,29.7601344 L622.144768,29.7146015 C621.772452,29.6722527 621.384296,29.3617768 621.207028,29.1783247 L621.204346,29.1754974 C621.093501,29.066389 620.982598,28.957217 620.871781,28.8481506 Z M618.70975,42.8064415 C619.775707,42.9385073 620.587057,43.2285528 621.028061,43.6459734 C621.318134,43.9218963 621.461963,44.2426691 621.461963,44.6176405 C621.461963,45.0963777 621.292135,45.506726 620.959613,45.8345307 C620.339377,46.4500497 619.273504,46.6363834 618.691001,46.6953406 C618.691001,46.6953406 618.60885,46.7222893 618.506228,46.7483056 L618.508039,42.8003621 C618.635573,42.8042056 618.70975,42.8064415 618.70975,42.8064415 Z M615.174269,35.7261458 L615.174,40.181 L612.99001,40.1816098 C612.425953,40.1479639 611.328951,39.7207192 611.328951,38.3681786 C611.328951,37.7526596 611.701563,37.2715119 612.015219,36.9743651 L612.007481,36.9743651 C612.863278,36.1702914 613.852647,35.6545211 615.174269,35.7261458 Z" id="stade_toulousain"></path>
            </g>
        </g>
    </g>
</svg>