<?xml version="1.0" encoding="UTF-8"?>
<svg width="28px" height="32px" viewBox="0 0 28 32" version="1.1" xmlns="http://www.w3.org/2000/svg" xmlns:xlink="http://www.w3.org/1999/xlink">
    <!-- Generator: Sketch 59.1 (86144) - https://sketch.com -->
    <title>stade_toulousain</title>
    <desc>Created with Sketch.</desc>
    <g id="Design" stroke="none" stroke-width="1" fill="none" fill-rule="evenodd">
        <g id="Desktop" transform="translate(-910.000000, -744.000000)" fill="#FFFFFF" fill-rule="nonzero">
            <g id="Logos-reassurance" transform="translate(0.000000, 720.000000)">
                <path d="M923.723103,24 L923.77027,24.0037484 L923.888185,24.0093748 L923.921202,24.0112528 L923.954217,24.0168792 L933.948739,26.1335797 L934.257678,26.1969639 L934.257678,26.5087261 C934.257678,29.8255929 935.064219,31.771176 935.913211,33.8316187 C936.755127,35.8667326 937.625344,37.9764012 937.625344,41.4456329 C937.625344,48.3676894 932.720058,51.3048164 932.498378,51.4313967 L932.498378,51.4313967 L924.057984,55.9484305 L923.96365,56 L923.855169,55.9962533 L923.734801,55.990631 L923.645185,55.9868843 L923.569719,55.9469416 C923.569719,55.9469416 915.138759,51.4299066 915.115175,51.4205306 C914.905286,51.3009822 910,48.3661999 910,41.4394551 C910,37.9749122 910.870217,35.8628984 911.712134,33.8235524 C912.563484,31.7654544 913.367668,29.8175277 913.367668,26.5006598 L913.367668,26.5006598 L913.367668,26.1888976 L913.674248,26.1232636 L923.673484,24.0112514 L923.723103,24 Z M927.871781,28.8481506 L927.488323,29.1037898 C926.76845,29.5087999 925.961698,29.7792434 925.243509,29.9370717 C924.864241,30.0187961 924.519902,30.0744011 924.264998,30.109829 C924.016177,30.1444113 923.841444,30.159933 923.83928,30.1602724 C923.835607,30.1598457 923.663742,30.1444259 923.415347,30.109829 C923.160938,30.0743946 922.81672,30.0188022 922.437281,29.9370717 C921.678406,29.7736108 920.776428,29.4972772 920.191437,29.1040869 C920.061756,29.0188656 919.932123,28.9335679 919.802475,28.8481506 L919.627039,29.0235832 L919.474668,29.175806 L919.208281,29.3755599 C918.987396,29.5387352 918.767216,29.6817117 918.532312,29.7146128 L918.046175,29.7604434 L918.046175,29.7604434 L918.030699,30.2621984 C917.985381,30.6226214 917.935924,30.9518377 917.805411,31.2179438 C917.65659,31.5120109 917.415143,31.7827478 917.004865,31.9664105 C917.008064,31.9198701 917.014623,31.8838967 917.014239,31.8324896 C917.012462,31.5944447 916.972748,31.2822962 916.760088,31.0163192 C916.540397,30.7395624 916.183839,30.6135164 915.786041,30.6135164 C915.428091,30.6135164 915.09967,30.7462988 914.88178,30.9962312 L914.881034,30.9972726 L914.880141,30.9981655 C914.602549,31.3220226 914.533612,31.730799 914.512604,32.0568812 C914.5021,32.2199219 914.506161,32.364697 914.512901,32.4729266 C914.516989,32.5378644 914.523015,32.5963881 914.526964,32.6310828 L914.53,32.654 L914.528,32.633 L914.530116,32.6477705 C914.530579,32.6534601 914.531107,32.6596604 914.53165,32.6656234 C914.531307,32.7545125 914.532706,33.5507541 915.122388,34.1381529 C915.483946,34.499711 915.99561,34.6780003 916.580781,34.6780003 C917.617041,34.6780003 918.385222,33.9656605 918.888824,33.2879069 C919.3326,32.6906687 919.559726,32.157333 919.631189,31.9823318 L922.174216,31.9823318 L922.174216,49.5620484 L921.395517,50.595052 L921.439565,52.218744 L922.138034,52.0288745 L922.139223,52.0285697 C922.542792,51.9152067 923.164778,51.7779892 923.818436,51.7779892 L923.860844,51.7779892 C924.512001,51.7779892 925.136774,51.9152875 925.540057,52.0285697 L925.541101,52.0288745 L926.234511,52.218744 L926.289121,50.595052 L925.50506,49.5620484 L925.502758,48.2641068 C925.973329,48.5712409 926.698745,48.759094 927.027001,48.832028 L927.338045,48.9110295 L928.741278,49 L929.03073,48.9684782 C929.762263,48.8604601 931.609564,48.3774037 932.932235,46.2620489 L932.987638,46.1720272 L932.93713,46.0745272 C932.699443,45.6169503 931.786865,44.089655 930.04424,43.708591 L930.033206,43.7070789 L926.022836,43.7070789 C925.882761,43.6969003 925.679749,43.6300982 925.505335,43.4702979 L925.505788,41.6760717 C925.508462,41.6729415 925.51113,41.6698419 925.513789,41.6667732 L925.509748,41.6667732 C925.958027,41.1536868 926.476488,40.8251343 927.169844,40.8731423 L928.025806,40.9586204 L928.800391,41.0742482 C929.016286,41.2263806 929.330615,41.4487521 929.679424,41.688852 L929.855,41.809 L929.854154,41.8097485 C929.89768,41.8394785 929.942814,41.8695623 929.98703,41.8994862 L930.051895,41.9433505 L930.051895,41.9433505 L930.237163,42.0672241 L930.237163,42.0672241 C930.315709,42.1193144 930.394132,42.1706802 930.472688,42.221615 L930.534542,42.2619402 L930.534542,42.2619402 C930.638173,42.3286789 930.740461,42.3931038 930.841322,42.4554257 C930.890574,42.4858207 930.939275,42.5155536 930.987408,42.5445009 C931.02815,42.5690349 931.067879,42.5923601 931.107618,42.6156854 C931.140411,42.634908 931.172986,42.6538926 931.204983,42.6721972 C931.240843,42.6927362 931.276094,42.7126639 931.310817,42.7319277 C931.339505,42.7478284 931.367073,42.7625965 931.394895,42.7775541 C931.609747,42.8931465 931.79883,42.9808613 931.940774,43.0216827 C931.945249,43.0229816 931.949446,43.0240721 931.953829,43.0252789 C931.973145,43.0305505 931.991604,43.0349823 932.009077,43.0384365 C932.018726,43.0403751 932.028223,43.0421829 932.037284,43.0435482 C932.044694,43.0446386 932.051956,43.0455934 932.058964,43.0462913 C932.072662,43.0477065 932.085715,43.0485014 932.097817,43.0483754 L932.102168,43.0485692 C932.139482,43.04744 932.175529,43.043002 932.210412,43.0356952 C932.245216,43.028405 932.278868,43.0182058 932.311273,43.0054985 L932.335313,42.9955409 L932.335313,42.9955409 L932.358986,42.9845767 L932.38217,42.9728335 L932.38217,42.9728335 L932.404989,42.9601522 L932.42724,42.9467652 L932.42724,42.9467652 L932.449128,42.9325091 L932.470522,42.9175734 L932.470522,42.9175734 L932.512056,42.8855421 L932.512056,42.8855421 L932.532199,42.8685151 L932.541756,42.8597117 L932.541756,42.8597117 C932.576836,42.8283533 932.609908,42.7943975 932.640831,42.758331 L932.643632,42.755205 L932.677283,42.713923 L932.677283,42.713923 L932.709295,42.6712391 C932.73,42.6424856 932.749527,42.613058 932.767962,42.5832999 L932.768042,42.583203 L932.819971,42.4932726 L932.819971,42.4932726 L932.865253,42.4035361 L932.885352,42.3595432 L932.885352,42.3595432 L932.903874,42.316352 L932.920624,42.2744506 L932.920624,42.2744506 L932.935813,42.2339012 L932.949291,42.1951797 L932.949291,42.1951797 L932.961225,42.1583601 C932.9686,42.1346156 932.974875,42.1123499 932.980107,42.0920034 C932.990599,42.0512056 932.996832,42.0179715 932.998834,41.9952603 L932.998834,41.9947757 L933,41.9848363 L933,41.977358 C933,41.458271 932.805392,40.906089 932.256128,40.906089 C931.827885,40.906089 931.608636,41.2485785 931.514586,41.5654919 C931.481829,41.6291447 931.468096,41.7162643 931.460814,41.8384917 L931.460575,41.8407648 C931.460575,41.8407648 931.456023,41.8958474 931.451251,41.9530319 C931.450272,41.9599582 931.44958,41.9662413 931.448374,41.9734788 L931.355827,41.9022943 L931.323346,41.8760732 L931.323346,41.8760732 L931.271128,41.8325294 L931.271128,41.8325294 C931.264961,41.8272117 931.258798,41.8218999 931.252712,41.8165318 L931.172754,41.7426022 L931.172754,41.7426022 C931.169615,41.7395391 931.166622,41.736401 931.163506,41.7333258 C931.144433,41.7145971 931.126091,41.695565 931.10787,41.6764349 C930.629354,41.169147 930.452969,40.5093395 930.389096,40.1319594 L930.36695,40 L925.505,39.999 L925.50506,31.9823227 L928.045858,31.9823227 C928.117748,32.158126 928.344889,32.6907792 928.788968,33.2880555 C929.292828,33.9657367 930.060849,34.6780003 931.096118,34.6780003 C931.68129,34.6780003 932.194646,34.5002496 932.556744,34.1381529 L932.557353,34.1376957 C933.120962,33.5714032 933.147269,32.8291205 933.148356,32.6744902 L933.148388,32.6331774 C933.154925,32.5899717 933.159832,32.5571478 933.165352,32.4739605 C933.172599,32.365273 933.176738,32.2203363 933.166396,32.0571707 C933.145706,31.7308402 933.076749,31.3220168 932.799156,30.9981579 L932.797671,30.9963721 L932.796033,30.9945863 C932.577505,30.7475559 932.251211,30.6135084 931.893261,30.6135084 C931.49719,30.6135084 931.13928,30.7383825 930.918618,31.0167576 C930.708202,31.2816923 930.666862,31.5915831 930.663723,31.8290589 C930.663037,31.8831181 930.669178,31.9188081 930.672055,31.9655092 C930.262244,31.7818382 930.021329,31.5115972 929.872997,31.2180846 C929.695115,30.8660962 929.652912,30.4832673 929.648755,30.2639762 C929.645288,30.0960289 929.641814,29.9280816 929.638339,29.7601344 L929.144768,29.7146015 C928.772452,29.6722527 928.384296,29.3617768 928.207028,29.1783247 L928.204346,29.1754974 C928.093501,29.066389 927.982598,28.957217 927.871781,28.8481506 Z M927.043029,45.3048428 C927.047955,45.3048428 929.00975,45.3768793 929.00975,45.3768793 C929.566404,45.4608937 929.9901,45.6454076 930.220398,45.9109519 C930.371877,46.0864818 930.446987,46.2905431 930.446987,46.5290831 C930.446987,46.8336343 930.3583,47.0946795 930.184654,47.3032142 C929.860759,47.6947798 929.304148,47.813317 928.999958,47.8508229 C928.999958,47.8508229 928.798462,47.9313439 928.723339,47.9118411 C927.98491,47.9650786 927.782274,47.9016778 927.320106,47.8238026 C927.24375,47.8238026 927.083648,47.7698464 927.083648,47.7698464 C926.473122,47.5750206 925.948277,47.1841715 925.504905,46.7496459 L925.505328,45.0282729 C925.939188,45.1603115 926.447479,45.2588477 927.043029,45.3048428 Z" id="stade_toulousain"></path>
            </g>
        </g>
    </g>
</svg>