<?xml version="1.0" encoding="UTF-8"?>
<svg width="21px" height="18px" viewBox="0 0 21 18" version="1.1" xmlns="http://www.w3.org/2000/svg" xmlns:xlink="http://www.w3.org/1999/xlink">
    <!-- Generator: Sketch 59.1 (86144) - https://sketch.com -->
    <title>Group 11</title>
    <desc>Created with Sketch.</desc>
    <g id="Design" stroke="none" stroke-width="1" fill="none" fill-rule="evenodd">
        <g id="Desktop" transform="translate(-337.000000, -5549.000000)" fill="#000000" fill-rule="nonzero">
            <g id="CTA" transform="translate(-2.000000, 4744.000000)">
                <g id="list" transform="translate(275.000000, 804.000000)">
                    <g id="Group-17" transform="translate(0.000000, 1.000000)">
                        <g id="Group-11" transform="translate(64.000000, 0.000000)">
                            <g id="stadium">
                                <path d="M20,10.5 L20,14.5 C20,16.2 15.5,17.5 10,17.5 C8.6,17.5 7.2,17.4 6,17.2 L6,14.5 L2,13.5 L2,16.3 C0.7,15.8 0,15.2 0,14.5 L0,8.5 C0,7.5 2,6.5 4,6.5 C10,6.5 12,12 17,12 C19,12 20,10.5 20,10.5 L20,10.5 Z M3,5 L7,6 L7,3 L3,2 L3,5 L3,5 Z M16,3.5 L20,4.5 L20,1.5 L16,0.5 L16,3.5 L16,3.5 Z M20.3,7.8 C20.3,6.8 19.5,5 16.7,5 C13.9,5 11.4,7.7 11.3,7.9 C13.1,9.2 14.5,10.5 17,10.5 C20.3,10.5 20.3,7.8 20.3,7.8 Z" id="Shape"></path>
                            </g>
                        </g>
                    </g>
                </g>
            </g>
        </g>
    </g>
</svg>