<?xml version="1.0" encoding="UTF-8"?>
<svg width="24px" height="15px" viewBox="0 0 24 15" version="1.1" xmlns="http://www.w3.org/2000/svg" xmlns:xlink="http://www.w3.org/1999/xlink">
    <!-- Generator: Sketch 59.1 (86144) - https://sketch.com -->
    <title>Group 13</title>
    <desc>Created with Sketch.</desc>
    <g id="Design" stroke="none" stroke-width="1" fill="none" fill-rule="evenodd">
        <g id="Desktop" transform="translate(-485.000000, -5551.000000)" fill="#000000" fill-rule="nonzero">
            <g id="CTA" transform="translate(-2.000000, 4744.000000)">
                <g id="list" transform="translate(275.000000, 804.000000)">
                    <g id="Group-16" transform="translate(149.000000, 3.000000)">
                        <g id="Group-13" transform="translate(63.000000, 0.000000)">
                            <g id="account-group">
                                <path d="M12,0.5 C13.9329966,0.5 15.5,2.06700338 15.5,4 C15.5,5.93299662 13.9329966,7.5 12,7.5 C10.0670034,7.5 8.5,5.93299662 8.5,4 C8.5,2.06700338 10.0670034,0.5 12,0.5 L12,0.5 Z M5,3 C5.56,3 6.08,3.15 6.53,3.42 C6.38,4.85 6.8,6.27 7.66,7.38 C7.16,8.34 6.16,9 5,9 C3.34314575,9 2,7.65685425 2,6 C2,4.34314575 3.34314575,3 5,3 L5,3 Z M19,3 C20.6568542,3 22,4.34314575 22,6 C22,7.65685425 20.6568542,9 19,9 C17.84,9 16.84,8.34 16.34,7.38 C17.2,6.27 17.62,4.85 17.47,3.42 C17.92,3.15 18.44,3 19,3 L19,3 Z M5.5,13.25 C5.5,11.18 8.41,9.5 12,9.5 C15.59,9.5 18.5,11.18 18.5,13.25 L18.5,15 L5.5,15 L5.5,13.25 L5.5,13.25 Z M0,15 L0,13.5 C0,12.11 1.89,10.94 4.45,10.6 C3.86,11.28 3.5,12.22 3.5,13.25 L3.5,15 L0,15 L0,15 Z M24,15 L20.5,15 L20.5,13.25 C20.5,12.22 20.14,11.28 19.55,10.6 C22.11,10.94 24,12.11 24,13.5 L24,15 Z" id="Shape"></path>
                            </g>
                        </g>
                    </g>
                </g>
            </g>
        </g>
    </g>
</svg>