<?xml version="1.0" encoding="UTF-8"?>
<svg width="19px" height="18px" viewBox="0 0 19 18" version="1.1" xmlns="http://www.w3.org/2000/svg" xmlns:xlink="http://www.w3.org/1999/xlink">
    <!-- Generator: Sketch 59.1 (86144) - https://sketch.com -->
    <title>Group 14</title>
    <desc>Created with Sketch.</desc>
    <g id="Design" stroke="none" stroke-width="1" fill="none" fill-rule="evenodd">
        <g id="Desktop" transform="translate(-636.000000, -5549.000000)" fill="#000000" fill-rule="nonzero">
            <g id="CTA" transform="translate(-2.000000, 4744.000000)">
                <g id="list" transform="translate(275.000000, 804.000000)">
                    <g id="Group-15" transform="translate(298.000000, 1.000000)">
                        <g id="Group-14" transform="translate(65.000000, 0.000000)">
                            <g id="guitar-acoustic">
                                <path d="M16.59,0 L19,0 L19,2 L17.41,2 L13.17,6.24 C12.8,5.68 12.32,5.2 11.76,4.83 L16.59,0 L16.59,0 Z M9,5 C11.209139,5 13,6.790861 13,9 C13,10.82 11.77,12.42 10,12.87 L10,13 C10,15.7614237 7.76142375,18 5,18 C2.23857625,18 4.4408921e-16,15.7614237 4.4408921e-16,13 C4.4408921e-16,10.2385763 2.23857625,8 5,8 L5.13,8 C5.58,6.24 7.17,5 9,5 L9,5 Z M9,7.5 C8.17157288,7.5 7.5,8.17157288 7.5,9 C7.5,9.82842712 8.17157288,10.5 9,10.5 C9.82842712,10.5 10.5,9.82842712 10.5,9 C10.5,8.17157288 9.82842712,7.5 9,7.5 L9,7.5 Z M3.94,11.24 L3.23,11.94 L6.06,14.77 L6.77,14.06 L3.94,11.24 Z" id="Shape"></path>
                            </g>
                        </g>
                    </g>
                </g>
            </g>
        </g>
    </g>
</svg>