<?xml version="1.0" encoding="UTF-8"?>
<svg width="18px" height="21px" viewBox="0 0 18 21" version="1.1" xmlns="http://www.w3.org/2000/svg" xmlns:xlink="http://www.w3.org/1999/xlink">
    <!-- Generator: Sketch 59.1 (86144) - https://sketch.com -->
    <title>Group 18</title>
    <desc>Created with Sketch.</desc>
    <g id="Design" stroke="none" stroke-width="1" fill="none" fill-rule="evenodd">
        <g id="Desktop" transform="translate(-786.000000, -5548.000000)" fill="#000000" fill-rule="nonzero">
            <g id="CTA" transform="translate(-2.000000, 4744.000000)">
                <g id="list" transform="translate(275.000000, 804.000000)">
                    <g id="Group-19" transform="translate(447.000000, 0.000000)">
                        <g id="Group-18" transform="translate(66.000000, 0.000000)">
                            <g id="shopping">
                                <path d="M9,12 C6.23857625,12 4,9.76142375 4,7 L6,7 C6,8.65685425 7.34314575,10 9,10 C10.6568542,10 12,8.65685425 12,7 L14,7 C14,9.76142375 11.7614237,12 9,12 L9,12 Z M9,2 C10.6568542,2 12,3.34314575 12,5 L6,5 C6,3.34314575 7.34314575,2 9,2 L9,2 Z M16,5 L14,5 C14,3.67391755 13.4732158,2.40214799 12.5355339,1.46446609 C11.597852,0.526784202 10.3260824,-2.22044605e-16 9,-2.22044605e-16 C6.23857625,-2.22044605e-16 4,2.23857625 4,5 L2,5 C0.89,5 0,5.89 0,7 L0,19 C0,20.1045695 0.8954305,21 2,21 L16,21 C17.1045695,21 18,20.1045695 18,19 L18,7 C18,5.89 17.1,5 16,5 Z" id="Shape"></path>
                            </g>
                        </g>
                    </g>
                </g>
            </g>
        </g>
    </g>
</svg>