<?xml version="1.0" encoding="UTF-8"?>
<svg width="21px" height="9px" viewBox="0 0 21 9" version="1.1" xmlns="http://www.w3.org/2000/svg" xmlns:xlink="http://www.w3.org/1999/xlink">
    <!-- Generator: Sketch 59.1 (86144) - https://sketch.com -->
    <title>Group 20</title>
    <desc>Created with Sketch.</desc>
    <g id="Design" stroke="none" stroke-width="1" fill="none" fill-rule="evenodd">
        <g id="Desktop" transform="translate(-934.000000, -5554.000000)" fill="#000000" fill-rule="nonzero">
            <g id="CTA" transform="translate(-2.000000, 4744.000000)">
                <g id="list" transform="translate(275.000000, 804.000000)">
                    <g id="Group-21" transform="translate(596.000000, 6.000000)">
                        <g id="Group-20" transform="translate(65.000000, 0.000000)">
                            <g id="controller-classic">
                                <path d="M5.44545455,0 L16.3545455,0 C17.560075,0 18.7162291,0.474105782 19.5686672,1.31801948 C20.4211053,2.16193319 20.9,3.3065258 20.9,4.5 C20.9,5.6934742 20.4211053,6.83806681 19.5686672,7.68198052 C18.7162291,8.52589422 17.560075,9 16.3545455,9 C14.8636364,9 13.5454545,8.289 12.7181818,7.2 L9.08181818,7.2 C8.25454545,8.289 6.93636364,9 5.44545455,9 C4.23992505,9 3.0837709,8.52589422 2.23133281,7.68198052 C1.37889473,6.83806681 0.9,5.6934742 0.9,4.5 C0.9,2.01471863 2.93506932,0 5.44545455,0 L5.44545455,0 Z M17.9454545,2.25 C17.3178582,2.25 16.8090909,2.75367966 16.8090909,3.375 C16.8090909,3.67336855 16.9288146,3.9595167 17.1419241,4.17049513 C17.3550336,4.38147355 17.6440722,4.5 17.9454545,4.5 C18.2468369,4.5 18.5358755,4.38147355 18.748985,4.17049513 C18.9620945,3.9595167 19.0818182,3.67336855 19.0818182,3.375 C19.0818182,2.75367966 18.5730509,2.25 17.9454545,2.25 L17.9454545,2.25 Z M15.6727273,4.5 C15.045131,4.5 14.5363636,5.00367966 14.5363636,5.625 C14.5363636,6.24632034 15.045131,6.75 15.6727273,6.75 C16.3003236,6.75 16.8090909,6.24632034 16.8090909,5.625 C16.8090909,5.00367966 16.3003236,4.5 15.6727273,4.5 L15.6727273,4.5 Z M4.53636364,1.8 L4.53636364,3.6 L2.71818182,3.6 L2.71818182,5.4 L4.53636364,5.4 L4.53636364,7.2 L6.35454545,7.2 L6.35454545,5.4 L8.17272727,5.4 L8.17272727,3.6 L6.35454545,3.6 L6.35454545,1.8 L4.53636364,1.8 Z" id="Shape"></path>
                            </g>
                        </g>
                    </g>
                </g>
            </g>
        </g>
    </g>
</svg>