<?xml version="1.0" encoding="UTF-8"?>
<svg width="18px" height="21px" viewBox="0 0 18 21" version="1.1" xmlns="http://www.w3.org/2000/svg" xmlns:xlink="http://www.w3.org/1999/xlink">
    <!-- Generator: Sketch 59.1 (86144) - https://sketch.com -->
    <title>Group 22</title>
    <desc>Created with Sketch.</desc>
    <g id="Design" stroke="none" stroke-width="1" fill="none" fill-rule="evenodd">
        <g id="Desktop" transform="translate(-1084.000000, -5548.000000)" fill="#000000" fill-rule="nonzero">
            <g id="CTA" transform="translate(-2.000000, 4744.000000)">
                <g id="list" transform="translate(275.000000, 804.000000)">
                    <g id="Group-23" transform="translate(745.000000, 0.000000)">
                        <g id="Group-22" transform="translate(66.000000, 0.000000)">
                            <g id="projector-screen">
                                <path d="M1,0 C0.44771525,0 0,0.44771525 0,1 L0,2 C0,2.55228475 0.44771525,3 1,3 L2,3 L2,12 L8,12 L8,14.59 L3.79,18.79 L5.21,20.21 L8,17.41 L8,20 L10,20 L10,17.41 L12.79,20.21 L14.21,18.79 L10,14.59 L10,12 L16,12 L16,3 L17,3 C17.5522847,3 18,2.55228475 18,2 L18,1 C18,0.44771525 17.5522847,0 17,0 L1,0 Z" id="Path"></path>
                            </g>
                        </g>
                    </g>
                </g>
            </g>
        </g>
    </g>
</svg>